<svg width="1440" height="1024" viewBox="0 0 1440 1024" fill="none" xmlns="http://www.w3.org/2000/svg">
<rect width="1440" height="1024" fill="white"/>
<g clip-path="url(#clip0)">
<path d="M727.196 835.554C923.203 835.554 1082.1 830.879 1082.1 825.113C1082.1 819.346 923.203 814.671 727.196 814.671C531.189 814.671 372.294 819.346 372.294 825.113C372.294 830.879 531.189 835.554 727.196 835.554Z" fill="#F5F8FF"/>
<path d="M775.693 820.889H534.726C515.181 820.889 502.023 805.044 505.337 785.499L602.386 213.148C605.7 193.602 624.232 177.757 643.777 177.757H884.744C904.289 177.757 917.447 193.602 914.133 213.148L817.084 785.499C813.77 805.044 795.238 820.889 775.693 820.889Z" fill="#5CA4E6"/>
<path d="M745.596 820.889H504.629C485.084 820.889 471.926 805.044 475.24 785.499L572.289 213.148C575.603 193.602 594.134 177.757 613.68 177.757H854.646C874.192 177.757 887.35 193.602 884.036 213.148L786.987 785.499C783.673 805.044 765.141 820.889 745.596 820.889Z" fill="#D1E8F7"/>
<path d="M746.981 801.754H509.733C499.584 801.754 492.752 793.527 494.473 783.378L590.803 215.268C592.524 205.119 602.146 196.892 612.295 196.892H849.543C859.692 196.892 866.524 205.119 864.803 215.268L768.473 783.378C766.752 793.527 757.13 801.754 746.981 801.754Z" fill="white"/>
<path d="M769.437 388.307H542.588L566.231 257.692C567.78 249.728 575.492 243.272 583.455 243.272H797.645C805.609 243.272 810.809 249.728 809.26 257.692L786.661 373.888C785.112 381.851 777.401 388.307 769.437 388.307Z" fill="url(#paint0_linear)"/>
<path d="M751.153 371.5H411.546C403.583 371.5 398.382 365.044 399.931 357.08L422.53 240.884C424.079 232.92 431.79 226.464 439.754 226.464H779.361C787.324 226.464 792.525 232.92 790.976 240.884L768.377 357.08C766.828 365.044 759.116 371.5 751.153 371.5Z" fill="#FEBB94"/>
<path d="M729.486 786.942L518.854 787.942C510.89 787.942 505.69 781.486 507.239 773.523L529.838 657.327C531.387 649.363 539.098 642.907 547.062 642.907L757.694 641.907C765.658 641.907 770.858 648.363 769.309 656.327L746.71 772.523C745.161 780.486 737.45 786.942 729.486 786.942Z" fill="#FEBB94"/>
<path d="M542.02 751.756C548.013 704.879 592.553 666.877 641.503 666.877C690.453 666.877 725.276 704.879 719.283 751.756" stroke="#FF967C" stroke-width="16.5208" stroke-miterlimit="10" stroke-linecap="round"/>
<path d="M542.02 751.756C548.013 704.879 592.553 666.877 641.503 666.877C665.73 666.877 686.497 676.186 700.567 691.273" stroke="white" stroke-width="16.5208" stroke-miterlimit="10" stroke-linecap="round"/>
<path d="M704.298 625.479H553.48C545.43 625.479 539.989 618.953 541.328 610.903L573.18 419.311C574.518 411.261 582.129 404.736 590.179 404.736H740.996C749.046 404.736 754.487 411.261 753.149 419.311L721.296 610.903C719.958 618.953 712.348 625.479 704.298 625.479Z" fill="url(#paint1_linear)"/>
<path d="M599.922 506.051H579.359C578.228 506.09 577.143 506.512 576.284 507.248C575.425 507.985 574.842 508.993 574.632 510.105L563.464 577.282C563.355 577.779 563.362 578.295 563.483 578.789C563.605 579.283 563.837 579.743 564.163 580.134C564.489 580.525 564.9 580.837 565.364 581.045C565.829 581.253 566.335 581.352 566.843 581.335H587.406C588.538 581.297 589.622 580.875 590.481 580.138C591.341 579.401 591.923 578.394 592.134 577.282L603.302 510.105C603.41 509.608 603.403 509.092 603.282 508.598C603.161 508.103 602.928 507.643 602.602 507.252C602.277 506.861 601.866 506.55 601.401 506.342C600.937 506.134 600.431 506.034 599.922 506.051Z" fill="white"/>
<path d="M637.44 529.036H616.877C615.745 529.074 614.661 529.496 613.802 530.233C612.942 530.97 612.36 531.977 612.149 533.089L604.802 577.282C604.694 577.779 604.701 578.295 604.822 578.789C604.943 579.283 605.176 579.743 605.502 580.134C605.828 580.525 606.238 580.837 606.703 581.045C607.167 581.253 607.673 581.352 608.182 581.335H628.745C629.876 581.297 630.961 580.875 631.82 580.138C632.679 579.401 633.262 578.394 633.472 577.282L640.819 533.089C640.928 532.592 640.921 532.076 640.8 531.582C640.678 531.088 640.446 530.628 640.12 530.237C639.794 529.846 639.383 529.534 638.919 529.326C638.454 529.118 637.948 529.019 637.44 529.036Z" fill="white"/>
<path d="M687.105 464.367H666.542C665.411 464.405 664.327 464.827 663.467 465.564C662.608 466.301 662.025 467.308 661.815 468.42L643.717 577.282C643.609 577.779 643.615 578.295 643.737 578.789C643.858 579.283 644.09 579.743 644.416 580.134C644.742 580.525 645.153 580.837 645.617 581.045C646.082 581.253 646.588 581.352 647.096 581.335H667.659C668.791 581.297 669.875 580.875 670.734 580.138C671.594 579.401 672.176 578.394 672.387 577.282L690.485 468.42C690.593 467.923 690.586 467.407 690.465 466.913C690.344 466.419 690.112 465.959 689.786 465.568C689.46 465.177 689.049 464.865 688.584 464.657C688.12 464.449 687.614 464.35 687.105 464.367Z" fill="white"/>
<path d="M722.491 492.586H701.928C700.797 492.624 699.712 493.046 698.853 493.783C697.994 494.52 697.411 495.527 697.201 496.639L683.794 577.282C683.686 577.779 683.692 578.295 683.814 578.789C683.935 579.283 684.167 579.743 684.493 580.134C684.819 580.525 685.23 580.837 685.694 581.045C686.159 581.253 686.665 581.352 687.173 581.335H707.736C708.868 581.297 709.952 580.875 710.812 580.138C711.671 579.401 712.254 578.394 712.464 577.282L725.871 496.639C725.979 496.142 725.972 495.626 725.851 495.132C725.73 494.638 725.497 494.178 725.171 493.787C724.845 493.396 724.435 493.084 723.97 492.876C723.506 492.668 723 492.569 722.491 492.586Z" fill="white"/>
<path d="M588.231 428.306H643.905" stroke="white" stroke-width="10" stroke-miterlimit="10" stroke-linecap="round"/>
<path d="M585.088 447.21H612.925" stroke="white" stroke-width="10" stroke-miterlimit="10" stroke-linecap="round"/>
<path opacity="0.6" d="M569.465 595.025H580.233" stroke="white" stroke-width="6" stroke-miterlimit="10" stroke-linecap="round"/>
<path opacity="0.6" d="M610.804 595.025H621.571" stroke="white" stroke-width="6" stroke-miterlimit="10" stroke-linecap="round"/>
<path opacity="0.6" d="M649.718 595.025H660.486" stroke="white" stroke-width="6" stroke-miterlimit="10" stroke-linecap="round"/>
<path opacity="0.6" d="M689.795 595.025H700.563" stroke="white" stroke-width="6" stroke-miterlimit="10" stroke-linecap="round"/>
<path d="M902.128 625.479H751.311C743.261 625.479 737.82 618.953 739.158 610.903L771.011 419.311C772.349 411.261 779.959 404.736 788.009 404.736H938.827C946.877 404.736 952.318 411.261 950.979 419.311L919.127 610.903C917.789 618.953 910.178 625.479 902.128 625.479Z" fill="url(#paint2_linear)"/>
<path d="M793.846 534.934H773.283C772.152 534.972 771.067 535.394 770.208 536.131C769.349 536.868 768.766 537.875 768.556 538.987L761.294 577.282C761.186 577.779 761.193 578.295 761.314 578.789C761.435 579.283 761.668 579.743 761.994 580.134C762.32 580.525 762.73 580.837 763.195 581.045C763.659 581.253 764.165 581.352 764.674 581.335H785.237C786.368 581.297 787.453 580.875 788.312 580.138C789.171 579.401 789.754 578.394 789.964 577.282L797.226 538.987C797.334 538.49 797.327 537.974 797.206 537.48C797.085 536.986 796.852 536.526 796.526 536.135C796.2 535.744 795.79 535.432 795.325 535.224C794.861 535.016 794.355 534.917 793.846 534.934Z" fill="white"/>
<path d="M843.036 475.635H822.473C821.342 475.673 820.258 476.095 819.398 476.832C818.539 477.569 817.956 478.576 817.746 479.688L802.633 577.282C802.525 577.779 802.532 578.295 802.653 578.789C802.774 579.283 803.006 579.743 803.332 580.134C803.658 580.525 804.069 580.837 804.534 581.045C804.998 581.253 805.504 581.352 806.013 581.335H826.576C827.707 581.297 828.791 580.875 829.651 580.138C830.51 579.401 831.093 578.394 831.303 577.282L846.416 479.688C846.524 479.191 846.517 478.675 846.396 478.181C846.275 477.687 846.043 477.227 845.717 476.836C845.391 476.445 844.98 476.133 844.515 475.925C844.051 475.717 843.545 475.618 843.036 475.635Z" fill="white"/>
<path d="M878.132 503.5H857.569C856.438 503.538 855.354 503.96 854.494 504.697C853.635 505.434 853.052 506.441 852.842 507.553L841.547 577.282C841.439 577.779 841.446 578.295 841.567 578.789C841.688 579.283 841.921 579.743 842.247 580.134C842.573 580.525 842.984 580.837 843.448 581.045C843.913 581.253 844.418 581.352 844.927 581.335H865.49C866.621 581.297 867.706 580.875 868.565 580.138C869.424 579.401 870.007 578.394 870.217 577.282L881.512 507.553C881.62 507.056 881.613 506.54 881.492 506.046C881.371 505.552 881.139 505.092 880.813 504.701C880.487 504.31 880.076 503.998 879.611 503.79C879.147 503.582 878.641 503.483 878.132 503.5Z" fill="white"/>
<path d="M920.322 492.586H899.759C898.627 492.624 897.543 493.046 896.684 493.783C895.824 494.52 895.242 495.527 895.031 496.639L881.625 577.282C881.516 577.779 881.523 578.295 881.644 578.789C881.765 579.283 881.998 579.743 882.324 580.134C882.65 580.525 883.061 580.837 883.525 581.045C883.99 581.253 884.495 581.352 885.004 581.335H905.567C906.698 581.297 907.783 580.875 908.642 580.138C909.501 579.401 910.084 578.394 910.294 577.282L923.701 496.639C923.809 496.142 923.803 495.626 923.682 495.132C923.56 494.638 923.328 494.178 923.002 493.787C922.676 493.396 922.265 493.084 921.801 492.876C921.336 492.668 920.83 492.569 920.322 492.586Z" fill="white"/>
<path d="M786.062 428.306H841.735" stroke="white" stroke-width="10" stroke-miterlimit="10" stroke-linecap="round"/>
<path d="M782.919 447.21H810.756" stroke="white" stroke-width="10" stroke-miterlimit="10" stroke-linecap="round"/>
<path opacity="0.6" d="M767.296 595.025H778.063" stroke="white" stroke-width="6" stroke-miterlimit="10" stroke-linecap="round"/>
<path opacity="0.6" d="M808.635 595.025H819.402" stroke="white" stroke-width="6" stroke-miterlimit="10" stroke-linecap="round"/>
<path opacity="0.6" d="M847.549 595.025H858.317" stroke="white" stroke-width="6" stroke-miterlimit="10" stroke-linecap="round"/>
<path opacity="0.6" d="M887.626 595.025H898.394" stroke="white" stroke-width="6" stroke-miterlimit="10" stroke-linecap="round"/>
<path d="M261.956 840.799L304.782 930.39L299.471 932.929C297.678 933.786 295.619 933.896 293.746 933.234C291.873 932.573 290.339 931.194 289.483 929.402L253.116 853.327C252.26 851.534 252.15 849.475 252.811 847.602C253.473 845.729 254.851 844.195 256.644 843.338L261.956 840.799L261.956 840.799Z" fill="#71C8EA"/>
<path d="M308.581 820.569L279.025 832.787L295.606 856.235L321.808 848.24L308.581 820.569Z" fill="#FFCCB3"/>
<path d="M289.702 833.723C289.702 833.723 301.241 851.545 302.982 861.504C304.723 871.462 310.684 921.836 309.08 926.377C307.927 929.641 303.739 931.042 301.082 931.338C300.499 931.4 299.911 931.279 299.4 930.992C298.889 930.705 298.479 930.266 298.229 929.736L259.354 848.411C258.704 847.054 258.613 845.497 259.099 844.074C259.586 842.65 260.611 841.475 261.956 840.799C267.334 838.097 275.561 834.048 279.025 832.787C284.379 830.838 287.913 830.85 289.702 833.723Z" fill="#5661AE"/>
<path d="M498.929 876.359L458.766 950.499C457.819 952.246 456.218 953.545 454.314 954.111C452.41 954.677 450.359 954.464 448.612 953.517L443.435 950.713L490.735 863.401L495.911 866.205C497.658 867.151 498.957 868.752 499.523 870.657C500.089 872.561 499.876 874.612 498.929 876.359Z" fill="#71C8EA"/>
<path d="M445.191 840.84L474.092 854.536L456.347 877.116L430.582 867.807L445.191 840.84Z" fill="#FFCCB3"/>
<path d="M463.381 854.931C463.381 854.931 450.956 872.147 448.714 882.005C446.473 891.863 437.974 941.871 439.346 946.488C440.332 949.806 444.444 951.416 447.083 951.846C447.662 951.938 448.255 951.847 448.78 951.586C449.305 951.325 449.736 950.907 450.013 950.391L492.949 871.134C493.666 869.812 493.836 868.261 493.422 866.815C493.008 865.369 492.043 864.143 490.735 863.401C485.5 860.43 477.487 855.97 474.092 854.536C468.843 852.319 465.313 852.153 463.381 854.931Z" fill="#5661AE"/>
<path d="M532.26 735.227C532.26 735.227 543.324 790.17 534.738 800.936L315.953 856.958L297.296 822.011L425.057 764.036L450.644 728.966L532.26 735.227Z" fill="#D1E8F7"/>
<path d="M476.896 774.432L428.624 790.577L406.099 800.022L435.391 826.375L409.203 832.291L337.772 774.432H476.896Z" fill="#5CA4E6"/>
<path d="M311.005 817.428L312.49 822.588L346.41 849.064L378.273 841.289C378.273 841.289 316.806 812.037 311.005 817.428Z" fill="#5CA4E6"/>
<path d="M372.411 732.022C372.411 732.022 310.546 728.666 279.882 731.362C260.137 733.097 253.019 783.624 268.776 792.816L437.882 879.402L457.81 843.393L348.721 769.551L426.766 758.573L372.411 732.022Z" fill="#D1E8F7"/>
<path d="M285.082 797.118C303.352 797.118 318.163 782.307 318.163 764.036C318.163 745.766 303.352 730.954 285.082 730.954C266.811 730.954 252 745.766 252 764.036C252 782.307 266.811 797.118 285.082 797.118Z" fill="#D1E8F7"/>
<path d="M529.242 801.39C547.512 801.39 562.323 786.579 562.323 768.309C562.323 750.038 547.512 735.227 529.242 735.227C510.971 735.227 496.16 750.038 496.16 768.309C496.16 786.579 510.971 801.39 529.242 801.39Z" fill="#D1E8F7"/>
<path d="M438.62 612.202C435.135 594.997 443.331 595.44 446.059 592.705C446.059 592.705 456.291 584.267 464.088 592.132C472.341 600.452 519.65 665.083 519.65 665.083L490.049 692.308L484.485 685.668L470.072 668.478L454.656 650.106L452.741 648.015L431.945 624.46C431.945 624.46 440.591 621.26 438.62 612.202Z" fill="#5661AE"/>
<path d="M455.036 629.48C466.95 625.49 473.372 612.598 469.382 600.684C465.392 588.771 452.5 582.348 440.586 586.338C428.673 590.329 422.25 603.221 426.241 615.134C430.231 627.047 443.123 633.47 455.036 629.48Z" fill="#5661AE"/>
<path d="M453.014 647.923C452.417 644.327 451.223 637.135 449.938 630.58L443.109 598.855C443.109 598.855 461.451 625.965 469.902 644.848C476.16 658.999 483.42 673.422 484.621 685.622L470.209 668.433L454.793 650.061L453.014 647.923Z" fill="#465393"/>
<path d="M549.217 592.32C556.251 579.49 552.871 577.312 555.863 570.013C558.811 562.89 553.577 545.233 558.588 547.641C563.598 550.048 565.149 556.447 565.149 556.447C568.576 550.384 571.732 539.23 579.935 537.953C588.14 536.677 588.866 539.259 593.516 543.075C605.887 553.368 590.112 568.837 587.479 574.727C585.785 578.42 573.338 589.677 571.959 592.137L565.694 601.225L549.217 592.32Z" fill="#FFCCB3"/>
<path d="M573.386 557.242L583.383 538.785L573.386 557.242Z" fill="#E56441"/>
<path d="M573.386 557.242L583.383 538.785" stroke="#E56441" stroke-width="0.94666" stroke-linecap="round"/>
<path d="M579.936 560.231L590.832 543.041L579.936 560.231Z" fill="#E56441"/>
<path d="M579.936 560.231L590.832 543.041" stroke="#E56441" stroke-width="0.94666" stroke-linecap="round"/>
<path d="M587.718 563.535L593.945 553.125L587.718 563.535Z" fill="#E56441"/>
<path d="M587.718 563.535L593.945 553.125" stroke="#E56441" stroke-width="0.94666" stroke-linecap="round"/>
<path d="M570.916 573.49C570.863 567.099 567.028 559.366 567.028 559.366L570.916 573.49Z" fill="#E56441"/>
<path d="M570.916 573.49C570.863 567.099 567.028 559.366 567.028 559.366" stroke="#E56441" stroke-width="0.94666" stroke-linecap="round"/>
<path d="M489.798 664.568L549.991 584.409C550.374 583.938 550.919 583.626 551.519 583.532C552.119 583.439 552.733 583.571 553.241 583.903L569.003 594.327C569.752 594.834 570.285 595.602 570.5 596.481C570.715 597.36 570.595 598.287 570.164 599.083L521.758 688.352L489.798 664.568Z" fill="#5661AE"/>
<path d="M504.423 698.426C515.556 698.426 524.581 689.401 524.581 678.268C524.581 667.136 515.556 658.111 504.423 658.111C493.291 658.111 484.266 667.136 484.266 678.268C484.266 689.401 493.291 698.426 504.423 698.426Z" fill="#5661AE"/>
<path d="M415.037 574.986C415.037 574.986 448.816 583.925 454.614 586.244C460.413 588.564 460.799 597.841 461.186 604.413C461.572 610.985 460.274 758.573 460.274 758.573L385.518 755.698L329.612 722.973C329.612 722.973 332.043 605.867 332.816 600.455C333.589 595.043 327.514 590.383 334.099 587.658L376.429 576.476L415.037 574.986Z" fill="#5661AE"/>
<path d="M358.784 627.562L359.386 736.606L327.248 700.786L342.797 624.169L358.784 627.562Z" fill="#465393"/>
<path d="M370.916 578.143C370.916 578.143 366.134 587.76 370.916 594.394C375.698 601.028 394.842 607.473 407.921 607.283C420.999 607.094 427.929 594.624 422 577.166L400.339 571.081L376.429 576.476L370.916 578.143Z" fill="#465393"/>
<path d="M425.058 495.259C425.058 495.259 434.476 515.582 424.431 519.78C414.386 523.978 415.556 496.245 425.058 495.259Z" fill="#93523E"/>
<path d="M414.434 560.291L417.159 591.015C417.159 591.015 419.771 595.134 409.598 597.297C403.054 598.688 385.432 591.745 382.013 589.662C380.559 588.89 379.42 587.636 378.792 586.115C378.164 584.593 378.086 582.901 378.571 581.328C379.61 577.568 383.916 546.246 383.916 546.246L414.434 560.291Z" fill="#FFCCB3"/>
<path d="M414.959 566.214L398.727 558.195L416.823 587.227L414.959 566.214Z" fill="#FF967C"/>
<path d="M419.649 501.14C419.649 501.14 429.175 525.031 432.63 541.79C436.116 558.699 430.554 562.922 423.215 565.408C417.426 567.37 408.182 568.934 401.894 566.965C390.427 563.375 379.209 553.014 376.526 550.886C372.372 547.591 368.271 532.645 374.359 524.19C380.448 515.734 404.437 489.162 419.649 501.14Z" fill="#FFCCB3"/>
<path d="M407.385 534.116C408.652 533.617 409.062 531.646 408.301 529.712C407.54 527.778 405.897 526.615 404.63 527.113C403.363 527.612 402.953 529.583 403.713 531.517C404.474 533.451 406.118 534.614 407.385 534.116Z" fill="#080B09"/>
<path d="M424.797 527.138C426.064 526.64 426.474 524.668 425.713 522.735C424.953 520.801 423.309 519.638 422.042 520.136C420.775 520.635 420.365 522.606 421.126 524.54C421.886 526.473 423.53 527.637 424.797 527.138Z" fill="#080B09"/>
<path d="M418.411 530.437C418.411 530.437 416.864 535.119 420.116 534.663C423.207 534.121 425.305 535.648 422.604 538.785" fill="#E56441"/>
<path d="M418.411 530.437C418.411 530.437 416.864 535.119 420.116 534.663C423.207 534.121 425.305 535.648 422.604 538.785" stroke="#E56441" stroke-width="0.94666" stroke-linecap="round"/>
<path d="M422.755 542.924L422.771 542.921L422.787 542.916C422.832 542.902 422.88 542.901 422.925 542.912C422.971 542.922 423.013 542.945 423.047 542.978C423.081 543.011 423.106 543.052 423.119 543.097C423.131 543.143 423.132 543.191 423.12 543.236L423.11 543.275L423.106 543.315C422.907 545.364 422.397 546.582 421.778 547.266C421.18 547.928 420.43 548.148 419.579 548.083C418.706 548.016 417.747 547.648 416.818 547.143C415.9 546.644 415.047 546.031 414.388 545.505C414.343 545.463 414.31 545.411 414.292 545.352C414.272 545.291 414.27 545.225 414.286 545.162C414.301 545.1 414.334 545.042 414.379 544.997C414.425 544.951 414.482 544.919 414.545 544.904L414.545 544.904L414.55 544.903C417.064 544.266 420.856 543.372 422.755 542.924Z" fill="#E56441" stroke="#E56441"/>
<path d="M396.354 525.93L396.592 526.264C396.897 526.781 397.394 527.157 397.975 527.309C398.555 527.461 399.173 527.377 399.692 527.076L408.479 521.662C408.915 521.418 409.243 521.018 409.399 520.543C409.554 520.068 409.526 519.552 409.319 519.097C409.205 518.812 409.033 518.555 408.812 518.342C408.592 518.129 408.329 517.965 408.04 517.861C407.752 517.757 407.445 517.716 407.139 517.739C406.833 517.763 406.536 517.851 406.267 517.998L397.242 523.078C396.993 523.204 396.772 523.378 396.591 523.59C396.411 523.803 396.275 524.049 396.193 524.316C396.11 524.582 396.081 524.862 396.109 525.139C396.137 525.416 396.22 525.685 396.354 525.93Z" fill="#080B09"/>
<path d="M426.709 512.047L416.397 513.002C416.092 513.034 415.797 513.131 415.532 513.285C415.267 513.439 415.038 513.648 414.86 513.898C414.682 514.147 414.559 514.431 414.499 514.732C414.439 515.033 414.443 515.343 414.511 515.641C414.6 516.133 414.87 516.574 415.268 516.876C415.667 517.179 416.164 517.32 416.662 517.273L426.968 516.728C427.566 516.68 428.122 516.398 428.513 515.943C428.904 515.487 429.099 514.896 429.055 514.297L429.062 513.887C429.033 513.609 428.948 513.341 428.813 513.097C428.678 512.853 428.495 512.639 428.276 512.467C428.056 512.295 427.804 512.17 427.535 512.097C427.266 512.025 426.985 512.008 426.709 512.047Z" fill="#080B09"/>
<path d="M407.826 505.907C407.826 505.907 402.679 515.701 393.341 518.605C384.003 521.51 389.106 536.248 389.106 536.248C389.106 536.248 382.703 529.878 375.343 533.464C367.982 537.049 373.569 551.121 383.738 551.3L380.972 567.134C380.972 567.134 375.822 560.721 370.406 557.289C364.989 553.857 345.532 540.536 354.127 522.991C354.127 522.991 347.402 498.356 365.846 485.583C384.29 472.811 400.254 477.631 400.254 477.631C400.254 477.631 404.651 470.656 414.843 472.08C425.035 473.505 427.385 491.883 424.01 498.53C420.635 505.177 415.135 508.002 407.826 505.907Z" fill="#93523E"/>
<path d="M330.984 604.1C343.955 592.27 347.785 599.529 351.534 600.464C351.534 600.464 364.03 604.907 361.288 615.638C358.39 626.993 327.248 700.786 327.248 700.786L288.683 689.378L291.521 681.193L298.863 659.997L306.705 637.332L307.515 634.614L317.039 604.671C317.039 604.671 324.226 610.444 330.984 604.1Z" fill="#5661AE"/>
<path d="M356.671 624.574C364.842 615.029 363.728 600.669 354.184 592.498C344.64 584.327 330.279 585.441 322.109 594.985C313.938 604.529 315.051 618.89 324.596 627.061C334.14 635.231 348.5 634.118 356.671 624.574Z" fill="#5661AE"/>
<path d="M323.43 682.661L395.028 752.821C395.445 753.263 395.683 753.844 395.697 754.451C395.711 755.058 395.5 755.649 395.104 756.11L382.709 770.372C382.108 771.049 381.277 771.477 380.377 771.575C379.478 771.673 378.574 771.433 377.842 770.902L295.671 711.236L323.43 682.661Z" fill="#5661AE"/>
<path d="M307.934 715.526C319.067 715.526 328.092 706.502 328.092 695.369C328.092 684.236 319.067 675.212 307.934 675.212C296.802 675.212 287.777 684.236 287.777 695.369C287.777 706.502 296.802 715.526 307.934 715.526Z" fill="#5661AE"/>
<path d="M424.418 669.146L385.561 776.799H307.433C307.433 773.512 308.739 770.359 311.063 768.035C313.388 765.71 316.54 764.405 319.827 764.405H376.35L409.903 669.146H424.418Z" fill="white"/>
<path d="M424.418 669.146H529.242L488.702 776.799H385.561L424.418 669.146Z" fill="url(#paint3_linear)"/>
<path d="M570.787 318.068C570.787 318.068 588.253 314.389 593.793 322.883C599.333 331.377 604.873 347.334 617.43 345.265C629.987 343.196 639.589 301.462 652.146 301.832C664.703 302.201 659.163 329.531 672.828 329.9C686.493 330.269 683.169 314.758 694.249 314.758C705.329 314.758 701.635 347.997 716.039 348.366C730.443 348.736 728.965 305.525 750.755 306.263" stroke="white" stroke-width="5" stroke-miterlimit="10" stroke-linecap="round"/>
<path d="M519.801 312.326C528.696 290.477 520.132 266.343 500.673 258.421C481.214 250.499 458.229 261.789 449.334 283.638C440.439 305.487 449.003 329.621 468.462 337.543C487.921 345.465 510.907 334.175 519.801 312.326Z" stroke="#FF967C" stroke-width="16.5208" stroke-miterlimit="10" stroke-linecap="round"/>
<path d="M502.686 333.468C492.419 340.24 479.838 342.174 468.462 337.543C449.003 329.621 440.439 305.487 449.334 283.638C458.229 261.789 481.214 250.499 500.673 258.421" stroke="white" stroke-width="16.5208" stroke-miterlimit="10" stroke-linecap="round"/>
<path d="M583.915 255.889H660.771" stroke="white" stroke-width="10" stroke-miterlimit="10" stroke-linecap="round"/>
<path opacity="0.6" d="M580.273 277.089H611.542" stroke="white" stroke-width="10" stroke-miterlimit="10" stroke-linecap="round"/>
<path d="M1165.78 782.813C1165.56 782.837 1165.46 782.96 1165.58 783.059C1165.48 783.181 1165.48 783.181 1165.51 783.403C1165.04 784.927 1164.71 786.49 1164.52 788.073L1183.48 803.312L1185.58 800.953C1185.58 800.953 1178.58 792.296 1175.96 789.778C1174.83 788.668 1173.82 787.656 1172.81 786.645C1171.93 785.732 1171.14 784.696 1170.38 783.882C1169.32 782.427 1166.25 782.986 1166.22 782.764C1166.1 782.666 1165.78 782.813 1165.78 782.813Z" fill="#233B62"/>
<path d="M1022.41 650.402L1040.72 668.145L1143.09 767.005L1144.96 768.708L1145.77 769.965L1145.89 770.064L1160.39 792.034L1162.01 794.548L1162.55 795.386L1172.36 810.353L1164.28 814.373L1161.94 815.525L1158.64 817.118L1153.43 819.815L1153.34 819.937L1147.81 822.781L1147.54 822.362L1134.94 798.279C1132.5 793.627 1129.07 789.562 1124.9 786.365L1013.58 701.15L992.422 684.951L1022.41 650.402Z" fill="#FFCCB3"/>
<path d="M1158.99 770.881C1154.08 768.602 1148.57 766.564 1143.19 766.882C1146.43 769.724 1147.91 774.782 1150.06 778.469C1154.47 786.058 1165.78 800.162 1160 812.147C1156.75 818.882 1147.67 822.46 1147.54 822.361C1146.02 829.278 1138.49 857.432 1153.51 841.112C1161.9 831.998 1170.22 822.262 1174.4 812.598C1176.12 808.636 1172.49 804.684 1170.71 801.339C1168.43 796.277 1165.03 789.573 1165.46 783.969L1165.55 783.846C1165.8 783.459 1185.25 800.871 1185.58 800.953C1186.25 799.871 1187.81 797.684 1187.81 797.684C1187.81 797.684 1159.92 771.228 1158.99 770.881Z" fill="#1C85E8"/>
<path d="M949.52 862.977C949.345 862.839 949.188 862.858 949.207 863.014C949.051 863.033 949.051 863.033 948.913 863.209C947.514 863.972 946.185 864.859 944.943 865.858L947.841 890.012L950.99 889.793C950.99 889.793 952.043 878.711 951.924 875.073C951.893 873.489 951.88 872.062 951.867 870.634C951.874 869.363 952.037 868.073 952.062 866.959C952.325 865.181 949.733 863.428 949.871 863.252C949.852 863.096 949.52 862.977 949.52 862.977Z" fill="#233B62"/>
<path d="M939.635 668.071L940.31 693.553L944.355 835.81L944.5 838.333L944.199 839.798L944.218 839.955L939.22 865.8L938.62 868.73L938.419 869.707L934.969 887.269L926.378 884.489L923.899 883.675L920.425 882.504L914.821 880.795L914.665 880.813L908.729 878.985L908.83 878.496L916.663 852.47C918.168 847.434 918.561 842.132 917.815 836.93L897.835 698.173L894.035 671.794L939.635 668.071Z" fill="#FFCCB3"/>
<path d="M953.008 849.697C951.094 844.637 948.582 839.329 944.512 835.791C944.844 840.093 942.364 844.743 941.318 848.877C939.166 857.388 937.389 875.38 924.876 879.906C917.845 882.449 908.848 878.653 908.829 878.496C902.906 882.377 877.831 897.233 899.981 896.071C912.351 895.422 925.108 894.282 934.856 890.3C938.853 888.667 939.024 883.305 940.09 879.669C942.002 874.457 944.254 867.283 948.48 863.578L948.637 863.559C949.085 863.455 950.811 889.503 950.99 889.793C952.224 889.486 954.866 889.01 954.866 889.01C954.866 889.01 953.433 850.599 953.008 849.697Z" fill="#1C85E8"/>
<path d="M912.054 476.878L875.865 629.698L875.799 640.547L905.226 821.501L952.08 816.429L938.488 643.608L975.765 553.437L968.229 479.491L912.054 476.878Z" fill="#1F2D49"/>
<path d="M906.988 666.816C924.464 666.816 938.632 652.649 938.632 635.172C938.632 617.696 924.464 603.528 906.988 603.528C889.511 603.528 875.344 617.696 875.344 635.172C875.344 652.649 889.511 666.816 906.988 666.816Z" fill="#1F2D49"/>
<path d="M950.365 614.879L941.44 539.374L938.488 643.608L950.365 614.879Z" fill="#0D1B33"/>
<path d="M1009.74 476.401C1009.74 476.401 1026.61 504.747 1026.83 528.485C1027.17 564.113 1014.32 627.996 1014.32 627.996L1126.51 741.393L1099.8 781.44C1099.8 781.44 1004.07 702.009 963.565 664.28L954.492 645.911L941.44 539.374L961.39 476.401H1009.74Z" fill="#1F2D49"/>
<path d="M912.054 476.878L1010.32 477.888L1019.87 497.65L910.394 483.891L912.054 476.878Z" fill="#0D1B33"/>
<path d="M985.854 673.463C1003.33 673.463 1017.5 659.296 1017.5 641.819C1017.5 624.343 1003.33 610.175 985.854 610.175C968.377 610.175 954.21 624.343 954.21 641.819C954.21 659.296 968.377 673.463 985.854 673.463Z" fill="#1F2D49"/>
<path d="M900.583 266.878C900.583 266.878 901.902 281.567 898.026 295.687C894.15 309.807 864.803 339.707 890.828 364.071C916.853 388.434 948.691 323.096 948.691 323.096L938.724 292.918L904.258 257.06L900.583 266.878Z" fill="#1F2D49"/>
<path d="M979.984 270.307C979.984 270.307 987.794 280.229 1005.59 288.339C1023.05 296.298 1041.85 309.38 1037.98 337.896C1034.1 366.412 982.482 344.264 967.317 327.929C952.152 311.595 954.239 282.431 954.239 282.431L979.984 270.307Z" fill="#1F2D49"/>
<path d="M940.062 323.74C940.062 323.74 920.252 331.578 917.228 333.997C914.204 336.417 911.332 356.164 906.19 365.539C901.049 374.915 893.527 392.22 904.513 408.116C915.499 424.011 914.331 436.633 914.331 436.633L911.993 476.507L1006.67 478.252C1007.51 478.279 1008.34 478.127 1009.11 477.809C1009.88 477.491 1010.57 477.012 1011.15 476.405C1011.72 475.799 1012.15 475.077 1012.43 474.289C1012.7 473.501 1012.8 472.663 1012.73 471.833C1011.68 460.207 1006.87 443.881 1006.49 425.369C1005.98 400.281 1005.6 316.453 1005.6 316.453L964.352 315.158C956.044 316.591 940.062 323.74 940.062 323.74Z" fill="#FEBB94"/>
<path d="M989.364 350.72C989.364 350.72 975.566 363.301 974.754 372.635C973.943 381.969 972.066 407.994 954.333 410.59C932.598 413.772 926.909 416.87 936.985 419.305C947.06 421.74 969.928 417.795 969.928 428.233C969.928 435.662 978.812 441.219 983.277 437.161C987.741 433.103 1023.3 371.417 989.364 350.72Z" fill="#FF967C"/>
<path d="M822.953 361.265L815.473 351.69C813.907 349.449 811.825 347.617 809.402 346.35C805.721 344.507 800.078 341.069 798.117 337.633C794.867 332.171 782.059 317.418 793.169 305.951C797.282 301.719 796.254 302.72 804.475 302.847C812.696 302.973 813.958 311.504 818.066 317.088C818.066 317.088 818.989 310.647 823.53 307.704C828.072 304.761 825.058 322.736 828.552 329.548C832.045 336.36 829.222 338.935 837.499 350.903L822.953 361.265Z" fill="#FFCCB3"/>
<path d="M803.224 303.83L809.905 318.987L803.224 303.83Z" fill="#E56441"/>
<path d="M803.224 303.83L809.905 318.987" stroke="#E56441" stroke-width="0.94666" stroke-linecap="round"/>
<path d="M794.511 306.525L803.768 322.665L794.511 306.525Z" fill="#E56441"/>
<path d="M794.511 306.525L803.768 322.665" stroke="#E56441" stroke-width="0.94666" stroke-linecap="round"/>
<path d="M789.045 317.137L796.342 326.772L789.045 317.137Z" fill="#E56441"/>
<path d="M789.045 317.137L796.342 326.772" stroke="#E56441" stroke-width="0.94666" stroke-linecap="round"/>
<path d="M816.347 320.523C816.347 320.523 813.52 328.621 814.009 335.002L816.347 320.523Z" fill="#E56441"/>
<path d="M816.347 320.523C816.347 320.523 813.52 328.621 814.009 335.002" stroke="#E56441" stroke-width="0.94666" stroke-linecap="round"/>
<path d="M922.041 331.389C914.361 334.051 903.656 339.45 900.758 345.474L875.161 403.786L832.532 339.012L816.389 356.015L856.2 438.356C863.475 456.463 881.955 463.266 895.341 443.751L916.729 410.158L922.041 331.389Z" fill="#FEBB94"/>
<path d="M911.125 381.586C911.125 381.586 908.817 377.605 908.817 398.386L895.342 443.751L916.729 410.158C933.887 387.09 920.332 380.929 911.125 381.586Z" fill="#FF967C"/>
<path d="M958.053 354.073L887.345 382.237C885.148 383.112 884.077 385.603 884.952 387.799L920.342 476.647C921.217 478.844 923.707 479.916 925.904 479.041L996.612 450.876C998.809 450.001 999.88 447.511 999.005 445.314L963.615 356.466C962.74 354.269 960.25 353.198 958.053 354.073Z" fill="#1C85E8"/>
<path d="M898.134 390.594L927.291 378.98" stroke="white" stroke-width="4" stroke-miterlimit="10" stroke-linecap="round"/>
<path d="M902.537 401.033L915.827 395.739" stroke="white" stroke-width="4" stroke-miterlimit="10" stroke-linecap="round"/>
<path d="M937.555 302.853L938.668 334.022C938.668 334.022 937.144 340.847 944.149 340.09C951.153 339.333 960.584 333.817 965.885 327.759C971.186 321.701 970.824 321.215 968.552 317.239C966.28 313.264 955.614 282.963 955.614 282.963L937.555 302.853Z" fill="#FFCCB3"/>
<path d="M937.714 305.467L950.63 297.242C950.63 297.242 944.907 322.359 938.668 334.022L937.714 305.467Z" fill="#FCBA9F"/>
<path d="M902.889 256.209C902.889 256.209 902.683 287.228 916.066 302.839C924.794 313.019 933.975 311.669 949.29 294.909C963.332 279.542 965.301 271.533 965.301 271.533L955.605 241.101C955.605 241.101 904.465 227.979 902.889 256.209Z" fill="#FFCCB3"/>
<path d="M916.206 249.013C916.206 249.013 921.812 262.626 932.223 266.43C942.633 270.234 945.357 277.308 945.357 277.308C945.357 277.308 947.354 265.669 955.536 266.092C963.718 266.515 962.055 280.96 956.977 285.756C956.977 285.756 963.086 297.087 968.266 305.467L990.953 282.951C990.953 282.951 979.264 269.438 976.694 258.565C974.124 247.692 965.806 218.584 934.095 220.512C896.863 222.775 899.001 253.03 900.583 269.834C900.583 269.834 912.259 265.357 916.206 249.013Z" fill="#1F2D49"/>
<path d="M920.237 293.247L929.287 288.807C929.295 288.858 929.303 288.913 929.31 288.97C929.372 289.445 929.4 290.098 929.27 290.815C929.016 292.218 928.152 293.921 925.58 295.027C923.929 295.562 922.521 295.034 921.488 294.332C920.97 293.979 920.557 293.589 920.274 293.286C920.261 293.273 920.249 293.26 920.237 293.247Z" fill="#E56441" stroke="#E56441"/>
<path d="M910.377 280.65C911.521 280.367 912.111 278.772 911.695 277.086C911.279 275.4 910.014 274.262 908.87 274.545C907.726 274.827 907.136 276.423 907.552 278.109C907.969 279.794 909.233 280.932 910.377 280.65Z" fill="#080B09"/>
<path d="M927.337 276.719C928.481 276.437 929.071 274.841 928.654 273.155C928.238 271.47 926.974 270.332 925.83 270.614C924.686 270.897 924.096 272.492 924.512 274.178C924.928 275.864 926.193 277.002 927.337 276.719Z" fill="#080B09"/>
<path d="M903.797 271.56L912.428 269.579C912.572 269.533 912.694 269.436 912.773 269.307C912.851 269.177 912.879 269.024 912.853 268.875C912.757 268.622 912.611 268.39 912.423 268.194C912.235 267.999 912.009 267.843 911.76 267.737C911.51 267.631 911.241 267.577 910.97 267.577C910.698 267.578 910.43 267.634 910.181 267.741L903.413 270.608C902.849 270.747 903.093 271.734 903.797 271.56Z" fill="#080B09"/>
<path d="M932.777 263.834L921.536 267.357C921.461 267.006 921.46 266.643 921.534 266.292C921.608 265.941 921.754 265.609 921.964 265.317C922.174 265.026 922.442 264.782 922.752 264.601C923.062 264.42 923.406 264.306 923.763 264.266L932.744 263.095C933.026 263.026 933.2 263.73 932.777 263.834Z" fill="#080B09"/>
<path d="M916.43 275.013L915.211 284.114L918.426 285.666" fill="#E56441"/>
<path d="M916.43 275.013L915.211 284.114L918.426 285.666" stroke="#E56441" stroke-width="0.94666" stroke-linecap="round"/>
<path d="M924.987 434.588L897.109 442.587L893.701 459.766L900.043 478.779C900.043 478.779 904.503 475.779 903.573 468.781C902.643 461.782 926.201 461.982 930.518 453.184" fill="#FFCCB3"/>
<path d="M988.669 339.902C988.669 339.902 988.486 316.288 1007.4 316.285C1020.09 316.283 1026.16 322.232 1027.78 340.796C1028.91 353.775 1029.73 424.988 1029.73 424.988C1029.73 424.988 1032.92 457.489 1005.35 458.096L925.746 455.712L923.949 433.471L993.342 426.554L988.669 339.902Z" fill="#FEBB94"/>
<path d="M931.105 336.949C931.105 336.949 938.283 334.906 937.119 327.855C935.985 320.916 935.941 314.892 938.218 315.731C938.218 315.731 940.227 319.176 952.72 315.347C965.131 311.661 964.353 307.403 964.353 307.403C964.353 307.403 966.109 305.847 967.421 309.841C968.731 313.835 972.056 324.895 979.085 324.099L980.985 344.714L943.602 357.019C943.52 357.162 926.242 340.425 931.105 336.949Z" fill="#FEBB94"/>
<path d="M626.198 748.332H649.718" stroke="white" stroke-width="5" stroke-miterlimit="10" stroke-linecap="round"/>
<path opacity="0.5" d="M630.986 758.539H642.747" stroke="white" stroke-width="5" stroke-miterlimit="10" stroke-linecap="round"/>
<path d="M610.531 727.953L628.578 715.368L641.291 723.834L658.211 711.58" stroke="white" stroke-width="6.50414" stroke-linecap="round" stroke-linejoin="round"/>
<path d="M645.203 706.239H663.202V724.049" stroke="white" stroke-width="6.50414" stroke-linecap="round" stroke-linejoin="round"/>
<path d="M858.313 153.238H788.558C787.705 153.271 786.857 153.104 786.08 152.75C785.303 152.397 784.62 151.866 784.085 151.202C783.549 150.537 783.177 149.757 782.997 148.922C782.817 148.088 782.834 147.224 783.048 146.397L793.769 91.2772C794.182 89.3936 795.208 87.7002 796.686 86.4623C798.165 85.2245 800.012 84.5121 801.939 84.4368H871.694C872.547 84.4039 873.395 84.5709 874.172 84.9244C874.949 85.2779 875.632 85.8081 876.167 86.4727C876.703 87.1373 877.075 87.9179 877.255 88.7521C877.435 89.5863 877.418 90.451 877.204 91.2772L866.483 146.397C866.07 148.281 865.044 149.974 863.566 151.212C862.087 152.45 860.24 153.162 858.313 153.238Z" fill="#1C85E8"/>
<path d="M810.466 99.3441L856.913 99.3531C857.247 99.3386 857.578 99.4014 857.883 99.5366C858.188 99.6719 858.457 99.8758 858.67 100.132C858.883 100.389 859.033 100.692 859.11 101.016C859.186 101.341 859.186 101.678 859.11 102.003L858.474 105.48C858.368 105.985 858.146 106.459 857.826 106.864C857.506 107.27 857.096 107.596 856.629 107.816L831.183 120.063C830.789 120.271 830.35 120.379 829.905 120.376C829.46 120.374 829.022 120.261 828.631 120.048L807.697 107.43C807.315 107.191 807.017 106.839 806.843 106.423C806.67 106.006 806.631 105.547 806.731 105.107L807.301 101.993C807.456 101.261 807.852 100.602 808.426 100.122C809 99.6415 809.718 99.3677 810.466 99.3441Z" fill="white"/>
<path d="M808.161 112.005L828.187 124.567C828.459 124.72 828.766 124.801 829.078 124.801C829.39 124.801 829.697 124.72 829.969 124.567L854.588 112.014C855.912 111.339 857.246 112.195 856.997 113.56L853.337 133.571C853.058 134.886 852.346 136.07 851.315 136.933C850.284 137.796 848.993 138.288 847.649 138.33L805.475 138.322C804.876 138.348 804.28 138.235 803.732 137.992C803.185 137.749 802.701 137.383 802.319 136.922C801.936 136.46 801.666 135.917 801.529 135.334C801.392 134.751 801.391 134.144 801.528 133.561L805.187 113.55C805.244 113.232 805.374 112.931 805.566 112.67C805.758 112.409 806.007 112.196 806.294 112.047C806.582 111.898 806.899 111.816 807.223 111.809C807.547 111.801 807.868 111.868 808.161 112.005Z" fill="white"/>
<path d="M874.105 98.8736C882.078 98.8736 888.541 92.41 888.541 84.4368C888.541 76.4636 882.078 70 874.105 70C866.131 70 859.668 76.4636 859.668 84.4368C859.668 92.41 866.131 98.8736 874.105 98.8736Z" fill="#FF967C"/>
<path d="M875.115 403.765L887.085 421.55L880.702 391.165L875.115 403.765Z" fill="#FF967C"/>
</g>
<defs>
<linearGradient id="paint0_linear" x1="669.415" y1="242.927" x2="687.678" y2="552.972" gradientUnits="userSpaceOnUse">
<stop stop-color="white"/>
<stop offset="1" stop-color="#94B9FF"/>
</linearGradient>
<linearGradient id="paint1_linear" x1="622.669" y1="334.5" x2="699.1" y2="870.254" gradientUnits="userSpaceOnUse">
<stop stop-color="white"/>
<stop offset="1" stop-color="#94B9FF"/>
</linearGradient>
<linearGradient id="paint2_linear" x1="820.5" y1="334.5" x2="896.93" y2="870.254" gradientUnits="userSpaceOnUse">
<stop stop-color="white"/>
<stop offset="1" stop-color="#94B9FF"/>
</linearGradient>
<linearGradient id="paint3_linear" x1="453.825" y1="668.89" x2="472.461" y2="898.307" gradientUnits="userSpaceOnUse">
<stop stop-color="white"/>
<stop offset="1" stop-color="#94B9FF"/>
</linearGradient>
<clipPath id="clip0">
<rect width="935.805" height="884.423" fill="white" transform="translate(252 70)"/>
</clipPath>
</defs>
</svg>
