<svg width="346" height="195" viewBox="0 0 346 195" fill="none" xmlns="http://www.w3.org/2000/svg">
<path d="M0.5 57H345.5" stroke="#AFB9C7" stroke-opacity="0.2" stroke-linecap="round"/>
<path d="M0.5 102H345.5" stroke="#AFB9C7" stroke-opacity="0.2" stroke-linecap="round"/>
<path d="M0.5 147H345.5" stroke="#AFB9C7" stroke-opacity="0.2" stroke-linecap="round"/>
<g filter="url(#filter0_d_242_5)">
<rect x="133.5" y="27" width="77" height="133" rx="15" fill="#F9F9F9"/>
<rect x="134" y="27.5" width="76" height="132" rx="14.5" stroke="#AFB9C7" stroke-opacity="0.2"/>
</g>
<path d="M238.746 148.603L222.635 132.496C227.304 126.889 229.633 119.699 229.136 112.42C228.639 105.141 225.355 98.3332 219.967 93.4137C214.578 88.4943 207.501 85.8416 200.207 86.0073C192.912 86.1731 185.963 89.1446 180.804 94.3038C175.645 99.4629 172.673 106.412 172.507 113.707C172.342 121.001 174.994 128.078 179.914 133.467C184.833 138.855 191.641 142.139 198.92 142.636C206.199 143.133 213.389 140.804 218.996 136.135L235.103 152.246C235.342 152.485 235.626 152.675 235.939 152.804C236.251 152.933 236.586 153 236.924 153C237.263 153 237.598 152.933 237.91 152.804C238.223 152.675 238.506 152.485 238.746 152.246C238.985 152.006 239.175 151.723 239.304 151.41C239.433 151.098 239.5 150.763 239.5 150.424C239.5 150.086 239.433 149.751 239.304 149.439C239.175 149.126 238.985 148.842 238.746 148.603ZM177.719 114.387C177.719 109.805 179.078 105.325 181.624 101.516C184.169 97.7057 187.788 94.7364 192.021 92.9829C196.254 91.2294 200.912 90.7706 205.406 91.6645C209.9 92.5584 214.028 94.7649 217.268 98.0049C220.508 101.245 222.715 105.373 223.609 109.867C224.503 114.361 224.044 119.019 222.29 123.252C220.537 127.486 217.567 131.104 213.758 133.649C209.948 136.195 205.469 137.554 200.887 137.554C194.744 137.547 188.856 135.104 184.512 130.761C180.169 126.418 177.726 120.529 177.719 114.387Z" fill="#AFB9C7" fill-opacity="0.2"/>
<path d="M21 79.75C21 81.6784 20.4282 83.5634 19.3568 85.1668C18.2855 86.7702 16.7627 88.0199 14.9812 88.7578C13.1996 89.4958 11.2392 89.6889 9.34787 89.3127C7.45656 88.9365 5.71927 88.0079 4.35571 86.6443C2.99215 85.2807 2.06355 83.5434 1.68735 81.6521C1.31114 79.7608 1.50422 77.8004 2.24218 76.0188C2.98013 74.2373 4.22982 72.7145 5.83319 71.6432C7.43657 70.5718 9.32164 70 11.25 70C13.835 70.0027 16.3134 71.0308 18.1413 72.8587C19.9692 74.6866 20.9973 77.165 21 79.75ZM19.5 79.75C19.5 78.1183 19.0161 76.5233 18.1096 75.1665C17.2031 73.8098 15.9146 72.7524 14.4071 72.128C12.8997 71.5036 11.2409 71.3402 9.64051 71.6585C8.04017 71.9768 6.57016 72.7626 5.41637 73.9164C4.26259 75.0702 3.47685 76.5402 3.15853 78.1405C2.8402 79.7408 3.00358 81.3996 3.628 82.9071C4.25242 84.4146 5.30984 85.7031 6.66655 86.6096C8.02326 87.5161 9.61831 88 11.25 88C13.4373 87.9975 15.5343 87.1275 17.0809 85.5809C18.6275 84.0343 19.4975 81.9373 19.5 79.75Z" fill="#AFB9C7" fill-opacity="0.2"/>
<path d="M21 123.75C21 125.678 20.4282 127.563 19.3568 129.167C18.2855 130.77 16.7627 132.02 14.9812 132.758C13.1996 133.496 11.2392 133.689 9.34787 133.313C7.45656 132.936 5.71927 132.008 4.35571 130.644C2.99215 129.281 2.06355 127.543 1.68735 125.652C1.31114 123.761 1.50422 121.8 2.24218 120.019C2.98013 118.237 4.22982 116.715 5.83319 115.643C7.43657 114.572 9.32164 114 11.25 114C13.835 114.003 16.3134 115.031 18.1413 116.859C19.9692 118.687 20.9973 121.165 21 123.75ZM19.5 123.75C19.5 122.118 19.0161 120.523 18.1096 119.167C17.2031 117.81 15.9146 116.752 14.4071 116.128C12.8997 115.504 11.2409 115.34 9.64051 115.659C8.04017 115.977 6.57016 116.763 5.41637 117.916C4.26259 119.07 3.47685 120.54 3.15853 122.141C2.8402 123.741 3.00358 125.4 3.628 126.907C4.25242 128.415 5.30984 129.703 6.66655 130.61C8.02326 131.516 9.61831 132 11.25 132C13.4373 131.998 15.5343 131.128 17.0809 129.581C18.6275 128.034 19.4975 125.937 19.5 123.75Z" fill="#AFB9C7" fill-opacity="0.2"/>
<g filter="url(#filter1_d_242_5)">
<rect x="97.5" y="49" width="88" height="29" rx="5" fill="white"/>
<rect x="98" y="49.5" width="87" height="28" rx="4.5" stroke="#AFB9C7" stroke-opacity="0.2"/>
</g>
<path d="M112 54C110.121 54 108.284 54.5572 106.722 55.601C105.16 56.6449 103.942 58.1286 103.223 59.8645C102.504 61.6004 102.316 63.5105 102.683 65.3534C103.049 67.1962 103.954 68.8889 105.282 70.2175C106.611 71.5461 108.304 72.4509 110.147 72.8175C111.989 73.184 113.9 72.9959 115.635 72.2769C117.371 71.5578 118.855 70.3402 119.899 68.7779C120.943 67.2156 121.5 65.3789 121.5 63.5C121.497 60.9813 120.496 58.5664 118.715 56.7854C116.934 55.0044 114.519 54.0027 112 54ZM116.171 61.8247L111.055 66.9401C110.988 67.008 110.907 67.0619 110.818 67.0987C110.73 67.1355 110.634 67.1544 110.538 67.1544C110.442 67.1544 110.347 67.1355 110.259 67.0987C110.17 67.0619 110.089 67.008 110.021 66.9401L107.829 64.7478C107.692 64.6107 107.615 64.4247 107.615 64.2308C107.615 64.0368 107.692 63.8509 107.829 63.7137C107.966 63.5766 108.152 63.4996 108.346 63.4996C108.54 63.4996 108.726 63.5766 108.863 63.7137L110.538 65.3899L115.137 60.7907C115.205 60.7228 115.285 60.6689 115.374 60.6322C115.463 60.5954 115.558 60.5765 115.654 60.5765C115.75 60.5765 115.845 60.5954 115.934 60.6322C116.022 60.6689 116.103 60.7228 116.171 60.7907C116.239 60.8586 116.293 60.9392 116.329 61.0279C116.366 61.1166 116.385 61.2117 116.385 61.3077C116.385 61.4037 116.366 61.4988 116.329 61.5875C116.293 61.6762 116.239 61.7568 116.171 61.8247Z" fill="#5886F9"/>
<path d="M128.5 60H162.5" stroke="#AFB9C7" stroke-opacity="0.2" stroke-width="4" stroke-linecap="round"/>
<path d="M128.5 67H146.5" stroke="#AFB9C7" stroke-opacity="0.2" stroke-width="4" stroke-linecap="round"/>
<g filter="url(#filter2_d_242_5)">
<rect x="97.5" y="85" width="88" height="29" rx="5" fill="white"/>
<rect x="98" y="85.5" width="87" height="28" rx="4.5" stroke="#AFB9C7" stroke-opacity="0.2"/>
</g>
<path d="M112 90C110.121 90 108.284 90.5572 106.722 91.601C105.16 92.6449 103.942 94.1286 103.223 95.8645C102.504 97.6004 102.316 99.5105 102.683 101.353C103.049 103.196 103.954 104.889 105.282 106.218C106.611 107.546 108.304 108.451 110.147 108.817C111.989 109.184 113.9 108.996 115.635 108.277C117.371 107.558 118.855 106.34 119.899 104.778C120.943 103.216 121.5 101.379 121.5 99.5C121.497 96.9813 120.496 94.5664 118.715 92.7854C116.934 91.0044 114.519 90.0027 112 90ZM111.269 95.1154C111.269 94.9216 111.346 94.7357 111.483 94.5987C111.62 94.4616 111.806 94.3846 112 94.3846C112.194 94.3846 112.38 94.4616 112.517 94.5987C112.654 94.7357 112.731 94.9216 112.731 95.1154V100.231C112.731 100.425 112.654 100.61 112.517 100.747C112.38 100.885 112.194 100.962 112 100.962C111.806 100.962 111.62 100.885 111.483 100.747C111.346 100.61 111.269 100.425 111.269 100.231V95.1154ZM112 104.615C111.783 104.615 111.571 104.551 111.391 104.431C111.211 104.31 111.07 104.139 110.987 103.939C110.904 103.738 110.883 103.518 110.925 103.305C110.967 103.093 111.072 102.897 111.225 102.744C111.378 102.591 111.574 102.486 111.786 102.444C111.999 102.402 112.219 102.424 112.419 102.507C112.62 102.589 112.791 102.73 112.911 102.91C113.032 103.09 113.096 103.302 113.096 103.519C113.096 103.81 112.981 104.089 112.775 104.294C112.57 104.5 112.291 104.615 112 104.615Z" fill="#AFB9C7" fill-opacity="0.2"/>
<path d="M128.5 95H162.5" stroke="#AFB9C7" stroke-opacity="0.2" stroke-width="4" stroke-linecap="round"/>
<path d="M128.5 102H146.5" stroke="#AFB9C7" stroke-opacity="0.2" stroke-width="4" stroke-linecap="round"/>
<path d="M11.25 25C9.32163 25 7.43657 25.5718 5.83319 26.6432C4.22981 27.7145 2.98013 29.2373 2.24218 31.0188C1.50422 32.8004 1.31114 34.7608 1.68735 36.6521C2.06355 38.5434 2.99215 40.2807 4.35571 41.6443C5.71927 43.0078 7.45656 43.9364 9.34787 44.3127C11.2392 44.6889 13.1996 44.4958 14.9812 43.7578C16.7627 43.0199 18.2855 41.7702 19.3568 40.1668C20.4282 38.5634 21 36.6784 21 34.75C20.9973 32.165 19.9692 29.6866 18.1413 27.8587C16.3134 26.0308 13.835 25.0027 11.25 25ZM15.5306 33.0306L10.2806 38.2806C10.211 38.3504 10.1283 38.4057 10.0372 38.4434C9.94616 38.4812 9.84856 38.5006 9.75 38.5006C9.65144 38.5006 9.55385 38.4812 9.4628 38.4434C9.37175 38.4057 9.28903 38.3504 9.21938 38.2806L6.96938 36.0306C6.82865 35.8899 6.74959 35.699 6.74959 35.5C6.74959 35.301 6.82865 35.1101 6.96938 34.9694C7.11011 34.8286 7.30098 34.7496 7.5 34.7496C7.69903 34.7496 7.8899 34.8286 8.03063 34.9694L9.75 36.6897L14.4694 31.9694C14.5391 31.8997 14.6218 31.8444 14.7128 31.8067C14.8039 31.769 14.9015 31.7496 15 31.7496C15.0985 31.7496 15.1961 31.769 15.2872 31.8067C15.3782 31.8444 15.4609 31.8997 15.5306 31.9694C15.6003 32.0391 15.6556 32.1218 15.6933 32.2128C15.731 32.3039 15.7504 32.4015 15.7504 32.5C15.7504 32.5985 15.731 32.6961 15.6933 32.7872C15.6556 32.8782 15.6003 32.9609 15.5306 33.0306Z" fill="#AFB9C7" fill-opacity="0.2"/>
<defs>
<filter id="filter0_d_242_5" x="102.5" y="0" width="139" height="195" filterUnits="userSpaceOnUse" color-interpolation-filters="sRGB">
<feFlood flood-opacity="0" result="BackgroundImageFix"/>
<feColorMatrix in="SourceAlpha" type="matrix" values="0 0 0 0 0 0 0 0 0 0 0 0 0 0 0 0 0 0 127 0" result="hardAlpha"/>
<feMorphology radius="1" operator="dilate" in="SourceAlpha" result="effect1_dropShadow_242_5"/>
<feOffset dy="4"/>
<feGaussianBlur stdDeviation="15"/>
<feComposite in2="hardAlpha" operator="out"/>
<feColorMatrix type="matrix" values="0 0 0 0 0 0 0 0 0 0 0 0 0 0 0 0 0 0 0.1 0"/>
<feBlend mode="normal" in2="BackgroundImageFix" result="effect1_dropShadow_242_5"/>
<feBlend mode="normal" in="SourceGraphic" in2="effect1_dropShadow_242_5" result="shape"/>
</filter>
<filter id="filter1_d_242_5" x="66.5" y="22" width="150" height="91" filterUnits="userSpaceOnUse" color-interpolation-filters="sRGB">
<feFlood flood-opacity="0" result="BackgroundImageFix"/>
<feColorMatrix in="SourceAlpha" type="matrix" values="0 0 0 0 0 0 0 0 0 0 0 0 0 0 0 0 0 0 127 0" result="hardAlpha"/>
<feMorphology radius="1" operator="dilate" in="SourceAlpha" result="effect1_dropShadow_242_5"/>
<feOffset dy="4"/>
<feGaussianBlur stdDeviation="15"/>
<feComposite in2="hardAlpha" operator="out"/>
<feColorMatrix type="matrix" values="0 0 0 0 0 0 0 0 0 0 0 0 0 0 0 0 0 0 0.1 0"/>
<feBlend mode="normal" in2="BackgroundImageFix" result="effect1_dropShadow_242_5"/>
<feBlend mode="normal" in="SourceGraphic" in2="effect1_dropShadow_242_5" result="shape"/>
</filter>
<filter id="filter2_d_242_5" x="66.5" y="58" width="150" height="91" filterUnits="userSpaceOnUse" color-interpolation-filters="sRGB">
<feFlood flood-opacity="0" result="BackgroundImageFix"/>
<feColorMatrix in="SourceAlpha" type="matrix" values="0 0 0 0 0 0 0 0 0 0 0 0 0 0 0 0 0 0 127 0" result="hardAlpha"/>
<feMorphology radius="1" operator="dilate" in="SourceAlpha" result="effect1_dropShadow_242_5"/>
<feOffset dy="4"/>
<feGaussianBlur stdDeviation="15"/>
<feComposite in2="hardAlpha" operator="out"/>
<feColorMatrix type="matrix" values="0 0 0 0 0 0 0 0 0 0 0 0 0 0 0 0 0 0 0.1 0"/>
<feBlend mode="normal" in2="BackgroundImageFix" result="effect1_dropShadow_242_5"/>
<feBlend mode="normal" in="SourceGraphic" in2="effect1_dropShadow_242_5" result="shape"/>
</filter>
</defs>
</svg>
