<svg width="343" height="209" viewBox="0 0 343 209" fill="none" xmlns="http://www.w3.org/2000/svg">
<path d="M104 50C104 38.9543 112.954 30 124 30H221C232.046 30 241 38.9543 241 50V190H104V50Z" fill="white"/>
<path d="M102 190V49C102 36.8497 111.85 27 124 27H219C231.15 27 241 36.8497 241 49V190" stroke="#D3D9E3" stroke-width="6"/>
<path d="M101.804 168.792L99.0001 168.792C97.3432 168.792 96.0001 167.449 96.0001 165.792L96.0001 147.745C96.0001 146.089 97.3432 144.745 99.0001 144.745L101.804 144.745L101.804 168.792Z" fill="#D3D9E3"/>
<path d="M101.804 141.428L99.0001 141.428C97.3432 141.428 96.0001 140.085 96.0001 138.428L96.0001 120.382C96.0001 118.725 97.3432 117.382 99.0001 117.382L101.804 117.382L101.804 141.428Z" fill="#D3D9E3"/>
<path d="M101.804 106.603L99.0001 106.603C97.3432 106.603 96.0001 105.259 96.0001 103.603L96.0001 95.5063C96.0001 93.8494 97.3432 92.5063 99.0001 92.5063L101.804 92.5063L101.804 106.603Z" fill="#D3D9E3"/>
<path d="M241.109 128.161H243.913C245.57 128.161 246.913 129.505 246.913 131.161V165.792C246.913 167.449 245.57 168.792 243.913 168.792H241.109V128.161Z" fill="#D3D9E3"/>
<rect x="112.457" y="49" width="42" height="42" rx="14" fill="#AFB9C7" fill-opacity="0.15"/>
<path d="M112.457 117C112.457 111.477 116.934 107 122.457 107H183.457C188.979 107 193.457 111.477 193.457 117V191H112.457V117Z" fill="#AFB9C7" fill-opacity="0.15"/>
<path d="M198.457 117C198.457 111.477 202.934 107 208.457 107H231.457C236.979 107 241.457 111.477 241.457 117V191H198.457V117Z" fill="#AFB9C7" fill-opacity="0.15"/>
<rect x="159.457" y="55" width="68" height="6" rx="3" fill="#AFB9C7" fill-opacity="0.15"/>
<rect x="159.457" y="64" width="32" height="5" rx="2.5" fill="#AFB9C7" fill-opacity="0.15"/>
<g filter="url(#filter0_d_285_374)">
<rect x="82" y="96" width="59" height="35" rx="8" fill="white"/>
</g>
<path d="M102.672 112.492L100.059 114.649L100.855 117.876C100.899 118.051 100.888 118.235 100.823 118.404C100.758 118.573 100.642 118.72 100.489 118.826C100.337 118.932 100.156 118.992 99.9675 118.999C99.7794 119.006 99.5933 118.96 99.4326 118.866L96.5001 117.139L93.5659 118.866C93.4053 118.96 93.2194 119.006 93.0316 118.998C92.8438 118.991 92.6626 118.93 92.5106 118.824C92.3587 118.718 92.2429 118.572 92.1778 118.403C92.1128 118.234 92.1013 118.051 92.1449 117.876L92.9439 114.649L90.3308 112.492C90.1887 112.374 90.086 112.219 90.0353 112.046C89.9847 111.873 89.9885 111.69 90.0463 111.519C90.104 111.348 90.2131 111.197 90.36 111.085C90.5068 110.973 90.6849 110.905 90.872 110.889L94.2981 110.624L95.6198 107.564C95.6913 107.397 95.8131 107.254 95.9696 107.154C96.1261 107.054 96.3102 107 96.4987 107C96.6871 107 96.8713 107.054 97.0278 107.154C97.1842 107.254 97.306 107.397 97.3775 107.564L98.6986 110.624L102.125 110.889C102.312 110.904 102.491 110.972 102.638 111.084C102.786 111.196 102.895 111.347 102.953 111.518C103.011 111.689 103.015 111.873 102.965 112.046C102.914 112.22 102.811 112.375 102.669 112.492L102.672 112.492Z" fill="#6A7C92"/>
<path d="M117.805 114.852V116.477H109.609L109.523 115.227L114.344 107.625H115.992L114.211 110.648L111.625 114.852H117.805ZM116.453 107.625V119H114.383V107.625H116.453ZM119.242 117.992C119.242 117.68 119.349 117.417 119.562 117.203C119.776 116.99 120.065 116.883 120.43 116.883C120.794 116.883 121.083 116.99 121.297 117.203C121.51 117.417 121.617 117.68 121.617 117.992C121.617 118.299 121.51 118.56 121.297 118.773C121.083 118.982 120.794 119.086 120.43 119.086C120.065 119.086 119.776 118.982 119.562 118.773C119.349 118.56 119.242 118.299 119.242 117.992ZM125.148 117.398H125.297C125.969 117.398 126.536 117.312 127 117.141C127.469 116.969 127.846 116.727 128.133 116.414C128.424 116.096 128.635 115.719 128.766 115.281C128.901 114.839 128.969 114.349 128.969 113.812V111.75C128.969 111.312 128.924 110.93 128.836 110.602C128.747 110.268 128.622 109.99 128.461 109.766C128.305 109.542 128.12 109.375 127.906 109.266C127.693 109.151 127.464 109.094 127.219 109.094C126.948 109.094 126.708 109.156 126.5 109.281C126.292 109.406 126.115 109.578 125.969 109.797C125.828 110.01 125.719 110.258 125.641 110.539C125.568 110.82 125.531 111.117 125.531 111.43C125.531 111.732 125.565 112.021 125.633 112.297C125.706 112.573 125.812 112.818 125.953 113.031C126.099 113.245 126.281 113.414 126.5 113.539C126.719 113.659 126.974 113.719 127.266 113.719C127.542 113.719 127.792 113.667 128.016 113.562C128.245 113.453 128.443 113.31 128.609 113.133C128.776 112.951 128.904 112.75 128.992 112.531C129.086 112.307 129.138 112.081 129.148 111.852L129.875 112.164C129.875 112.544 129.794 112.919 129.633 113.289C129.477 113.659 129.255 113.995 128.969 114.297C128.688 114.594 128.359 114.833 127.984 115.016C127.609 115.193 127.206 115.281 126.773 115.281C126.237 115.281 125.763 115.182 125.352 114.984C124.94 114.786 124.594 114.513 124.312 114.164C124.036 113.81 123.828 113.404 123.688 112.945C123.547 112.482 123.477 111.987 123.477 111.461C123.477 110.914 123.562 110.401 123.734 109.922C123.906 109.438 124.154 109.013 124.477 108.648C124.805 108.279 125.201 107.99 125.664 107.781C126.128 107.568 126.648 107.461 127.227 107.461C127.826 107.461 128.359 107.578 128.828 107.812C129.297 108.047 129.695 108.372 130.023 108.789C130.352 109.201 130.602 109.688 130.773 110.25C130.951 110.812 131.039 111.427 131.039 112.094V112.82C131.039 113.523 130.969 114.19 130.828 114.82C130.688 115.451 130.471 116.026 130.18 116.547C129.888 117.068 129.516 117.518 129.062 117.898C128.615 118.279 128.078 118.573 127.453 118.781C126.833 118.984 126.125 119.086 125.328 119.086H125.148V117.398Z" fill="#6A7C92"/>
<g filter="url(#filter1_d_285_374)">
<rect x="181" y="96" width="107" height="78" rx="8" fill="white"/>
</g>
<path d="M192.356 154.765L191.235 155.782V157.178V160.9H278.696V116.239L277.574 117.269C276.453 120.625 274.21 127.338 271.968 130.317C269.725 133.297 267.483 132.544 265.24 131.561C262.998 130.579 260.755 129.366 258.512 126.567C256.27 123.768 254.027 119.381 251.785 119.95C249.542 120.52 247.299 126.046 245.057 130.933C242.814 135.819 240.572 140.066 238.329 142.859C236.086 145.652 233.844 146.991 231.601 144.919C229.359 142.847 227.116 137.365 224.874 139.433C222.631 141.501 220.388 151.12 218.146 149.983C215.903 148.846 213.661 136.953 211.418 132.729C209.175 128.504 206.933 131.948 204.69 136.052C202.448 140.155 200.205 144.917 197.963 148.316C195.72 151.714 193.477 153.748 192.356 154.765L192.356 154.765Z" fill="#E6EDFF"/>
<path d="M192.356 154.765C193.477 153.748 195.72 151.714 197.963 148.316C200.205 144.917 202.448 140.155 204.69 136.052C206.933 131.948 209.176 128.504 211.418 132.729C213.661 136.953 215.903 148.846 218.146 149.983C220.389 151.12 222.631 141.501 224.874 139.433C227.116 137.365 229.359 142.847 231.601 144.919C233.844 146.991 236.087 145.652 238.329 142.859C240.572 140.066 242.814 135.819 245.057 130.933C247.3 126.046 249.542 120.52 251.785 119.95C254.027 119.381 256.27 123.768 258.513 126.567C260.755 129.366 262.998 130.579 265.24 131.561C267.483 132.544 269.725 133.297 271.968 130.317C274.211 127.338 276.453 120.625 277.574 117.269L277.919 116.239" stroke="#5886F9" stroke-width="2" stroke-linecap="round"/>
<g filter="url(#filter2_d_285_374)">
<circle cx="49.5" cy="142.5" r="18.5" fill="white"/>
</g>
<path d="M60.75 146.136C60.75 146.434 60.6315 146.72 60.4205 146.931C60.2095 147.142 59.9234 147.261 59.625 147.261H56.6878L58.3434 150.063C58.4207 150.19 58.4719 150.332 58.4941 150.479C58.5164 150.626 58.5092 150.776 58.473 150.921C58.4368 151.065 58.3723 151.201 58.2832 151.32C58.1941 151.439 58.0823 151.54 57.9541 151.615C57.826 151.691 57.6841 151.741 57.5367 151.761C57.3892 151.782 57.2392 151.773 57.0952 151.735C56.9513 151.697 56.8163 151.631 56.6981 151.54C56.5799 151.45 56.4808 151.337 56.4066 151.208L51.0844 142.198C50.9411 141.942 50.9037 141.64 50.9803 141.356C51.0569 141.073 51.2414 140.83 51.4944 140.681C51.7473 140.532 52.0486 140.487 52.3339 140.557C52.6192 140.627 52.8659 140.805 53.0212 141.055L55.3575 145.011H59.625C59.9234 145.011 60.2095 145.129 60.4205 145.34C60.6315 145.551 60.75 145.838 60.75 146.136ZM50.3578 145.011H47.0053L53.0934 134.709C53.1707 134.582 53.2219 134.44 53.2441 134.293C53.2664 134.146 53.2592 133.996 53.223 133.851C53.1868 133.707 53.1223 133.571 53.0332 133.452C52.9441 133.333 52.8323 133.232 52.7041 133.156C52.576 133.081 52.4341 133.031 52.2867 133.011C52.1392 132.99 51.9892 132.999 51.8452 133.037C51.7013 133.075 51.5663 133.141 51.4481 133.232C51.3299 133.322 51.2308 133.435 51.1566 133.564L49.875 135.73L48.5934 133.564C48.5192 133.435 48.4201 133.322 48.3019 133.232C48.1837 133.141 48.0487 133.075 47.9048 133.037C47.7608 132.999 47.6108 132.99 47.4633 133.011C47.3159 133.031 47.174 133.081 47.0459 133.156C46.9177 133.232 46.8059 133.333 46.7168 133.452C46.6277 133.571 46.5632 133.707 46.527 133.851C46.4908 133.996 46.4836 134.146 46.5059 134.293C46.5281 134.44 46.5793 134.582 46.6566 134.709L48.5681 137.944L44.3925 145.011H40.125C39.8266 145.011 39.5405 145.129 39.3295 145.34C39.1185 145.551 39 145.838 39 146.136C39 146.434 39.1185 146.72 39.3295 146.931C39.5405 147.142 39.8266 147.261 40.125 147.261H50.3578C50.6562 147.261 50.9423 147.142 51.1533 146.931C51.3643 146.72 51.4828 146.434 51.4828 146.136C51.4828 145.838 51.3643 145.551 51.1533 145.34C50.9423 145.129 50.6562 145.011 50.3578 145.011ZM43.3903 148.918C43.1336 148.766 42.8271 148.722 42.5383 148.797C42.2494 148.871 42.0019 149.057 41.85 149.313L41.4066 150.063C41.3293 150.19 41.2781 150.332 41.2559 150.479C41.2336 150.626 41.2408 150.776 41.277 150.921C41.3132 151.065 41.3777 151.201 41.4668 151.32C41.5559 151.439 41.6677 151.54 41.7959 151.615C41.924 151.691 42.0659 151.741 42.2133 151.761C42.3608 151.782 42.5108 151.773 42.6548 151.735C42.7987 151.697 42.9337 151.631 43.0519 151.54C43.1701 151.45 43.2692 151.337 43.3434 151.208L43.7869 150.458C43.9385 150.201 43.9818 149.894 43.9075 149.606C43.8331 149.317 43.6471 149.069 43.3903 148.918Z" fill="#D3D9E3"/>
<g filter="url(#filter3_d_285_374)">
<circle cx="293.5" cy="45.5" r="18.5" fill="white"/>
</g>
<path d="M302.543 44.2529L286.813 35.2482C286.525 35.0846 286.2 34.999 285.869 35C285.538 35.001 285.213 35.0885 284.926 35.2538C284.644 35.4155 284.409 35.6494 284.246 35.9315C284.083 36.2137 283.998 36.534 284 36.8597V54.8897C283.999 55.2157 284.084 55.5362 284.247 55.8184C284.41 56.1006 284.646 56.3343 284.929 56.4957C285.216 56.6612 285.541 56.7488 285.871 56.7498C286.202 56.7507 286.528 56.6651 286.815 56.5013L302.543 47.5013C302.833 47.3412 303.075 47.1064 303.243 46.8211C303.411 46.5359 303.5 46.2107 303.5 45.8794C303.5 45.5482 303.411 45.223 303.243 44.9378C303.075 44.6525 302.833 44.4176 302.543 44.2576V44.2529ZM286.25 52.906V38.8435L293.281 45.8747L286.25 52.906ZM294.875 47.4685L296.038 48.631L290.6 51.7435L294.875 47.4685ZM290.601 40.0088L296.038 43.1213L294.875 44.281L290.601 40.0088ZM298.063 47.4685L296.469 45.8747L298.063 44.281L300.849 45.8747L298.063 47.4685Z" fill="#D3D9E3"/>
<g filter="url(#filter4_d_285_374)">
<rect x="45" y="48" width="87" height="21" rx="8" fill="white"/>
</g>
<path d="M69.24 55.952H66.56V57.544C66.672 57.3947 66.8373 57.2693 67.056 57.168C67.28 57.0667 67.5173 57.016 67.768 57.016C68.216 57.016 68.5787 57.112 68.856 57.304C69.1387 57.496 69.3387 57.7387 69.456 58.032C69.5787 58.3253 69.64 58.6347 69.64 58.96C69.64 59.3547 69.5627 59.7067 69.408 60.016C69.2587 60.32 69.032 60.56 68.728 60.736C68.4293 60.912 68.0613 61 67.624 61C67.0427 61 66.576 60.856 66.224 60.568C65.872 60.28 65.6613 59.8987 65.592 59.424H66.48C66.5387 59.6747 66.6693 59.8747 66.872 60.024C67.0747 60.168 67.328 60.24 67.632 60.24C68.0107 60.24 68.2933 60.1253 68.48 59.896C68.672 59.6667 68.768 59.3627 68.768 58.984C68.768 58.6 68.672 58.3067 68.48 58.104C68.288 57.896 68.0053 57.792 67.632 57.792C67.3707 57.792 67.1493 57.8587 66.968 57.992C66.792 58.12 66.664 58.296 66.584 58.52H65.72V55.152H69.24V55.952ZM70.5894 58.008C70.5894 57.0853 70.744 56.3653 71.0534 55.848C71.368 55.3253 71.9067 55.064 72.6694 55.064C73.432 55.064 73.968 55.3253 74.2774 55.848C74.592 56.3653 74.7494 57.0853 74.7494 58.008C74.7494 58.9413 74.592 59.672 74.2774 60.2C73.968 60.7227 73.432 60.984 72.6694 60.984C71.9067 60.984 71.368 60.7227 71.0534 60.2C70.744 59.672 70.5894 58.9413 70.5894 58.008ZM73.8534 58.008C73.8534 57.576 73.824 57.2107 73.7654 56.912C73.712 56.6133 73.6 56.3707 73.4294 56.184C73.2587 55.992 73.0054 55.896 72.6694 55.896C72.3334 55.896 72.08 55.992 71.9094 56.184C71.7387 56.3707 71.624 56.6133 71.5654 56.912C71.512 57.2107 71.4854 57.576 71.4854 58.008C71.4854 58.456 71.512 58.832 71.5654 59.136C71.6187 59.44 71.7307 59.6853 71.9014 59.872C72.0774 60.0587 72.3334 60.152 72.6694 60.152C73.0054 60.152 73.2587 60.0587 73.4294 59.872C73.6054 59.6853 73.72 59.44 73.7734 59.136C73.8267 58.832 73.8534 58.456 73.8534 58.008ZM77.5784 58.8L79.6104 61H78.3784L76.7464 59.104V61H75.8344V55.08H76.7464V58.52L78.3464 56.592H79.6104L77.5784 58.8ZM82.0382 58.776C82.0382 58.3333 82.1289 57.9413 82.3102 57.6C82.4969 57.2587 82.7475 56.9947 83.0622 56.808C83.3822 56.616 83.7369 56.52 84.1262 56.52C84.4142 56.52 84.6969 56.584 84.9742 56.712C85.2569 56.8347 85.4809 57 85.6462 57.208V55.08H86.5662V61H85.6462V60.336C85.4969 60.5493 85.2889 60.7253 85.0222 60.864C84.7609 61.0027 84.4595 61.072 84.1182 61.072C83.7342 61.072 83.3822 60.976 83.0622 60.784C82.7475 60.5867 82.4969 60.3147 82.3102 59.968C82.1289 59.616 82.0382 59.2187 82.0382 58.776ZM85.6462 58.792C85.6462 58.488 85.5822 58.224 85.4542 58C85.3315 57.776 85.1689 57.6053 84.9662 57.488C84.7635 57.3707 84.5449 57.312 84.3102 57.312C84.0755 57.312 83.8569 57.3707 83.6542 57.488C83.4515 57.6 83.2862 57.768 83.1582 57.992C83.0355 58.2107 82.9742 58.472 82.9742 58.776C82.9742 59.08 83.0355 59.3467 83.1582 59.576C83.2862 59.8053 83.4515 59.9813 83.6542 60.104C83.8622 60.2213 84.0809 60.28 84.3102 60.28C84.5449 60.28 84.7635 60.2213 84.9662 60.104C85.1689 59.9867 85.3315 59.816 85.4542 59.592C85.5822 59.3627 85.6462 59.096 85.6462 58.792ZM89.6761 61.072C89.2601 61.072 88.8841 60.9787 88.5481 60.792C88.2121 60.6 87.9481 60.3333 87.7561 59.992C87.5641 59.6453 87.4681 59.2453 87.4681 58.792C87.4681 58.344 87.5667 57.9467 87.7641 57.6C87.9614 57.2533 88.2307 56.9867 88.5721 56.8C88.9134 56.6133 89.2947 56.52 89.7161 56.52C90.1374 56.52 90.5187 56.6133 90.8601 56.8C91.2014 56.9867 91.4707 57.2533 91.6681 57.6C91.8654 57.9467 91.9641 58.344 91.9641 58.792C91.9641 59.24 91.8627 59.6373 91.6601 59.984C91.4574 60.3307 91.1801 60.6 90.8281 60.792C90.4814 60.9787 90.0974 61.072 89.6761 61.072ZM89.6761 60.28C89.9107 60.28 90.1294 60.224 90.3321 60.112C90.5401 60 90.7081 59.832 90.8361 59.608C90.9641 59.384 91.0281 59.112 91.0281 58.792C91.0281 58.472 90.9667 58.2027 90.8441 57.984C90.7214 57.76 90.5587 57.592 90.3561 57.48C90.1534 57.368 89.9347 57.312 89.7001 57.312C89.4654 57.312 89.2467 57.368 89.0441 57.48C88.8467 57.592 88.6894 57.76 88.5721 57.984C88.4547 58.2027 88.3961 58.472 88.3961 58.792C88.3961 59.2667 88.5161 59.6347 88.7561 59.896C89.0014 60.152 89.3081 60.28 89.6761 60.28ZM98.7856 56.592L97.4176 61H96.4576L95.5696 57.744L94.6816 61H93.7216L92.3456 56.592H93.2736L94.1936 60.136L95.1296 56.592H96.0816L96.9776 60.12L97.8896 56.592H98.7856ZM101.691 56.52C102.038 56.52 102.347 56.592 102.619 56.736C102.897 56.88 103.113 57.0933 103.267 57.376C103.422 57.6587 103.499 58 103.499 58.4V61H102.595V58.536C102.595 58.1413 102.497 57.84 102.299 57.632C102.102 57.4187 101.833 57.312 101.491 57.312C101.15 57.312 100.878 57.4187 100.675 57.632C100.478 57.84 100.379 58.1413 100.379 58.536V61H99.4672V56.592H100.379V57.096C100.529 56.9147 100.718 56.7733 100.947 56.672C101.182 56.5707 101.43 56.52 101.691 56.52ZM105.575 55.08V61H104.663V55.08H105.575ZM108.684 61.072C108.268 61.072 107.892 60.9787 107.556 60.792C107.22 60.6 106.956 60.3333 106.764 59.992C106.572 59.6453 106.476 59.2453 106.476 58.792C106.476 58.344 106.575 57.9467 106.772 57.6C106.969 57.2533 107.239 56.9867 107.58 56.8C107.921 56.6133 108.303 56.52 108.724 56.52C109.145 56.52 109.527 56.6133 109.868 56.8C110.209 56.9867 110.479 57.2533 110.676 57.6C110.873 57.9467 110.972 58.344 110.972 58.792C110.972 59.24 110.871 59.6373 110.668 59.984C110.465 60.3307 110.188 60.6 109.836 60.792C109.489 60.9787 109.105 61.072 108.684 61.072ZM108.684 60.28C108.919 60.28 109.137 60.224 109.34 60.112C109.548 60 109.716 59.832 109.844 59.608C109.972 59.384 110.036 59.112 110.036 58.792C110.036 58.472 109.975 58.2027 109.852 57.984C109.729 57.76 109.567 57.592 109.364 57.48C109.161 57.368 108.943 57.312 108.708 57.312C108.473 57.312 108.255 57.368 108.052 57.48C107.855 57.592 107.697 57.76 107.58 57.984C107.463 58.2027 107.404 58.472 107.404 58.792C107.404 59.2667 107.524 59.6347 107.764 59.896C108.009 60.152 108.316 60.28 108.684 60.28ZM111.569 58.776C111.569 58.3333 111.66 57.9413 111.841 57.6C112.028 57.2587 112.279 56.9947 112.593 56.808C112.913 56.616 113.265 56.52 113.649 56.52C113.996 56.52 114.297 56.5893 114.553 56.728C114.815 56.8613 115.023 57.0293 115.177 57.232V56.592H116.097V61H115.177V60.344C115.023 60.552 114.812 60.7253 114.545 60.864C114.279 61.0027 113.975 61.072 113.633 61.072C113.255 61.072 112.908 60.976 112.593 60.784C112.279 60.5867 112.028 60.3147 111.841 59.968C111.66 59.616 111.569 59.2187 111.569 58.776ZM115.177 58.792C115.177 58.488 115.113 58.224 114.985 58C114.863 57.776 114.7 57.6053 114.497 57.488C114.295 57.3707 114.076 57.312 113.841 57.312C113.607 57.312 113.388 57.3707 113.185 57.488C112.983 57.6 112.817 57.768 112.689 57.992C112.567 58.2107 112.505 58.472 112.505 58.776C112.505 59.08 112.567 59.3467 112.689 59.576C112.817 59.8053 112.983 59.9813 113.185 60.104C113.393 60.2213 113.612 60.28 113.841 60.28C114.076 60.28 114.295 60.2213 114.497 60.104C114.7 59.9867 114.863 59.816 114.985 59.592C115.113 59.3627 115.177 59.096 115.177 58.792ZM116.991 58.776C116.991 58.3333 117.082 57.9413 117.263 57.6C117.45 57.2587 117.701 56.9947 118.015 56.808C118.335 56.616 118.69 56.52 119.079 56.52C119.367 56.52 119.65 56.584 119.927 56.712C120.21 56.8347 120.434 57 120.599 57.208V55.08H121.519V61H120.599V60.336C120.45 60.5493 120.242 60.7253 119.975 60.864C119.714 61.0027 119.413 61.072 119.071 61.072C118.687 61.072 118.335 60.976 118.015 60.784C117.701 60.5867 117.45 60.3147 117.263 59.968C117.082 59.616 116.991 59.2187 116.991 58.776ZM120.599 58.792C120.599 58.488 120.535 58.224 120.407 58C120.285 57.776 120.122 57.6053 119.919 57.488C119.717 57.3707 119.498 57.312 119.263 57.312C119.029 57.312 118.81 57.3707 118.607 57.488C118.405 57.6 118.239 57.768 118.111 57.992C117.989 58.2107 117.927 58.472 117.927 58.776C117.927 59.08 117.989 59.3467 118.111 59.576C118.239 59.8053 118.405 59.9813 118.607 60.104C118.815 60.2213 119.034 60.28 119.263 60.28C119.498 60.28 119.717 60.2213 119.919 60.104C120.122 59.9867 120.285 59.816 120.407 59.592C120.535 59.3627 120.599 59.096 120.599 58.792ZM124.317 61.072C123.971 61.072 123.659 61.0107 123.381 60.888C123.109 60.76 122.893 60.5893 122.733 60.376C122.573 60.1573 122.488 59.9147 122.477 59.648H123.421C123.437 59.8347 123.525 59.992 123.685 60.12C123.851 60.2427 124.056 60.304 124.301 60.304C124.557 60.304 124.755 60.256 124.893 60.16C125.037 60.0587 125.109 59.9307 125.109 59.776C125.109 59.6107 125.029 59.488 124.869 59.408C124.715 59.328 124.467 59.24 124.125 59.144C123.795 59.0533 123.525 58.9653 123.317 58.88C123.109 58.7947 122.928 58.664 122.773 58.488C122.624 58.312 122.549 58.08 122.549 57.792C122.549 57.5573 122.619 57.344 122.757 57.152C122.896 56.9547 123.093 56.8 123.349 56.688C123.611 56.576 123.909 56.52 124.245 56.52C124.747 56.52 125.149 56.648 125.453 56.904C125.763 57.1547 125.928 57.4987 125.949 57.936H125.037C125.021 57.7387 124.941 57.5813 124.797 57.464C124.653 57.3467 124.459 57.288 124.213 57.288C123.973 57.288 123.789 57.3333 123.661 57.424C123.533 57.5147 123.469 57.6347 123.469 57.784C123.469 57.9013 123.512 58 123.597 58.08C123.683 58.16 123.787 58.224 123.909 58.272C124.032 58.3147 124.213 58.3707 124.453 58.44C124.773 58.5253 125.035 58.6133 125.237 58.704C125.445 58.7893 125.624 58.9173 125.773 59.088C125.923 59.2587 126 59.4853 126.005 59.768C126.005 60.0187 125.936 60.2427 125.797 60.44C125.659 60.6373 125.461 60.792 125.205 60.904C124.955 61.016 124.659 61.072 124.317 61.072Z" fill="#5886F9"/>
<path d="M61 59.25V62.5833C61 62.6938 60.9561 62.7998 60.878 62.878C60.7998 62.9561 60.6938 63 60.5833 63H51.4167C51.3062 63 51.2002 62.9561 51.122 62.878C51.0439 62.7998 51 62.6938 51 62.5833V59.25C51 59.1395 51.0439 59.0335 51.122 58.9554C51.2002 58.8772 51.3062 58.8333 51.4167 58.8333C51.5272 58.8333 51.6332 58.8772 51.7113 58.9554C51.7894 59.0335 51.8333 59.1395 51.8333 59.25V62.1667H60.1667V59.25C60.1667 59.1395 60.2106 59.0335 60.2887 58.9554C60.3668 58.8772 60.4728 58.8333 60.5833 58.8333C60.6938 58.8333 60.7998 58.8772 60.878 58.9554C60.9561 59.0335 61 59.1395 61 59.25ZM55.7052 59.5448C55.7439 59.5835 55.7899 59.6143 55.8404 59.6352C55.891 59.6562 55.9452 59.667 56 59.667C56.0548 59.667 56.109 59.6562 56.1596 59.6352C56.2101 59.6143 56.2561 59.5835 56.2948 59.5448L58.3781 57.4615C58.4168 57.4227 58.4475 57.3768 58.4685 57.3262C58.4894 57.2756 58.5002 57.2214 58.5002 57.1667C58.5002 57.1119 58.4894 57.0577 58.4685 57.0071C58.4475 56.9565 58.4168 56.9106 58.3781 56.8719C58.3394 56.8332 58.2935 56.8025 58.2429 56.7815C58.1923 56.7606 58.1381 56.7498 58.0833 56.7498C58.0286 56.7498 57.9744 56.7606 57.9238 56.7815C57.8732 56.8025 57.8273 56.8332 57.7885 56.8719L56.4167 58.2443V53.4167C56.4167 53.3062 56.3728 53.2002 56.2946 53.122C56.2165 53.0439 56.1105 53 56 53C55.8895 53 55.7835 53.0439 55.7054 53.122C55.6272 53.2002 55.5833 53.3062 55.5833 53.4167V58.2443L54.2115 56.8719C54.1333 56.7937 54.0272 56.7498 53.9167 56.7498C53.8061 56.7498 53.7001 56.7937 53.6219 56.8719C53.5437 56.9501 53.4998 57.0561 53.4998 57.1667C53.4998 57.2772 53.5437 57.3833 53.6219 57.4615L55.7052 59.5448Z" fill="#5886F9"/>
<defs>
<filter id="filter0_d_285_374" x="51" y="69" width="121" height="97" filterUnits="userSpaceOnUse" color-interpolation-filters="sRGB">
<feFlood flood-opacity="0" result="BackgroundImageFix"/>
<feColorMatrix in="SourceAlpha" type="matrix" values="0 0 0 0 0 0 0 0 0 0 0 0 0 0 0 0 0 0 127 0" result="hardAlpha"/>
<feMorphology radius="1" operator="dilate" in="SourceAlpha" result="effect1_dropShadow_285_374"/>
<feOffset dy="4"/>
<feGaussianBlur stdDeviation="15"/>
<feComposite in2="hardAlpha" operator="out"/>
<feColorMatrix type="matrix" values="0 0 0 0 0 0 0 0 0 0 0 0 0 0 0 0 0 0 0.1 0"/>
<feBlend mode="normal" in2="BackgroundImageFix" result="effect1_dropShadow_285_374"/>
<feBlend mode="normal" in="SourceGraphic" in2="effect1_dropShadow_285_374" result="shape"/>
</filter>
<filter id="filter1_d_285_374" x="150" y="69" width="169" height="140" filterUnits="userSpaceOnUse" color-interpolation-filters="sRGB">
<feFlood flood-opacity="0" result="BackgroundImageFix"/>
<feColorMatrix in="SourceAlpha" type="matrix" values="0 0 0 0 0 0 0 0 0 0 0 0 0 0 0 0 0 0 127 0" result="hardAlpha"/>
<feMorphology radius="1" operator="dilate" in="SourceAlpha" result="effect1_dropShadow_285_374"/>
<feOffset dy="4"/>
<feGaussianBlur stdDeviation="15"/>
<feComposite in2="hardAlpha" operator="out"/>
<feColorMatrix type="matrix" values="0 0 0 0 0 0 0 0 0 0 0 0 0 0 0 0 0 0 0.1 0"/>
<feBlend mode="normal" in2="BackgroundImageFix" result="effect1_dropShadow_285_374"/>
<feBlend mode="normal" in="SourceGraphic" in2="effect1_dropShadow_285_374" result="shape"/>
</filter>
<filter id="filter2_d_285_374" x="0" y="97" width="99" height="99" filterUnits="userSpaceOnUse" color-interpolation-filters="sRGB">
<feFlood flood-opacity="0" result="BackgroundImageFix"/>
<feColorMatrix in="SourceAlpha" type="matrix" values="0 0 0 0 0 0 0 0 0 0 0 0 0 0 0 0 0 0 127 0" result="hardAlpha"/>
<feMorphology radius="1" operator="dilate" in="SourceAlpha" result="effect1_dropShadow_285_374"/>
<feOffset dy="4"/>
<feGaussianBlur stdDeviation="15"/>
<feComposite in2="hardAlpha" operator="out"/>
<feColorMatrix type="matrix" values="0 0 0 0 0 0 0 0 0 0 0 0 0 0 0 0 0 0 0.1 0"/>
<feBlend mode="normal" in2="BackgroundImageFix" result="effect1_dropShadow_285_374"/>
<feBlend mode="normal" in="SourceGraphic" in2="effect1_dropShadow_285_374" result="shape"/>
</filter>
<filter id="filter3_d_285_374" x="244" y="0" width="99" height="99" filterUnits="userSpaceOnUse" color-interpolation-filters="sRGB">
<feFlood flood-opacity="0" result="BackgroundImageFix"/>
<feColorMatrix in="SourceAlpha" type="matrix" values="0 0 0 0 0 0 0 0 0 0 0 0 0 0 0 0 0 0 127 0" result="hardAlpha"/>
<feMorphology radius="1" operator="dilate" in="SourceAlpha" result="effect1_dropShadow_285_374"/>
<feOffset dy="4"/>
<feGaussianBlur stdDeviation="15"/>
<feComposite in2="hardAlpha" operator="out"/>
<feColorMatrix type="matrix" values="0 0 0 0 0 0 0 0 0 0 0 0 0 0 0 0 0 0 0.1 0"/>
<feBlend mode="normal" in2="BackgroundImageFix" result="effect1_dropShadow_285_374"/>
<feBlend mode="normal" in="SourceGraphic" in2="effect1_dropShadow_285_374" result="shape"/>
</filter>
<filter id="filter4_d_285_374" x="14" y="21" width="149" height="83" filterUnits="userSpaceOnUse" color-interpolation-filters="sRGB">
<feFlood flood-opacity="0" result="BackgroundImageFix"/>
<feColorMatrix in="SourceAlpha" type="matrix" values="0 0 0 0 0 0 0 0 0 0 0 0 0 0 0 0 0 0 127 0" result="hardAlpha"/>
<feMorphology radius="1" operator="dilate" in="SourceAlpha" result="effect1_dropShadow_285_374"/>
<feOffset dy="4"/>
<feGaussianBlur stdDeviation="15"/>
<feComposite in2="hardAlpha" operator="out"/>
<feColorMatrix type="matrix" values="0 0 0 0 0 0 0 0 0 0 0 0 0 0 0 0 0 0 0.1 0"/>
<feBlend mode="normal" in2="BackgroundImageFix" result="effect1_dropShadow_285_374"/>
<feBlend mode="normal" in="SourceGraphic" in2="effect1_dropShadow_285_374" result="shape"/>
</filter>
</defs>
</svg>
