<svg width="396" height="294" viewBox="0 0 396 294" fill="none" xmlns="http://www.w3.org/2000/svg">
<circle cx="211" cy="147" r="106.5" stroke="url(#paint0_linear_242_4)" stroke-opacity="0.2"/>
<circle cx="211" cy="147" r="146.5" stroke="url(#paint1_linear_242_4)" stroke-opacity="0.2"/>
<circle cx="211" cy="147" r="66.5" stroke="url(#paint2_linear_242_4)" stroke-opacity="0.2"/>
<g filter="url(#filter0_d_242_4)">
<rect x="175" y="114" width="71" height="66" rx="10" fill="white"/>
</g>
<rect x="183" y="140" width="55" height="32" rx="5" fill="#AFB9C7" fill-opacity="0.2"/>
<path d="M201 125H235" stroke="#AFB9C7" stroke-opacity="0.2" stroke-width="4" stroke-linecap="round"/>
<path d="M201 132H219" stroke="#AFB9C7" stroke-opacity="0.2" stroke-width="4" stroke-linecap="round"/>
<circle cx="189.5" cy="128.5" r="6.5" fill="#AFB9C7" fill-opacity="0.2"/>
<path d="M219.983 153.721C219.983 153.729 219.983 153.736 219.977 153.743L218.053 161.082C217.993 161.34 217.828 161.573 217.584 161.741C217.341 161.908 217.035 162 216.719 162H204.284C203.969 162 203.663 161.908 203.42 161.74C203.176 161.573 203.011 161.34 202.952 161.082L201.028 153.743C201.028 153.736 201.023 153.729 201.022 153.721C200.969 153.478 201.013 153.227 201.148 153.007C201.282 152.787 201.5 152.61 201.766 152.502C202.033 152.395 202.335 152.363 202.626 152.412C202.916 152.461 203.18 152.587 203.376 152.773L206.232 155.336L209.269 149.664C209.27 149.662 209.27 149.659 209.269 149.657C209.378 149.461 209.552 149.295 209.77 149.178C209.989 149.062 210.243 149 210.502 149C210.762 149 211.015 149.062 211.234 149.178C211.452 149.295 211.626 149.461 211.735 149.657C211.735 149.659 211.735 149.662 211.735 149.664L214.772 155.336L217.628 152.773C217.825 152.589 218.088 152.463 218.378 152.415C218.668 152.367 218.968 152.399 219.234 152.507C219.5 152.614 219.717 152.79 219.851 153.01C219.986 153.229 220.031 153.478 219.979 153.721H219.983Z" fill="#5886F9"/>
<g filter="url(#filter1_d_242_4)">
<circle cx="304.5" cy="192.5" r="18.5" fill="white"/>
</g>
<g filter="url(#filter2_d_242_4)">
<circle cx="346.5" cy="101.5" r="18.5" fill="white"/>
</g>
<path d="M355 98.8449C355 104.315 347.123 108.743 346.788 108.925C346.699 108.974 346.6 109 346.5 109C346.4 109 346.301 108.974 346.212 108.925C345.877 108.743 338 104.315 338 98.8449C338.001 97.5604 338.498 96.3289 339.38 95.4206C340.262 94.5124 341.458 94.0014 342.705 94C344.273 94 345.645 94.6939 346.5 95.8668C347.355 94.6939 348.727 94 350.295 94C351.542 94.0014 352.738 94.5124 353.62 95.4206C354.502 96.3289 354.999 97.5604 355 98.8449Z" fill="#5886F9"/>
<path d="M313.742 192.717L299.109 183.555C298.91 183.434 298.686 183.361 298.454 183.342C298.222 183.323 297.989 183.358 297.773 183.445C297.557 183.531 297.364 183.667 297.209 183.841C297.055 184.015 296.943 184.222 296.882 184.447L293.388 197.487C293.285 197.871 293.339 198.281 293.538 198.625C293.737 198.97 294.065 199.221 294.449 199.324C294.587 199.361 294.731 199.378 294.874 199.375L303.055 199.081L302.806 200.011C302.703 200.395 302.757 200.804 302.956 201.149C303.155 201.493 303.482 201.745 303.867 201.848L306.764 202.624C307.149 202.727 307.558 202.673 307.903 202.474C308.247 202.275 308.499 201.948 308.602 201.563L309.327 198.856L312.124 198.756C312.447 198.746 312.759 198.633 313.012 198.433C313.266 198.233 313.449 197.956 313.534 197.644L314.408 194.384C314.49 194.072 314.47 193.741 314.35 193.441C314.23 193.141 314.017 192.887 313.742 192.717ZM307.153 201.175L304.255 200.399L304.623 199.024L307.759 198.911L307.153 201.175ZM312.085 197.256L312.075 197.253L305.029 197.508L306.975 190.248L312.949 193.993L312.959 193.996L312.085 197.256Z" fill="#E6EDFF"/>
<g filter="url(#filter3_d_242_4)">
<rect x="31" y="174" width="73" height="21" rx="8" fill="white"/>
</g>
<path d="M47.9684 183.838C47.9523 183.799 47.5641 182.859 46.7011 181.917C45.5511 180.663 44.0987 180 42.5 180C40.9013 180 39.4489 180.663 38.2989 181.917C37.4359 182.859 37.0458 183.8 37.0316 183.838C37.0108 183.889 37 183.945 37 184C37 184.056 37.0108 184.112 37.0316 184.163C37.0477 184.202 37.4359 185.142 38.2989 186.083C39.4489 187.337 40.9013 188 42.5 188C44.0987 188 45.5511 187.337 46.7011 186.083C47.5641 185.142 47.9523 184.202 47.9684 184.163C47.9892 184.112 48 184.056 48 184C48 183.945 47.9892 183.889 47.9684 183.838ZM42.5 187.2C41.0892 187.2 39.8568 186.641 38.8365 185.537C38.4179 185.083 38.0618 184.565 37.7792 184C38.0617 183.434 38.4178 182.917 38.8365 182.463C39.8568 181.36 41.0892 180.8 42.5 180.8C43.9108 180.8 45.1432 181.36 46.1635 182.463C46.5829 182.916 46.9398 183.434 47.2231 184C46.8927 184.673 45.453 187.2 42.5 187.2ZM42.5 181.6C42.0649 181.6 41.6395 181.741 41.2777 182.004C40.916 182.268 40.634 182.643 40.4675 183.082C40.301 183.52 40.2574 184.003 40.3423 184.468C40.4272 184.934 40.6367 185.361 40.9444 185.697C41.252 186.033 41.644 186.261 42.0708 186.354C42.4976 186.446 42.9399 186.399 43.3419 186.217C43.7439 186.036 44.0875 185.728 44.3292 185.333C44.571 184.939 44.7 184.475 44.7 184C44.6994 183.364 44.4674 182.754 44.055 182.304C43.6425 181.854 43.0833 181.601 42.5 181.6ZM42.5 185.6C42.2099 185.6 41.9264 185.506 41.6852 185.33C41.444 185.155 41.256 184.905 41.145 184.612C41.034 184.32 41.0049 183.998 41.0615 183.688C41.1181 183.377 41.2578 183.092 41.4629 182.869C41.668 182.645 41.9294 182.492 42.2139 182.431C42.4984 182.369 42.7933 182.401 43.0613 182.522C43.3293 182.643 43.5583 182.848 43.7195 183.111C43.8806 183.374 43.9667 183.684 43.9667 184C43.9667 184.424 43.8121 184.831 43.5371 185.131C43.262 185.431 42.889 185.6 42.5 185.6Z" fill="#5886F9"/>
<path d="M55.24 181.952H52.56V183.544C52.672 183.395 52.8373 183.269 53.056 183.168C53.28 183.067 53.5173 183.016 53.768 183.016C54.216 183.016 54.5787 183.112 54.856 183.304C55.1387 183.496 55.3387 183.739 55.456 184.032C55.5787 184.325 55.64 184.635 55.64 184.96C55.64 185.355 55.5627 185.707 55.408 186.016C55.2587 186.32 55.032 186.56 54.728 186.736C54.4293 186.912 54.0613 187 53.624 187C53.0427 187 52.576 186.856 52.224 186.568C51.872 186.28 51.6613 185.899 51.592 185.424H52.48C52.5387 185.675 52.6693 185.875 52.872 186.024C53.0747 186.168 53.328 186.24 53.632 186.24C54.0107 186.24 54.2933 186.125 54.48 185.896C54.672 185.667 54.768 185.363 54.768 184.984C54.768 184.6 54.672 184.307 54.48 184.104C54.288 183.896 54.0053 183.792 53.632 183.792C53.3707 183.792 53.1493 183.859 52.968 183.992C52.792 184.12 52.664 184.296 52.584 184.52H51.72V181.152H55.24V181.952ZM56.5894 184.008C56.5894 183.085 56.744 182.365 57.0534 181.848C57.368 181.325 57.9067 181.064 58.6694 181.064C59.432 181.064 59.968 181.325 60.2774 181.848C60.592 182.365 60.7494 183.085 60.7494 184.008C60.7494 184.941 60.592 185.672 60.2774 186.2C59.968 186.723 59.432 186.984 58.6694 186.984C57.9067 186.984 57.368 186.723 57.0534 186.2C56.744 185.672 56.5894 184.941 56.5894 184.008ZM59.8534 184.008C59.8534 183.576 59.824 183.211 59.7654 182.912C59.712 182.613 59.6 182.371 59.4294 182.184C59.2587 181.992 59.0054 181.896 58.6694 181.896C58.3334 181.896 58.08 181.992 57.9094 182.184C57.7387 182.371 57.624 182.613 57.5654 182.912C57.512 183.211 57.4854 183.576 57.4854 184.008C57.4854 184.456 57.512 184.832 57.5654 185.136C57.6187 185.44 57.7307 185.685 57.9014 185.872C58.0774 186.059 58.3334 186.152 58.6694 186.152C59.0054 186.152 59.2587 186.059 59.4294 185.872C59.6054 185.685 59.72 185.44 59.7734 185.136C59.8267 184.832 59.8534 184.456 59.8534 184.008ZM61.7144 184.008C61.7144 183.085 61.869 182.365 62.1784 181.848C62.493 181.325 63.0317 181.064 63.7944 181.064C64.557 181.064 65.093 181.325 65.4024 181.848C65.717 182.365 65.8744 183.085 65.8744 184.008C65.8744 184.941 65.717 185.672 65.4024 186.2C65.093 186.723 64.557 186.984 63.7944 186.984C63.0317 186.984 62.493 186.723 62.1784 186.2C61.869 185.672 61.7144 184.941 61.7144 184.008ZM64.9784 184.008C64.9784 183.576 64.949 183.211 64.8904 182.912C64.837 182.613 64.725 182.371 64.5544 182.184C64.3837 181.992 64.1304 181.896 63.7944 181.896C63.4584 181.896 63.205 181.992 63.0344 182.184C62.8637 182.371 62.749 182.613 62.6904 182.912C62.637 183.211 62.6104 183.576 62.6104 184.008C62.6104 184.456 62.637 184.832 62.6904 185.136C62.7437 185.44 62.8557 185.685 63.0264 185.872C63.2024 186.059 63.4584 186.152 63.7944 186.152C64.1304 186.152 64.3837 186.059 64.5544 185.872C64.7304 185.685 64.845 185.44 64.8984 185.136C64.9517 184.832 64.9784 184.456 64.9784 184.008ZM68.7034 184.8L70.7354 187H69.5034L67.8714 185.104V187H66.9594V181.08H67.8714V184.52L69.4714 182.592H70.7354L68.7034 184.8ZM75.1712 186.184L76.4192 182.592H77.3872L75.7072 187H74.6192L72.9472 182.592H73.9232L75.1712 186.184ZM78.5406 182.008C78.3752 182.008 78.2366 181.952 78.1246 181.84C78.0126 181.728 77.9566 181.589 77.9566 181.424C77.9566 181.259 78.0126 181.12 78.1246 181.008C78.2366 180.896 78.3752 180.84 78.5406 180.84C78.7006 180.84 78.8366 180.896 78.9486 181.008C79.0606 181.12 79.1166 181.259 79.1166 181.424C79.1166 181.589 79.0606 181.728 78.9486 181.84C78.8366 181.952 78.7006 182.008 78.5406 182.008ZM78.9886 182.592V187H78.0766V182.592H78.9886ZM84.2259 184.688C84.2259 184.853 84.2153 185.003 84.1939 185.136H80.8259C80.8526 185.488 80.9833 185.771 81.2179 185.984C81.4526 186.197 81.7406 186.304 82.0819 186.304C82.5726 186.304 82.9193 186.099 83.1219 185.688H84.1059C83.9726 186.093 83.7299 186.427 83.3779 186.688C83.0313 186.944 82.5993 187.072 82.0819 187.072C81.6606 187.072 81.2819 186.979 80.9459 186.792C80.6153 186.6 80.3539 186.333 80.1619 185.992C79.9753 185.645 79.8819 185.245 79.8819 184.792C79.8819 184.339 79.9726 183.941 80.1539 183.6C80.3406 183.253 80.5993 182.987 80.9299 182.8C81.2659 182.613 81.6499 182.52 82.0819 182.52C82.4979 182.52 82.8686 182.611 83.1939 182.792C83.5193 182.973 83.7726 183.229 83.9539 183.56C84.1353 183.885 84.2259 184.261 84.2259 184.688ZM83.2739 184.4C83.2686 184.064 83.1486 183.795 82.9139 183.592C82.6793 183.389 82.3886 183.288 82.0419 183.288C81.7273 183.288 81.4579 183.389 81.2339 183.592C81.0099 183.789 80.8766 184.059 80.8339 184.4H83.2739ZM91.0434 182.592L89.6754 187H88.7154L87.8274 183.744L86.9394 187H85.9794L84.6034 182.592H85.5314L86.4514 186.136L87.3874 182.592H88.3394L89.2354 186.12L90.1474 182.592H91.0434ZM93.325 187.072C92.9783 187.072 92.6663 187.011 92.389 186.888C92.117 186.76 91.901 186.589 91.741 186.376C91.581 186.157 91.4957 185.915 91.485 185.648H92.429C92.445 185.835 92.533 185.992 92.693 186.12C92.8583 186.243 93.0637 186.304 93.309 186.304C93.565 186.304 93.7623 186.256 93.901 186.16C94.045 186.059 94.117 185.931 94.117 185.776C94.117 185.611 94.037 185.488 93.877 185.408C93.7223 185.328 93.4743 185.24 93.133 185.144C92.8023 185.053 92.533 184.965 92.325 184.88C92.117 184.795 91.9357 184.664 91.781 184.488C91.6317 184.312 91.557 184.08 91.557 183.792C91.557 183.557 91.6263 183.344 91.765 183.152C91.9037 182.955 92.101 182.8 92.357 182.688C92.6183 182.576 92.917 182.52 93.253 182.52C93.7543 182.52 94.157 182.648 94.461 182.904C94.7703 183.155 94.9357 183.499 94.957 183.936H94.045C94.029 183.739 93.949 183.581 93.805 183.464C93.661 183.347 93.4663 183.288 93.221 183.288C92.981 183.288 92.797 183.333 92.669 183.424C92.541 183.515 92.477 183.635 92.477 183.784C92.477 183.901 92.5197 184 92.605 184.08C92.6903 184.16 92.7943 184.224 92.917 184.272C93.0397 184.315 93.221 184.371 93.461 184.44C93.781 184.525 94.0423 184.613 94.245 184.704C94.453 184.789 94.6317 184.917 94.781 185.088C94.9303 185.259 95.0077 185.485 95.013 185.768C95.013 186.019 94.9437 186.243 94.805 186.44C94.6663 186.637 94.469 186.792 94.213 186.904C93.9623 187.016 93.6663 187.072 93.325 187.072Z" fill="#5886F9"/>
<g filter="url(#filter4_d_242_4)">
<circle cx="143.5" cy="128.5" r="18.5" fill="white"/>
</g>
<path d="M145.16 118.188C145.054 118.105 144.928 118.047 144.792 118.019C144.657 117.991 144.517 117.994 144.383 118.028C144.249 118.062 144.126 118.126 144.024 118.214C143.922 118.303 143.844 118.413 143.797 118.536L141.422 124.688L138.814 122.304C138.726 122.224 138.622 122.162 138.507 122.123C138.392 122.084 138.27 122.068 138.148 122.076C138.026 122.085 137.908 122.118 137.801 122.173C137.694 122.228 137.6 122.303 137.526 122.395C135.188 125.285 134 128.193 134 131.037C134 133.414 135.001 135.694 136.782 137.375C138.564 139.056 140.98 140 143.5 140C146.02 140 148.436 139.056 150.218 137.375C151.999 135.694 153 133.414 153 131.037C153 124.982 147.517 120.037 145.16 118.188Z" fill="#E6EDFF"/>
<defs>
<filter id="filter0_d_242_4" x="144" y="87" width="133" height="128" filterUnits="userSpaceOnUse" color-interpolation-filters="sRGB">
<feFlood flood-opacity="0" result="BackgroundImageFix"/>
<feColorMatrix in="SourceAlpha" type="matrix" values="0 0 0 0 0 0 0 0 0 0 0 0 0 0 0 0 0 0 127 0" result="hardAlpha"/>
<feMorphology radius="1" operator="dilate" in="SourceAlpha" result="effect1_dropShadow_242_4"/>
<feOffset dy="4"/>
<feGaussianBlur stdDeviation="15"/>
<feComposite in2="hardAlpha" operator="out"/>
<feColorMatrix type="matrix" values="0 0 0 0 0 0 0 0 0 0 0 0 0 0 0 0 0 0 0.1 0"/>
<feBlend mode="normal" in2="BackgroundImageFix" result="effect1_dropShadow_242_4"/>
<feBlend mode="normal" in="SourceGraphic" in2="effect1_dropShadow_242_4" result="shape"/>
</filter>
<filter id="filter1_d_242_4" x="255" y="147" width="99" height="99" filterUnits="userSpaceOnUse" color-interpolation-filters="sRGB">
<feFlood flood-opacity="0" result="BackgroundImageFix"/>
<feColorMatrix in="SourceAlpha" type="matrix" values="0 0 0 0 0 0 0 0 0 0 0 0 0 0 0 0 0 0 127 0" result="hardAlpha"/>
<feMorphology radius="1" operator="dilate" in="SourceAlpha" result="effect1_dropShadow_242_4"/>
<feOffset dy="4"/>
<feGaussianBlur stdDeviation="15"/>
<feComposite in2="hardAlpha" operator="out"/>
<feColorMatrix type="matrix" values="0 0 0 0 0 0 0 0 0 0 0 0 0 0 0 0 0 0 0.1 0"/>
<feBlend mode="normal" in2="BackgroundImageFix" result="effect1_dropShadow_242_4"/>
<feBlend mode="normal" in="SourceGraphic" in2="effect1_dropShadow_242_4" result="shape"/>
</filter>
<filter id="filter2_d_242_4" x="297" y="56" width="99" height="99" filterUnits="userSpaceOnUse" color-interpolation-filters="sRGB">
<feFlood flood-opacity="0" result="BackgroundImageFix"/>
<feColorMatrix in="SourceAlpha" type="matrix" values="0 0 0 0 0 0 0 0 0 0 0 0 0 0 0 0 0 0 127 0" result="hardAlpha"/>
<feMorphology radius="1" operator="dilate" in="SourceAlpha" result="effect1_dropShadow_242_4"/>
<feOffset dy="4"/>
<feGaussianBlur stdDeviation="15"/>
<feComposite in2="hardAlpha" operator="out"/>
<feColorMatrix type="matrix" values="0 0 0 0 0 0 0 0 0 0 0 0 0 0 0 0 0 0 0.1 0"/>
<feBlend mode="normal" in2="BackgroundImageFix" result="effect1_dropShadow_242_4"/>
<feBlend mode="normal" in="SourceGraphic" in2="effect1_dropShadow_242_4" result="shape"/>
</filter>
<filter id="filter3_d_242_4" x="0" y="147" width="135" height="83" filterUnits="userSpaceOnUse" color-interpolation-filters="sRGB">
<feFlood flood-opacity="0" result="BackgroundImageFix"/>
<feColorMatrix in="SourceAlpha" type="matrix" values="0 0 0 0 0 0 0 0 0 0 0 0 0 0 0 0 0 0 127 0" result="hardAlpha"/>
<feMorphology radius="1" operator="dilate" in="SourceAlpha" result="effect1_dropShadow_242_4"/>
<feOffset dy="4"/>
<feGaussianBlur stdDeviation="15"/>
<feComposite in2="hardAlpha" operator="out"/>
<feColorMatrix type="matrix" values="0 0 0 0 0 0 0 0 0 0 0 0 0 0 0 0 0 0 0.1 0"/>
<feBlend mode="normal" in2="BackgroundImageFix" result="effect1_dropShadow_242_4"/>
<feBlend mode="normal" in="SourceGraphic" in2="effect1_dropShadow_242_4" result="shape"/>
</filter>
<filter id="filter4_d_242_4" x="94" y="83" width="99" height="99" filterUnits="userSpaceOnUse" color-interpolation-filters="sRGB">
<feFlood flood-opacity="0" result="BackgroundImageFix"/>
<feColorMatrix in="SourceAlpha" type="matrix" values="0 0 0 0 0 0 0 0 0 0 0 0 0 0 0 0 0 0 127 0" result="hardAlpha"/>
<feMorphology radius="1" operator="dilate" in="SourceAlpha" result="effect1_dropShadow_242_4"/>
<feOffset dy="4"/>
<feGaussianBlur stdDeviation="15"/>
<feComposite in2="hardAlpha" operator="out"/>
<feColorMatrix type="matrix" values="0 0 0 0 0 0 0 0 0 0 0 0 0 0 0 0 0 0 0.1 0"/>
<feBlend mode="normal" in2="BackgroundImageFix" result="effect1_dropShadow_242_4"/>
<feBlend mode="normal" in="SourceGraphic" in2="effect1_dropShadow_242_4" result="shape"/>
</filter>
<linearGradient id="paint0_linear_242_4" x1="211" y1="40" x2="211" y2="254" gradientUnits="userSpaceOnUse">
<stop stop-color="#AFB9C7" stop-opacity="0"/>
<stop offset="0.502042" stop-color="#AFB9C7"/>
<stop offset="1" stop-color="#AFB9C7" stop-opacity="0"/>
</linearGradient>
<linearGradient id="paint1_linear_242_4" x1="211" y1="0" x2="211" y2="294" gradientUnits="userSpaceOnUse">
<stop stop-color="#AFB9C7" stop-opacity="0"/>
<stop offset="0.502042" stop-color="#AFB9C7"/>
<stop offset="1" stop-color="#AFB9C7" stop-opacity="0"/>
</linearGradient>
<linearGradient id="paint2_linear_242_4" x1="211" y1="80" x2="211" y2="214" gradientUnits="userSpaceOnUse">
<stop stop-color="#AFB9C7" stop-opacity="0"/>
<stop offset="0.502042" stop-color="#AFB9C7"/>
<stop offset="1" stop-color="#AFB9C7" stop-opacity="0"/>
</linearGradient>
</defs>
</svg>
