<svg width="391" height="214" viewBox="0 0 391 214" fill="none" xmlns="http://www.w3.org/2000/svg">
<circle cx="200" cy="107" r="106.5" stroke="url(#paint0_linear_241_3)" stroke-opacity="0.2"/>
<g filter="url(#filter0_d_241_3)">
<rect x="31" y="77" width="103" height="30" rx="5" fill="#F9F9F9"/>
</g>
<g filter="url(#filter1_d_241_3)">
<circle cx="303.5" cy="58.5" r="18.5" fill="white"/>
</g>
<circle cx="69.5" cy="91.5" r="7.5" transform="rotate(-90 69.5 91.5)" fill="#B877F3"/>
<circle cx="46.5" cy="91.5" r="7.5" transform="rotate(-90 46.5 91.5)" fill="#5886F9"/>
<circle cx="92.5" cy="91.5" r="7.5" transform="rotate(-90 92.5 91.5)" fill="#6F63C5"/>
<path d="M311 51.75V54.75C311 54.9489 310.921 55.1397 310.78 55.2803C310.64 55.421 310.449 55.5 310.25 55.5C310.051 55.5 309.86 55.421 309.72 55.2803C309.579 55.1397 309.5 54.9489 309.5 54.75V52.5H304.25V64.5H306.5C306.699 64.5 306.89 64.579 307.03 64.7197C307.171 64.8603 307.25 65.0511 307.25 65.25C307.25 65.4489 307.171 65.6397 307.03 65.7803C306.89 65.921 306.699 66 306.5 66H300.5C300.301 66 300.11 65.921 299.97 65.7803C299.829 65.6397 299.75 65.4489 299.75 65.25C299.75 65.0511 299.829 64.8603 299.97 64.7197C300.11 64.579 300.301 64.5 300.5 64.5H302.75V52.5H297.5V54.75C297.5 54.9489 297.421 55.1397 297.28 55.2803C297.14 55.421 296.949 55.5 296.75 55.5C296.551 55.5 296.36 55.421 296.22 55.2803C296.079 55.1397 296 54.9489 296 54.75V51.75C296 51.5511 296.079 51.3603 296.22 51.2197C296.36 51.079 296.551 51 296.75 51H310.25C310.449 51 310.64 51.079 310.78 51.2197C310.921 51.3603 311 51.5511 311 51.75Z" fill="#E6EDFF"/>
<path d="M220.721 111.347H198.478L204.977 104.559C207.326 105.795 209.915 106.454 212.546 106.486C215.194 106.493 217.792 105.736 220.054 104.299C226.933 99.9494 230.619 89.8818 229.915 77.3669C229.881 76.7741 229.641 76.2147 229.239 75.7948C228.837 75.3749 228.301 75.1239 227.734 75.0893C215.75 74.3533 206.111 78.2028 201.943 85.3871C199.232 90.0665 199.162 95.7182 201.694 101.137L197.521 105.495L193.98 101.797C195.72 97.7839 195.595 93.6193 193.576 90.1423C190.424 84.6935 183.197 81.7889 174.242 82.3371C173.675 82.3724 173.14 82.6233 172.739 83.0425C172.338 83.4617 172.097 84.02 172.064 84.6117C171.536 93.9615 174.32 101.509 179.54 104.805C181.286 105.918 183.294 106.505 185.34 106.501C187.197 106.481 189.028 106.049 190.711 105.232L194.241 108.924L191.92 111.347H178.96C178.345 111.347 177.755 111.602 177.319 112.056C176.884 112.511 176.64 113.127 176.64 113.77C176.64 114.412 176.884 115.029 177.319 115.483C177.755 115.937 178.345 116.193 178.96 116.193H181.741L185.572 134.205C185.796 135.284 186.368 136.25 187.193 136.941C188.017 137.632 189.045 138.006 190.102 138H209.582C210.639 138.005 211.666 137.631 212.49 136.94C213.315 136.249 213.887 135.284 214.112 134.205L217.943 116.193H220.721C221.337 116.193 221.927 115.937 222.362 115.483C222.797 115.029 223.041 114.412 223.041 113.77C223.041 113.127 222.797 112.511 222.362 112.056C221.927 111.602 221.337 111.347 220.721 111.347Z" fill="#AFB9C7" fill-opacity="0.2"/>
<rect x="146.658" y="53.6584" width="106.342" height="106.342" stroke="#AFB9C7" stroke-opacity="0.2" stroke-linecap="round"/>
<path d="M147.779 54.7788L252.32 159.32" stroke="#AFB9C7" stroke-opacity="0.2" stroke-linecap="round"/>
<path d="M252.32 54.7788L147.779 159.32" stroke="#AFB9C7" stroke-opacity="0.2" stroke-linecap="round"/>
<path d="M200.05 54.7788V159.966" stroke="#AFB9C7" stroke-opacity="0.2" stroke-linecap="round"/>
<path d="M147.456 107.372H252.643" stroke="#AFB9C7" stroke-opacity="0.2" stroke-linecap="round"/>
<rect x="154.657" y="61.6567" width="90.3445" height="90.3445" stroke="#AFB9C7" stroke-opacity="0.2" stroke-linecap="round"/>
<rect x="180.47" y="87.4695" width="38.7191" height="38.7191" stroke="#AFB9C7" stroke-opacity="0.2" stroke-linecap="round"/>
<rect x="146.658" y="53.6584" width="106.342" height="106.342" rx="19" stroke="#AFB9C7" stroke-opacity="0.2" stroke-linecap="round"/>
<circle cx="200.049" cy="107.05" r="19.3595" stroke="#AFB9C7" stroke-opacity="0.2" stroke-linecap="round"/>
<circle cx="200.05" cy="107.05" r="28.394" stroke="#AFB9C7" stroke-opacity="0.2" stroke-linecap="round"/>
<circle cx="200.05" cy="107.05" r="45.1722" stroke="#AFB9C7" stroke-opacity="0.2" stroke-linecap="round"/>
<path d="M126.003 86.3094C125.998 85.858 125.902 85.4123 125.721 84.999C125.539 84.5856 125.276 84.2131 124.948 83.9038C123.635 82.6588 121.505 82.7057 120.202 84.0097L118.016 86.2063C117.588 85.8164 117.027 85.6064 116.448 85.6198C115.869 85.6333 115.318 85.8692 114.909 86.2785L114.44 86.7472C114.301 86.8865 114.19 87.052 114.115 87.2341C114.039 87.4162 114 87.6114 114 87.8085C114 88.0056 114.039 88.2008 114.115 88.3829C114.19 88.565 114.301 88.7304 114.44 88.8697L114.628 89.0629L109.846 93.8441C109.386 94.3007 109.053 94.8695 108.88 95.4943C108.707 96.1191 108.7 96.7782 108.859 97.4066L108.109 99.1325C108.005 99.3695 107.974 99.6327 108.022 99.8873C108.07 100.142 108.194 100.376 108.378 100.558C108.591 100.773 108.863 100.918 109.16 100.974C109.456 101.03 109.763 100.995 110.039 100.873L111.682 100.156C112.299 100.296 112.941 100.276 113.549 100.1C114.156 99.9238 114.709 99.5964 115.156 99.1485L119.937 94.3672L120.13 94.5604C120.411 94.8414 120.793 94.9993 121.19 94.9993C121.588 94.9993 121.969 94.8414 122.251 94.5604L122.719 94.0916C123.129 93.6819 123.365 93.1297 123.378 92.5502C123.391 91.9707 123.18 91.4086 122.789 90.981L125.015 88.7432C125.335 88.4249 125.588 88.0453 125.758 87.6271C125.927 87.2089 126.011 86.7607 126.003 86.3094ZM117.941 94.25H111.572L115.697 90.125L118.879 93.3125L117.941 94.25Z" fill="#E6EDFF"/>
<g filter="url(#filter2_d_241_3)">
<rect x="277" y="130" width="83" height="35" rx="8" fill="#F9F9F9"/>
</g>
<circle cx="294.5" cy="147.5" r="9.5" fill="#AFB9C7" fill-opacity="0.2"/>
<circle cx="342.5" cy="147.5" r="9.5" fill="#AFB9C7" fill-opacity="0.2"/>
<circle cx="318.5" cy="147.5" r="9.5" fill="#E6EDFF"/>
<path d="M294.5 145.693C294.034 145.693 293.579 145.828 293.191 146.082C292.803 146.335 292.501 146.695 292.323 147.117C292.145 147.539 292.098 148.003 292.189 148.45C292.28 148.898 292.504 149.309 292.834 149.631C293.163 149.954 293.583 150.174 294.041 150.263C294.498 150.352 294.972 150.306 295.402 150.132C295.833 149.957 296.201 149.661 296.46 149.282C296.719 148.902 296.857 148.456 296.857 148C296.857 147.388 296.608 146.802 296.166 146.369C295.725 145.937 295.125 145.693 294.5 145.693ZM294.5 149.538C294.19 149.538 293.886 149.448 293.627 149.279C293.369 149.11 293.168 148.87 293.049 148.589C292.93 148.308 292.899 147.998 292.959 147.7C293.02 147.402 293.17 147.127 293.389 146.912C293.609 146.697 293.889 146.551 294.194 146.491C294.499 146.432 294.815 146.462 295.102 146.579C295.389 146.695 295.634 146.892 295.807 147.145C295.98 147.398 296.072 147.696 296.072 148C296.072 148.408 295.906 148.799 295.612 149.088C295.317 149.376 294.917 149.538 294.5 149.538ZM299.899 147.001C299.888 146.946 299.865 146.895 299.832 146.85C299.799 146.806 299.757 146.768 299.708 146.741L298.243 145.924L298.237 144.308C298.237 144.252 298.225 144.197 298.201 144.147C298.177 144.096 298.142 144.052 298.098 144.016C297.567 143.576 296.955 143.239 296.295 143.022C296.243 143.005 296.188 142.999 296.134 143.003C296.079 143.008 296.026 143.024 295.978 143.051L294.5 143.859L293.021 143.049C292.974 143.023 292.92 143.007 292.866 143.002C292.811 142.997 292.756 143.003 292.704 143.02C292.044 143.238 291.433 143.577 290.903 144.018C290.859 144.054 290.824 144.098 290.8 144.149C290.776 144.199 290.764 144.254 290.764 144.309L290.756 145.927L289.292 146.744C289.243 146.771 289.2 146.809 289.167 146.853C289.134 146.898 289.111 146.949 289.101 147.004C288.966 147.663 288.966 148.342 289.101 149.001C289.111 149.055 289.134 149.107 289.167 149.151C289.2 149.196 289.243 149.233 289.292 149.261L290.756 150.078L290.762 151.694C290.762 151.75 290.775 151.805 290.799 151.855C290.823 151.905 290.858 151.95 290.901 151.986C291.433 152.426 292.044 152.763 292.704 152.98C292.756 152.997 292.811 153.003 292.866 152.998C292.921 152.994 292.974 152.977 293.021 152.951L294.5 152.141L295.979 152.951C296.038 152.983 296.104 152.999 296.171 152.999C296.214 152.999 296.256 152.992 296.297 152.979C296.956 152.761 297.568 152.423 298.098 151.982C298.142 151.946 298.176 151.902 298.2 151.851C298.224 151.801 298.237 151.746 298.237 151.691L298.245 150.073L299.709 149.256C299.758 149.229 299.801 149.191 299.834 149.147C299.867 149.102 299.889 149.051 299.9 148.996C300.034 148.337 300.033 147.659 299.899 147.001ZM299.162 148.679L297.759 149.46C297.698 149.494 297.647 149.544 297.612 149.604C297.584 149.652 297.554 149.703 297.523 149.751C297.484 149.812 297.464 149.882 297.463 149.953L297.456 151.504C297.079 151.793 296.659 152.025 296.21 152.191L294.795 151.419C294.736 151.387 294.67 151.371 294.603 151.371H294.594C294.534 151.371 294.474 151.371 294.415 151.371C294.345 151.369 294.275 151.386 294.214 151.419L292.798 152.193C292.348 152.028 291.927 151.798 291.548 151.509L291.543 149.961C291.543 149.889 291.522 149.819 291.483 149.758C291.453 149.71 291.423 149.662 291.395 149.611C291.36 149.55 291.309 149.499 291.247 149.464L289.843 148.681C289.77 148.231 289.77 147.773 289.843 147.323L291.243 146.54C291.305 146.506 291.356 146.456 291.391 146.396C291.419 146.348 291.449 146.297 291.48 146.249C291.519 146.188 291.539 146.118 291.54 146.047L291.547 144.496C291.924 144.206 292.344 143.975 292.793 143.809L294.206 144.581C294.267 144.614 294.337 144.631 294.407 144.629C294.467 144.629 294.526 144.629 294.586 144.629C294.656 144.631 294.726 144.614 294.787 144.581L296.203 143.807C296.653 143.972 297.074 144.202 297.453 144.491L297.458 146.039C297.458 146.111 297.479 146.181 297.518 146.242C297.548 146.29 297.578 146.338 297.606 146.389C297.641 146.45 297.692 146.501 297.754 146.536L299.158 147.319C299.232 147.769 299.232 148.228 299.16 148.679H299.162Z" fill="#6A7C92"/>
<path d="M342.5 145.693C342.034 145.693 341.579 145.828 341.191 146.082C340.803 146.335 340.501 146.695 340.323 147.117C340.145 147.539 340.098 148.003 340.189 148.45C340.28 148.898 340.504 149.309 340.834 149.631C341.163 149.954 341.583 150.174 342.041 150.263C342.498 150.352 342.972 150.306 343.402 150.132C343.833 149.957 344.201 149.661 344.46 149.282C344.719 148.902 344.857 148.456 344.857 148C344.857 147.388 344.608 146.802 344.166 146.369C343.725 145.937 343.125 145.693 342.5 145.693ZM342.5 149.538C342.19 149.538 341.886 149.448 341.627 149.279C341.369 149.11 341.168 148.87 341.049 148.589C340.93 148.308 340.899 147.998 340.959 147.7C341.02 147.402 341.17 147.127 341.389 146.912C341.609 146.697 341.889 146.551 342.194 146.491C342.499 146.432 342.815 146.462 343.102 146.579C343.389 146.695 343.634 146.892 343.807 147.145C343.98 147.398 344.072 147.696 344.072 148C344.072 148.408 343.906 148.799 343.612 149.088C343.317 149.376 342.917 149.538 342.5 149.538ZM347.899 147.001C347.888 146.946 347.865 146.895 347.832 146.85C347.799 146.806 347.757 146.768 347.708 146.741L346.243 145.924L346.237 144.308C346.237 144.252 346.225 144.197 346.201 144.147C346.177 144.096 346.142 144.052 346.098 144.016C345.567 143.576 344.955 143.239 344.295 143.022C344.243 143.005 344.188 142.999 344.134 143.003C344.079 143.008 344.026 143.024 343.978 143.051L342.5 143.859L341.021 143.049C340.974 143.023 340.92 143.007 340.866 143.002C340.811 142.997 340.756 143.003 340.704 143.02C340.044 143.238 339.433 143.577 338.903 144.018C338.859 144.054 338.824 144.098 338.8 144.149C338.776 144.199 338.764 144.254 338.764 144.309L338.756 145.927L337.292 146.744C337.243 146.771 337.2 146.809 337.167 146.853C337.134 146.898 337.111 146.949 337.101 147.004C336.966 147.663 336.966 148.342 337.101 149.001C337.111 149.055 337.134 149.107 337.167 149.151C337.2 149.196 337.243 149.233 337.292 149.261L338.756 150.078L338.762 151.694C338.762 151.75 338.775 151.805 338.799 151.855C338.823 151.905 338.858 151.95 338.901 151.986C339.433 152.426 340.044 152.763 340.704 152.98C340.756 152.997 340.811 153.003 340.866 152.998C340.921 152.994 340.974 152.977 341.021 152.951L342.5 152.141L343.979 152.951C344.038 152.983 344.104 152.999 344.171 152.999C344.214 152.999 344.256 152.992 344.297 152.979C344.956 152.761 345.568 152.423 346.098 151.982C346.142 151.946 346.176 151.902 346.2 151.851C346.224 151.801 346.237 151.746 346.237 151.691L346.245 150.073L347.709 149.256C347.758 149.229 347.801 149.191 347.834 149.147C347.867 149.102 347.889 149.051 347.9 148.996C348.034 148.337 348.033 147.659 347.899 147.001ZM347.162 148.679L345.759 149.46C345.698 149.494 345.647 149.544 345.612 149.604C345.584 149.652 345.554 149.703 345.523 149.751C345.484 149.812 345.464 149.882 345.463 149.953L345.456 151.504C345.079 151.793 344.659 152.025 344.21 152.191L342.795 151.419C342.736 151.387 342.67 151.371 342.603 151.371H342.594C342.534 151.371 342.474 151.371 342.415 151.371C342.345 151.369 342.275 151.386 342.214 151.419L340.798 152.193C340.348 152.028 339.927 151.798 339.548 151.509L339.543 149.961C339.543 149.889 339.522 149.819 339.483 149.758C339.453 149.71 339.423 149.662 339.395 149.611C339.36 149.55 339.309 149.499 339.247 149.464L337.843 148.681C337.77 148.231 337.77 147.773 337.843 147.323L339.243 146.54C339.305 146.506 339.356 146.456 339.391 146.396C339.419 146.348 339.449 146.297 339.48 146.249C339.519 146.188 339.539 146.118 339.54 146.047L339.547 144.496C339.924 144.206 340.344 143.975 340.793 143.809L342.206 144.581C342.267 144.614 342.337 144.631 342.407 144.629C342.467 144.629 342.526 144.629 342.586 144.629C342.656 144.631 342.726 144.614 342.787 144.581L344.203 143.807C344.653 143.972 345.074 144.202 345.453 144.491L345.458 146.039C345.458 146.111 345.479 146.181 345.518 146.242C345.548 146.29 345.578 146.338 345.606 146.389C345.641 146.45 345.692 146.501 345.754 146.536L347.158 147.319C347.232 147.769 347.232 148.228 347.16 148.679H347.162Z" fill="#F9F9F9"/>
<path d="M323.899 147C323.888 146.946 323.865 146.895 323.832 146.85C323.799 146.806 323.757 146.768 323.708 146.741L322.243 145.924L322.237 144.308C322.237 144.252 322.225 144.197 322.201 144.147C322.177 144.096 322.142 144.052 322.098 144.016C321.567 143.576 320.955 143.239 320.295 143.022C320.243 143.005 320.188 142.999 320.134 143.003C320.079 143.008 320.026 143.024 319.978 143.05L318.5 143.859L317.021 143.049C316.974 143.023 316.92 143.007 316.866 143.002C316.811 142.997 316.756 143.003 316.704 143.02C316.044 143.238 315.433 143.576 314.903 144.018C314.859 144.053 314.824 144.098 314.8 144.149C314.776 144.199 314.764 144.254 314.764 144.309L314.756 145.927L313.292 146.744C313.243 146.771 313.2 146.808 313.167 146.853C313.134 146.898 313.111 146.949 313.101 147.003C312.966 147.663 312.966 148.342 313.101 149.001C313.111 149.055 313.134 149.106 313.167 149.151C313.2 149.196 313.243 149.233 313.292 149.26L314.756 150.078L314.762 151.694C314.762 151.75 314.775 151.805 314.799 151.855C314.823 151.905 314.858 151.95 314.901 151.986C315.433 152.426 316.044 152.763 316.704 152.98C316.756 152.997 316.811 153.003 316.866 152.998C316.921 152.994 316.974 152.977 317.021 152.951L318.5 152.14L319.979 152.95C320.038 152.982 320.104 152.999 320.171 152.998C320.214 152.998 320.256 152.992 320.297 152.978C320.956 152.761 321.568 152.422 322.098 151.982C322.142 151.946 322.176 151.901 322.2 151.851C322.224 151.801 322.237 151.746 322.237 151.69L322.245 150.073L323.709 149.256C323.758 149.228 323.801 149.191 323.834 149.146C323.867 149.101 323.889 149.05 323.9 148.996C324.034 148.337 324.033 147.659 323.899 147ZM318.5 149.922C318.112 149.922 317.732 149.81 317.409 149.598C317.086 149.387 316.834 149.087 316.686 148.735C316.537 148.384 316.498 147.998 316.574 147.625C316.65 147.252 316.837 146.909 317.112 146.64C317.386 146.371 317.736 146.188 318.117 146.114C318.498 146.04 318.893 146.078 319.252 146.223C319.611 146.369 319.918 146.615 320.134 146.932C320.349 147.248 320.465 147.619 320.465 148C320.465 148.51 320.258 148.999 319.889 149.359C319.521 149.72 319.021 149.922 318.5 149.922Z" fill="#5886F9"/>
<defs>
<filter id="filter0_d_241_3" x="0" y="50" width="165" height="92" filterUnits="userSpaceOnUse" color-interpolation-filters="sRGB">
<feFlood flood-opacity="0" result="BackgroundImageFix"/>
<feColorMatrix in="SourceAlpha" type="matrix" values="0 0 0 0 0 0 0 0 0 0 0 0 0 0 0 0 0 0 127 0" result="hardAlpha"/>
<feMorphology radius="1" operator="dilate" in="SourceAlpha" result="effect1_dropShadow_241_3"/>
<feOffset dy="4"/>
<feGaussianBlur stdDeviation="15"/>
<feComposite in2="hardAlpha" operator="out"/>
<feColorMatrix type="matrix" values="0 0 0 0 0 0 0 0 0 0 0 0 0 0 0 0 0 0 0.1 0"/>
<feBlend mode="normal" in2="BackgroundImageFix" result="effect1_dropShadow_241_3"/>
<feBlend mode="normal" in="SourceGraphic" in2="effect1_dropShadow_241_3" result="shape"/>
</filter>
<filter id="filter1_d_241_3" x="254" y="13" width="99" height="99" filterUnits="userSpaceOnUse" color-interpolation-filters="sRGB">
<feFlood flood-opacity="0" result="BackgroundImageFix"/>
<feColorMatrix in="SourceAlpha" type="matrix" values="0 0 0 0 0 0 0 0 0 0 0 0 0 0 0 0 0 0 127 0" result="hardAlpha"/>
<feMorphology radius="1" operator="dilate" in="SourceAlpha" result="effect1_dropShadow_241_3"/>
<feOffset dy="4"/>
<feGaussianBlur stdDeviation="15"/>
<feComposite in2="hardAlpha" operator="out"/>
<feColorMatrix type="matrix" values="0 0 0 0 0 0 0 0 0 0 0 0 0 0 0 0 0 0 0.1 0"/>
<feBlend mode="normal" in2="BackgroundImageFix" result="effect1_dropShadow_241_3"/>
<feBlend mode="normal" in="SourceGraphic" in2="effect1_dropShadow_241_3" result="shape"/>
</filter>
<filter id="filter2_d_241_3" x="246" y="103" width="145" height="97" filterUnits="userSpaceOnUse" color-interpolation-filters="sRGB">
<feFlood flood-opacity="0" result="BackgroundImageFix"/>
<feColorMatrix in="SourceAlpha" type="matrix" values="0 0 0 0 0 0 0 0 0 0 0 0 0 0 0 0 0 0 127 0" result="hardAlpha"/>
<feMorphology radius="1" operator="dilate" in="SourceAlpha" result="effect1_dropShadow_241_3"/>
<feOffset dy="4"/>
<feGaussianBlur stdDeviation="15"/>
<feComposite in2="hardAlpha" operator="out"/>
<feColorMatrix type="matrix" values="0 0 0 0 0 0 0 0 0 0 0 0 0 0 0 0 0 0 0.1 0"/>
<feBlend mode="normal" in2="BackgroundImageFix" result="effect1_dropShadow_241_3"/>
<feBlend mode="normal" in="SourceGraphic" in2="effect1_dropShadow_241_3" result="shape"/>
</filter>
<linearGradient id="paint0_linear_241_3" x1="200" y1="0" x2="200" y2="214" gradientUnits="userSpaceOnUse">
<stop stop-color="#AFB9C7" stop-opacity="0"/>
<stop offset="0.502042" stop-color="#AFB9C7"/>
<stop offset="1" stop-color="#AFB9C7" stop-opacity="0"/>
</linearGradient>
</defs>
</svg>
