<svg width="140" height="38" viewBox="0 0 140 38" fill="none" xmlns="http://www.w3.org/2000/svg">
<circle cx="18.6142" cy="18.6142" r="18.6142" fill="url(#paint0_linear_21_256)"/>
<path d="M28.4029 20.976C27.6901 18.8692 25.8461 17.3205 23.6333 17.1252H22.6836C21.9068 17.1938 21.1758 17.429 20.5229 17.7964C19.3159 18.4765 18.3769 19.6086 17.914 20.976H15.4311C15.2596 20.976 15.1447 20.7946 15.2144 20.6338L16.7378 17.1252L16.7473 17.1042L17.5787 15.1893L19.1448 11.5818C19.2281 11.3895 19.4945 11.3895 19.5782 11.5818L21.1828 15.2781C21.2661 15.4704 21.5325 15.4704 21.6162 15.2781L23.321 11.3516C23.4133 11.1391 23.4133 10.8966 23.321 10.6841L22.0455 7.74619C21.9663 7.56354 21.7894 7.4457 21.594 7.4457H17.1281C16.9332 7.4457 16.7563 7.56354 16.6767 7.74619L15.1262 11.3175L13.4448 15.1893L12.6138 17.1042L12.6043 17.1252L10.9324 20.976L9.6425 23.9471C9.55016 24.1597 9.55016 24.4021 9.6425 24.6146L11.3477 28.5411C11.431 28.7335 11.6974 28.7335 11.7811 28.5411L13.3221 24.9917C13.3603 24.9042 13.4452 24.8473 13.5388 24.8473H17.914C18.6774 27.1031 20.7375 28.7191 23.1585 28.7191C25.5794 28.7191 27.6396 27.1031 28.4029 24.8473C28.6077 24.2417 28.7193 23.5903 28.7193 22.9114C28.7193 22.2326 28.6077 21.5811 28.4029 20.9755V20.976ZM23.2565 24.8452C22.1362 24.9033 21.2165 23.9602 21.2731 22.8113C21.3215 21.8277 22.1009 21.0281 23.0604 20.9785C24.1808 20.9204 25.1005 21.8635 25.0438 23.0124C24.9954 23.996 24.2161 24.7956 23.2565 24.8452Z" fill="white"/>
<path d="M54.3502 21.3385H48.9018L47.9655 23.9964H45.7378L50.3994 10.9662H52.8709L57.5326 23.9964H55.2865L54.3502 21.3385ZM53.7509 19.5971L51.6359 13.5493L49.5011 19.5971H53.7509Z" fill="#373C4D"/>
<path d="M63.1302 13.9993C63.7544 13.6755 64.4599 13.5128 65.2452 13.5128C66.1435 13.5128 66.9652 13.7353 67.7071 14.1769C68.4494 14.6201 69.0337 15.241 69.457 16.0395C69.8819 16.8381 70.0928 17.7561 70.0928 18.792C70.0928 19.8279 69.8803 20.7542 69.457 21.5726C69.0318 22.3894 68.4494 23.0269 67.7071 23.4818C66.9652 23.9383 66.1435 24.1658 65.2452 24.1658C64.4584 24.1658 63.7594 24.0064 63.1486 23.6876C62.5378 23.3689 62.0379 22.9738 61.651 22.499V28.902H59.5161V13.6805H61.651V15.1979C62.0129 14.7231 62.506 14.3246 63.1302 13.9993ZM67.4832 16.9476C67.1891 16.4296 66.8026 16.0362 66.3226 15.7689C65.8414 15.5 65.3265 15.3672 64.7789 15.3672C64.231 15.3672 63.733 15.505 63.2533 15.7789C62.7717 16.0528 62.3849 16.4529 62.0927 16.9775C61.799 17.5021 61.6529 18.1196 61.6529 18.8302C61.6529 19.5407 61.799 20.1632 62.0927 20.6928C62.3868 21.224 62.7733 21.6258 63.2533 21.8997C63.733 22.1736 64.2425 22.3114 64.7789 22.3114C65.315 22.3114 65.8429 22.1703 66.3226 21.8897C66.8026 21.6092 67.1891 21.2008 67.4832 20.6629C67.7769 20.1267 67.923 19.5025 67.923 18.7903C67.923 18.0782 67.7769 17.4639 67.4832 16.946V16.9476Z" fill="#373C4D"/>
<path d="M75.7406 13.9993C76.3648 13.6755 77.0703 13.5128 77.8555 13.5128C78.7535 13.5128 79.5756 13.7353 80.3175 14.1769C81.0594 14.6201 81.6437 15.241 82.0674 16.0395C82.4922 16.8381 82.7031 17.7561 82.7031 18.792C82.7031 19.8279 82.4907 20.7542 82.0674 21.5726C81.6422 22.3894 81.0594 23.0269 80.3175 23.4818C79.5756 23.9383 78.7535 24.1658 77.8555 24.1658C77.0688 24.1658 76.3698 24.0064 75.759 23.6876C75.1478 23.3689 74.6482 22.9738 74.2614 22.499V28.902H72.1265V13.6805H74.2614V15.1979C74.6233 14.7231 75.1164 14.3246 75.7406 13.9993ZM80.0932 16.9476C79.7995 16.4296 79.4126 16.0362 78.9329 15.7689C78.4514 15.5 77.9368 15.3672 77.3889 15.3672C76.8414 15.3672 76.3433 15.505 75.8633 15.7789C75.3821 16.0528 74.9952 16.4529 74.703 16.9775C74.409 17.5021 74.2629 18.1196 74.2629 18.8302C74.2629 19.5407 74.409 20.1632 74.703 20.6928C74.9967 21.224 75.3836 21.6258 75.8633 21.8997C76.3433 22.1736 76.8529 22.3114 77.3889 22.3114C77.9253 22.3114 78.4533 22.1703 78.9329 21.8897C79.4126 21.6092 79.7995 21.2008 80.0932 20.6629C80.3873 20.1267 80.5333 19.5025 80.5333 18.7903C80.5333 18.0782 80.3873 17.4639 80.0932 16.946V16.9476Z" fill="#373C4D"/>
<path d="M87.9124 23.3547C86.8944 22.7868 86.0892 21.9951 85.4969 20.9773C84.9041 19.9596 84.6069 18.8142 84.6069 17.5426C84.6069 16.2709 84.9041 15.1271 85.4969 14.1161C86.0892 13.1051 86.8944 12.3165 87.9124 11.7471C88.93 11.1793 90.0438 10.8955 91.2539 10.8955C92.4644 10.8955 93.5966 11.1793 94.6142 11.7471C95.6318 12.3148 96.4335 13.1051 97.0194 14.1161C97.6056 15.1271 97.8993 16.2693 97.8993 17.5426C97.8993 18.8159 97.6056 19.9613 97.0194 20.9773C96.4335 21.9951 95.6318 22.7868 94.6142 23.3547C93.5966 23.9225 92.4759 24.2062 91.2539 24.2062C90.0323 24.2062 88.93 23.9225 87.9124 23.3547ZM93.5583 21.7627C94.2323 21.3689 94.7603 20.8079 95.1403 20.0775C95.5206 19.3471 95.7116 18.5021 95.7116 17.5409C95.7116 16.5797 95.5206 15.738 95.1403 15.0142C94.7603 14.2904 94.2323 13.7343 93.5583 13.3474C92.8842 12.9606 92.1174 12.7664 91.2558 12.7664C90.3939 12.7664 89.6271 12.9606 88.953 13.3474C88.279 13.7343 87.7514 14.2904 87.371 15.0142C86.991 15.738 86.8001 16.5813 86.8001 17.5409C86.8001 18.5004 86.991 19.3471 87.371 20.0775C87.7514 20.8079 88.279 21.3689 88.953 21.7627C89.6271 22.1561 90.3939 22.352 91.2558 22.352C92.1174 22.352 92.8842 22.1561 93.5583 21.7627Z" fill="#373C4D"/>
<path d="M109.303 13.7592V24.0751H107.168V22.8582C106.831 23.2834 106.391 23.6169 105.849 23.8593C105.306 24.1031 104.728 24.2247 104.117 24.2247C103.305 24.2247 102.578 24.0552 101.936 23.7182C101.293 23.3811 100.787 22.8815 100.42 22.2209C100.052 21.5599 99.8672 20.7599 99.8672 19.8235V13.7575H101.982V19.5048C101.982 20.4279 102.213 21.1367 102.675 21.6297C103.136 22.1228 103.767 22.3685 104.565 22.3685C105.364 22.3685 105.998 22.1228 106.466 21.6297C106.934 21.1367 107.168 20.4279 107.168 19.5048V13.7575H109.303V13.7592Z" fill="#373C4D"/>
<path d="M114.625 15.5006V21.2114C114.625 21.5983 114.714 21.8755 114.897 22.0449C115.078 22.214 115.387 22.2972 115.823 22.2972H117.133V24.0752H115.448C114.487 24.0752 113.75 23.8509 113.239 23.4011C112.727 22.9513 112.472 22.2209 112.472 21.2114V15.5006H111.255V13.7592H112.472V10.9339H114.625V13.7592H117.133V15.5006H114.625Z" fill="#373C4D"/>
<path d="M121.195 10.8321V24.0751H119.061V10.8321H121.195Z" fill="#373C4D"/>
<path d="M133.223 19.7139H125.341C125.404 20.5374 125.709 21.1997 126.259 21.6979C126.808 22.1975 127.482 22.4464 128.281 22.4464C129.43 22.4464 130.24 21.9667 130.715 21.0055H133.017C132.705 21.9533 132.141 22.7305 131.322 23.3363C130.504 23.9421 129.491 24.2442 128.279 24.2442C127.293 24.2442 126.41 24.0238 125.63 23.5801C124.849 23.1369 124.239 22.5127 123.795 21.7079C123.352 20.9026 123.131 19.9696 123.131 18.9088C123.131 17.848 123.347 16.915 123.777 16.1098C124.207 15.3047 124.813 14.6838 125.593 14.2472C126.374 13.8106 127.268 13.5915 128.279 13.5915C129.29 13.5915 130.12 13.804 130.882 14.2273C131.644 14.6523 132.237 15.2483 132.66 16.0152C133.084 16.7822 133.296 17.6654 133.296 18.6647C133.296 19.0516 133.271 19.4019 133.221 19.7139H133.223ZM131.07 17.9908C131.057 17.2039 130.776 16.5747 130.228 16.0999C129.679 15.6251 128.998 15.3877 128.188 15.3877C127.451 15.3877 126.822 15.6218 126.297 16.0899C125.772 16.5581 125.46 17.1922 125.361 17.9908H131.072H131.07Z" fill="#373C4D"/>
<path d="M137.491 15.5006V21.2114C137.491 21.5983 137.581 21.8755 137.764 22.0449C137.945 22.214 138.253 22.2972 138.69 22.2972H140V24.0752H138.315C137.354 24.0752 136.616 23.8509 136.105 23.4011C135.594 22.9513 135.338 22.2209 135.338 21.2114V15.5006H134.122V13.7592H135.338V10.9339H137.491V13.7592H140V15.5006H137.491Z" fill="#373C4D"/>
<defs>
<linearGradient id="paint0_linear_21_256" x1="18.6142" y1="0" x2="18.6142" y2="37.2285" gradientUnits="userSpaceOnUse">
<stop stop-color="#5886F9"/>
<stop offset="1" stop-color="#6F63C5"/>
</linearGradient>
</defs>
</svg>
