<svg width="1440" height="1024" viewBox="0 0 1440 1024" fill="none" xmlns="http://www.w3.org/2000/svg">
<rect width="1440" height="1024" fill="none"/>
<g clip-path="url(#clip0)">
<path d="M1001.78 241.975H756.495C750.957 241.975 746.468 246.465 746.468 252.003V425.068C746.468 430.605 750.957 435.095 756.495 435.095H1001.78C1007.31 435.095 1011.8 430.605 1011.8 425.068V252.003C1011.8 246.465 1007.31 241.975 1001.78 241.975Z" fill="#FEBB94"/>
<path d="M781.701 276.773H774.438L773.19 280.317H770.22L776.435 262.946H779.729L785.943 280.317H782.949L781.701 276.773ZM780.902 274.452L778.082 266.39L775.237 274.452H780.902ZM787.697 273.379C787.697 271.998 787.98 270.775 788.546 269.71C789.128 268.645 789.91 267.821 790.892 267.239C791.89 266.64 792.996 266.341 794.211 266.341C795.11 266.341 795.991 266.54 796.857 266.94C797.738 267.322 798.437 267.838 798.953 268.487V261.848H801.823V280.317H798.953V278.245C798.487 278.911 797.838 279.46 797.006 279.893C796.191 280.325 795.251 280.541 794.186 280.541C792.988 280.541 791.89 280.242 790.892 279.643C789.91 279.027 789.128 278.179 788.546 277.097C787.98 275.999 787.697 274.76 787.697 273.379ZM798.953 273.429C798.953 272.48 798.753 271.657 798.354 270.958C797.971 270.259 797.464 269.726 796.832 269.36C796.199 268.994 795.517 268.811 794.785 268.811C794.053 268.811 793.371 268.994 792.739 269.36C792.106 269.71 791.591 270.234 791.191 270.933C790.809 271.615 790.617 272.43 790.617 273.379C790.617 274.327 790.809 275.159 791.191 275.874C791.591 276.59 792.106 277.139 792.739 277.522C793.387 277.888 794.07 278.071 794.785 278.071C795.517 278.071 796.199 277.888 796.832 277.522C797.464 277.156 797.971 276.623 798.354 275.924C798.753 275.209 798.953 274.377 798.953 273.429ZM810.552 280.541C809.47 280.541 808.497 280.35 807.632 279.967C806.783 279.568 806.109 279.036 805.61 278.37C805.111 277.688 804.845 276.931 804.811 276.099H807.756C807.806 276.681 808.081 277.172 808.58 277.571C809.096 277.954 809.736 278.146 810.502 278.146C811.3 278.146 811.916 277.996 812.349 277.696C812.798 277.38 813.022 276.981 813.022 276.498C813.022 275.983 812.773 275.6 812.274 275.35C811.791 275.101 811.018 274.826 809.953 274.527C808.921 274.244 808.081 273.969 807.432 273.703C806.783 273.437 806.217 273.029 805.735 272.48C805.269 271.931 805.036 271.207 805.036 270.309C805.036 269.577 805.252 268.911 805.685 268.312C806.118 267.697 806.733 267.214 807.532 266.865C808.347 266.515 809.279 266.341 810.327 266.341C811.891 266.341 813.147 266.74 814.096 267.539C815.061 268.321 815.576 269.394 815.643 270.758H812.798C812.748 270.142 812.498 269.652 812.049 269.286C811.6 268.92 810.993 268.736 810.227 268.736C809.479 268.736 808.904 268.878 808.505 269.161C808.106 269.444 807.906 269.818 807.906 270.284C807.906 270.65 808.039 270.958 808.305 271.207C808.572 271.457 808.896 271.657 809.279 271.806C809.662 271.939 810.227 272.114 810.976 272.33C811.974 272.597 812.79 272.871 813.422 273.154C814.071 273.42 814.628 273.82 815.094 274.352C815.56 274.884 815.801 275.592 815.818 276.473C815.818 277.255 815.601 277.954 815.169 278.57C814.736 279.185 814.121 279.668 813.322 280.017C812.54 280.367 811.617 280.541 810.552 280.541Z" fill="white"/>
<path d="M929.665 350.122C929.665 360.116 926.701 369.885 921.149 378.195C915.597 386.504 907.705 392.981 898.472 396.805C889.239 400.63 879.079 401.63 869.277 399.681C859.476 397.731 850.472 392.919 843.405 385.852C836.339 378.785 831.526 369.782 829.576 359.98C827.627 350.178 828.627 340.018 832.452 330.785C836.276 321.552 842.753 313.66 851.062 308.108C859.372 302.556 869.141 299.592 879.135 299.592" stroke="white" stroke-width="17.1948" stroke-miterlimit="10"/>
<path d="M888.547 289.93C901.948 289.93 914.801 295.254 924.277 304.73C933.753 314.206 939.077 327.059 939.077 340.46" stroke="#1C85E8" stroke-width="17.1948" stroke-miterlimit="10"/>
<path d="M769.744 398.699H799.32" stroke="white" stroke-width="6.72632" stroke-miterlimit="10" stroke-linecap="round"/>
<path opacity="0.4" d="M769.744 415.257H830.865" stroke="white" stroke-width="6.72632" stroke-miterlimit="10" stroke-linecap="round"/>
<path d="M939.077 398.866H968.653" stroke="white" stroke-width="6.72632" stroke-miterlimit="10" stroke-linecap="round"/>
<path opacity="0.4" d="M939.077 415.424H1000.2" stroke="white" stroke-width="6.72632" stroke-miterlimit="10" stroke-linecap="round"/>
<path d="M310.236 225.879H666.306C675.763 225.879 684.833 229.636 691.52 236.323C698.207 243.01 701.964 252.08 701.964 261.537V282.879H274.578V261.537C274.578 252.08 278.335 243.01 285.022 236.323C291.709 229.636 300.779 225.879 310.236 225.879Z" fill="#1C85E8"/>
<path d="M274.578 282.879H701.964V685.959C701.964 693.472 698.98 700.677 693.668 705.989C688.355 711.301 681.15 714.286 673.637 714.286H302.905C295.392 714.286 288.187 711.301 282.875 705.989C277.562 700.677 274.578 693.472 274.578 685.959V282.879H274.578Z" fill="url(#paint0_linear)"/>
<path opacity="0.6" d="M492.526 637.444C574.367 637.444 640.713 571.099 640.713 489.257C640.713 407.416 574.367 341.07 492.526 341.07C410.684 341.07 344.339 407.416 344.339 489.257C344.339 571.099 410.684 637.444 492.526 637.444Z" stroke="white" stroke-width="30" stroke-miterlimit="10"/>
<path d="M314.05 264.541C318.881 264.541 322.797 260.625 322.797 255.794C322.797 250.964 318.881 247.048 314.05 247.048C309.219 247.048 305.303 250.964 305.303 255.794C305.303 260.625 309.219 264.541 314.05 264.541Z" fill="white"/>
<path d="M349.378 264.541C354.209 264.541 358.125 260.625 358.125 255.794C358.125 250.964 354.209 247.048 349.378 247.048C344.547 247.048 340.631 250.964 340.631 255.794C340.631 260.625 344.547 264.541 349.378 264.541Z" fill="white"/>
<path d="M382.572 264.541C387.402 264.541 391.318 260.625 391.318 255.794C391.318 250.964 387.402 247.048 382.572 247.048C377.741 247.048 373.825 250.964 373.825 255.794C373.825 260.625 377.741 264.541 382.572 264.541Z" fill="white"/>
<path d="M782.127 464.682H1138.2C1147.65 464.682 1156.72 468.439 1163.41 475.126C1170.1 481.813 1173.85 490.883 1173.85 500.34V521.682H746.468V500.34C746.468 490.883 750.225 481.813 756.912 475.126C763.6 468.439 772.669 464.682 782.127 464.682Z" fill="#1C85E8"/>
<path d="M746.468 521.682H1173.85V924.762C1173.85 932.275 1170.87 939.48 1165.56 944.792C1160.25 950.104 1153.04 953.089 1145.53 953.089H774.795C767.283 953.089 760.077 950.104 754.765 944.792C749.453 939.48 746.468 932.275 746.468 924.762V521.682Z" fill="url(#paint1_linear)"/>
<path opacity="0.6" d="M982.365 885.572C1064.21 885.572 1130.55 819.227 1130.55 737.385C1130.55 655.544 1064.21 589.198 982.365 589.198C900.524 589.198 834.178 655.544 834.178 737.385C834.178 819.227 900.524 885.572 982.365 885.572Z" stroke="white" stroke-width="30" stroke-miterlimit="10"/>
<path d="M785.94 503.344C790.771 503.344 794.687 499.428 794.687 494.597C794.687 489.767 790.771 485.851 785.94 485.851C781.11 485.851 777.194 489.767 777.194 494.597C777.194 499.428 781.11 503.344 785.94 503.344Z" fill="white"/>
<path d="M821.269 503.344C826.099 503.344 830.015 499.428 830.015 494.597C830.015 489.767 826.099 485.851 821.269 485.851C816.438 485.851 812.522 489.767 812.522 494.597C812.522 499.428 816.438 503.344 821.269 503.344Z" fill="white"/>
<path d="M854.462 503.344C859.293 503.344 863.209 499.428 863.209 494.597C863.209 489.767 859.293 485.851 854.462 485.851C849.632 485.851 845.716 489.767 845.716 494.597C845.716 499.428 849.632 503.344 854.462 503.344Z" fill="white"/>
<path d="M917.006 774.678L895.931 953.188H980.606L1028.93 775.738L917.006 774.678Z" fill="#1F2D49"/>
<path d="M983.263 943.431L973.304 888.63L993.047 828.798H1023.64L983.263 943.431Z" fill="#0D1B33"/>
<path d="M1073.86 775.738C1073.26 786.452 1073.26 797.191 1073.86 807.904C1076.33 842.534 1069.27 939.882 1069.33 953.188H994.147C993.832 934.754 989.151 776.496 989.151 776.496L1073.86 775.738Z" fill="#1F2D49"/>
<path d="M915.402 787.471L1073.86 807.904V775.738L917.006 774.678L915.402 787.471Z" fill="#0D1B33"/>
<path d="M945.436 593.635C949.859 571.801 939.459 572.363 935.997 568.892C935.997 568.892 923.012 558.184 913.117 568.165C902.644 578.724 842.608 660.741 842.608 660.741L880.173 695.29L887.233 686.864L905.524 665.05L925.087 641.735L927.517 639.081L953.908 609.19C953.908 609.19 942.936 605.129 945.436 593.635Z" fill="#FEBB94"/>
<path d="M961.147 597.355C966.211 582.237 958.06 565.876 942.941 560.812C927.823 555.749 911.462 563.899 906.399 579.018C901.335 594.136 909.486 610.497 924.604 615.561C939.722 620.624 956.083 612.473 961.147 597.355Z" fill="#FEBB94"/>
<path d="M927.171 638.965C927.928 634.402 929.444 625.275 931.073 616.957L939.741 576.697C939.741 576.697 916.463 611.1 905.74 635.063C897.798 653.021 888.585 671.323 887.061 686.806L905.35 664.992L924.913 641.677L927.171 638.965Z" fill="#FF967C"/>
<path d="M851.733 554.427C849.778 535.963 854.802 535.068 854.871 525.057C854.906 515.275 869.678 497.164 862.632 497.53C855.587 497.896 850.64 504.629 850.64 504.629C849.595 495.853 851.36 481.249 842.38 475.738C833.399 470.228 831.285 472.895 823.972 475.087C804.45 481.082 815.347 506.915 815.547 515.101C815.724 520.254 824.786 539.526 825.197 543.082L828.083 556.788L851.733 554.427Z" fill="#FFCCB3"/>
<path d="M840.607 501.527L837.937 475.024L840.607 501.527Z" fill="#E56441"/>
<path d="M840.607 501.527L837.937 475.024" stroke="#E56441" stroke-width="1.20133" stroke-linecap="round"/>
<path d="M831.475 501.821L827.132 476.362L831.475 501.821Z" fill="#E56441"/>
<path d="M831.475 501.821L827.132 476.362" stroke="#E56441" stroke-width="1.20133" stroke-linecap="round"/>
<path d="M820.746 501.88L818.551 486.644L820.746 501.88Z" fill="#E56441"/>
<path d="M820.746 501.88L818.551 486.644" stroke="#E56441" stroke-width="1.20133" stroke-linecap="round"/>
<path d="M835.545 521.76C838.735 514.304 847.011 507.127 847.011 507.127L835.545 521.76Z" fill="#E56441"/>
<path d="M835.545 521.76C838.735 514.304 847.011 507.127 847.011 507.127" stroke="#E56441" stroke-width="1.20133" stroke-linecap="round"/>
<path d="M885.937 668.103L854.7 544.787C854.481 544.047 853.997 543.415 853.34 543.012C852.683 542.609 851.9 542.463 851.142 542.603L827.586 547.093C826.46 547.32 825.46 547.958 824.778 548.882C824.097 549.806 823.783 550.95 823.898 552.092L836.876 680.304L885.937 668.103Z" fill="#FEBB94"/>
<path d="M862.108 702.564C876.235 702.564 887.688 691.111 887.688 676.984C887.688 662.856 876.235 651.404 862.108 651.404C847.98 651.404 836.528 662.856 836.528 676.984C836.528 691.111 847.98 702.564 862.108 702.564Z" fill="#FEBB94"/>
<path d="M965.37 548.002C965.37 548.002 936.128 556.63 928.769 559.708C921.411 562.786 920.92 575.099 920.43 583.82C920.086 589.93 918.93 682.363 919.384 740.476C919.481 752.891 917.166 760.768 915.679 767.668C915.271 769.507 915.05 771.382 915.02 773.265C915.01 773.926 915.131 774.583 915.376 775.198C915.621 775.813 915.985 776.373 916.447 776.847C916.909 777.321 917.46 777.699 918.069 777.959C918.677 778.22 919.331 778.357 919.992 778.365L1069.7 779.764C1069.7 779.764 1076.34 780.729 1074.74 773.154C1073.15 764.869 1072.28 756.463 1072.14 748.029C1070.64 687.671 1070.36 586.587 1069.71 581.802C1068.73 574.62 1076.44 568.435 1068.08 564.819L1027.71 550.133L965.37 548.002Z" fill="#FEBB94"/>
<path d="M1040.15 614.722C1040.15 614.722 1042.42 698.383 1041.94 726.269C1041.65 743.646 1021.78 751.006 1021.72 761.068C1021.69 767.02 1037.78 763.317 1044.88 761.003C1060.85 755.8 1071.36 762.868 1071.36 762.868L1067.1 610.416L1040.15 614.722Z" fill="#FF967C"/>
<path d="M972.128 518.435L981.054 565.062L984.208 568.399C984.208 568.399 982.959 569.893 986.546 566.296C995.004 557.816 1017.28 547.481 1016.36 544.151C1015.04 539.379 1011.21 509.656 1011.21 509.656L972.128 518.435Z" fill="#FFCCB3"/>
<path d="M971.763 521.533H995.282L969.448 561.661L971.763 521.533Z" fill="#FF967C"/>
<path d="M1039.87 501.232C1046.74 484.211 1025.75 482.052 1022.12 481.828C1018.49 481.603 1020.92 454.066 1020.92 454.066C1020.92 454.066 983.825 435.379 973.349 439.832C973.349 439.832 958.31 470.962 951.202 491.653C944.095 512.343 947.166 523.478 954.63 526.49C964.529 531.488 977.533 533.076 986.83 530.777C1003.39 526.683 1013.9 513.465 1013.9 513.465C1014.18 513.425 1014.34 513.406 1014.34 513.406C1014.34 513.406 1033.39 517.307 1039.87 501.232Z" fill="#FFCCB3"/>
<path d="M1029.9 516.19C1043.29 506.845 1054.55 496.397 1056.68 483.137C1060.98 456.419 1045.99 449.961 1045.99 449.961C1055.96 431.029 1033.22 420.802 1021.49 416.985C982.722 404.369 959.084 418.059 957.433 433.062C956.733 439.345 957.742 445.233 960.927 450.062C960.819 454.693 961.298 459.318 962.354 463.828L968.763 451.968C970.018 453.578 971.665 454.839 973.548 455.629C994.606 465.663 1016.21 454.54 1016.21 454.54C1007.79 464.271 1007.73 485.815 1008.27 490.315C1009.05 496.803 1013.06 492.063 1013.06 492.063C1017.01 485.685 1031.69 481.033 1035.53 494.262C1038.53 504.571 1011.49 514.716 1011.49 514.716L1014.2 530.778C1019.24 531.81 1018.49 526.483 1019.83 528.261C1021.17 530.04 1024.01 531.184 1024.56 525.728C1025.11 520.273 1029.91 516.184 1029.91 516.184L1029.9 516.19Z" fill="#BC775C"/>
<path d="M987.955 485.662C989.167 483.319 988.905 480.777 987.37 479.983C985.836 479.19 983.61 480.445 982.398 482.787C981.187 485.129 981.449 487.671 982.983 488.465C984.518 489.259 986.744 488.004 987.955 485.662Z" fill="#080B09"/>
<path d="M966.882 474.589C968.093 472.247 967.831 469.705 966.297 468.911C964.762 468.117 962.536 469.373 961.324 471.715C960.113 474.057 960.375 476.599 961.909 477.393C963.444 478.186 965.67 476.931 966.882 474.589Z" fill="#080B09"/>
<path d="M969.542 482.386C969.542 482.386 970.887 488.498 966.84 487.499C963.01 486.413 960.163 488.068 963.165 492.379" stroke="#E56441" stroke-width="1.20133" stroke-linecap="round"/>
<path d="M962.45 497.446L962.465 497.453L962.48 497.458C964.82 498.27 969.492 499.892 972.583 501.022L972.583 501.022L972.588 501.024C972.688 501.06 972.777 501.122 972.844 501.204C972.912 501.287 972.955 501.386 972.97 501.492C972.985 501.597 972.97 501.705 972.928 501.803C972.888 501.897 972.823 501.98 972.74 502.041C971.835 502.622 970.67 503.291 969.435 503.806C968.189 504.327 966.909 504.674 965.773 504.644C964.657 504.615 963.695 504.225 962.997 503.273C962.281 502.295 961.793 500.658 961.808 498.032L961.809 497.992L961.802 497.952C961.79 497.87 961.799 497.785 961.83 497.707C961.861 497.629 961.912 497.561 961.978 497.509C962.044 497.458 962.122 497.425 962.205 497.414C962.288 497.403 962.373 497.414 962.45 497.446Z" fill="#E56441" stroke="#E56441"/>
<path d="M997.972 479.562L997.628 479.952C997.176 480.566 996.499 480.975 995.747 481.092C994.994 481.208 994.226 481.023 993.609 480.575L983.221 472.599C982.702 472.234 982.339 471.687 982.204 471.067C982.069 470.447 982.173 469.799 982.493 469.252C982.673 468.907 982.925 468.605 983.231 468.364C983.537 468.124 983.89 467.951 984.268 467.858C984.645 467.764 985.038 467.752 985.421 467.822C985.804 467.891 986.167 468.041 986.488 468.262L997.221 475.847C997.519 476.037 997.776 476.286 997.976 476.577C998.176 476.869 998.315 477.198 998.385 477.545C998.455 477.892 998.455 478.249 998.384 478.595C998.313 478.942 998.173 479.271 997.972 479.562Z" fill="#080B09"/>
<path d="M961.456 458.093L974.35 460.639C974.731 460.719 975.09 460.879 975.404 461.108C975.718 461.338 975.981 461.631 976.173 461.969C976.366 462.307 976.484 462.682 976.521 463.069C976.558 463.456 976.512 463.847 976.387 464.215C976.211 464.825 975.813 465.346 975.271 465.676C974.729 466.006 974.083 466.12 973.46 465.996L960.521 463.969C959.772 463.831 959.108 463.403 958.673 462.777C958.239 462.151 958.069 461.379 958.202 460.629L958.247 460.11C958.32 459.764 958.461 459.436 958.663 459.146C958.866 458.855 959.124 458.609 959.423 458.42C959.723 458.232 960.057 458.106 960.407 458.05C960.756 457.994 961.113 458.008 961.456 458.093Z" fill="#080B09"/>
<path d="M1024.54 618.766L928.847 627.054C925.874 627.312 923.672 629.931 923.93 632.904L934.344 753.144C934.601 756.117 937.22 758.319 940.193 758.061L1035.88 749.773C1038.86 749.516 1041.06 746.897 1040.8 743.924L1030.39 623.683C1030.13 620.71 1027.51 618.509 1024.54 618.766Z" fill="#1C85E8"/>
<path d="M938.84 641.08L978.3 637.663" stroke="white" stroke-width="5.04786" stroke-miterlimit="10" stroke-linecap="round"/>
<path d="M940.359 655.296L958.346 653.738" stroke="white" stroke-width="5.04786" stroke-miterlimit="10" stroke-linecap="round"/>
<path d="M1070.4 588.352C1055.67 569.908 1049.05 578.741 1043.87 579.192C1043.87 579.192 1026.34 582.459 1027.72 597.287C1029.18 612.978 1054.98 717.54 1054.98 717.54L1109.12 713.471L1106.55 699.052L1101.27 669.355L1095.64 637.603L1095.13 633.823L1088.8 592.05C1088.8 592.05 1078.03 598.202 1070.4 588.352Z" fill="#FEBB94"/>
<path d="M1074.04 620.191C1088.44 611.352 1092.94 592.516 1084.11 578.119C1075.27 563.722 1056.43 559.216 1042.03 568.055C1027.64 576.893 1023.13 595.73 1031.97 610.127C1040.81 624.524 1059.64 629.03 1074.04 620.191Z" fill="#FEBB94"/>
<path d="M944.434 721.881L910.293 724.421L902.223 743.456L904.981 766.954C904.981 766.954 910.856 764.56 911.464 756.248C912.072 747.936 939.25 753.833 946.355 744.703" fill="#FFCCB3"/>
<path d="M1074.66 691.091L942.205 716.06C941.409 716.243 940.709 716.714 940.24 717.382C939.771 718.051 939.565 718.869 939.664 719.68L942.87 744.886C943.037 746.091 943.646 747.191 944.579 747.972C945.511 748.753 946.701 749.16 947.917 749.112L1084.36 743.775L1074.66 691.091Z" fill="#FEBB94"/>
<path d="M1082.5 743.978C1097.47 743.978 1109.6 731.843 1109.6 716.874C1109.6 701.905 1097.47 689.77 1082.5 689.77C1067.53 689.77 1055.39 701.905 1055.39 716.874C1055.39 731.843 1067.53 743.978 1082.5 743.978Z" fill="#FEBB94"/>
<path d="M539.114 491.147L585.193 685.728L588.513 714.286H509.94L457.992 588.628L467.588 494.474L539.114 491.147Z" fill="#1F2D49"/>
<path d="M490.334 666.86L501.697 570.722L505.457 703.44L490.334 666.86Z" fill="#0D1B33"/>
<path d="M414.736 490.54C414.736 490.54 393.25 526.632 392.968 556.857C392.545 602.221 389.311 714.286 389.311 714.286H484.11L501.697 570.722L476.296 490.54H414.736Z" fill="#1F2D49"/>
<path d="M539.114 491.147L413.996 492.433L401.837 517.595L541.228 500.076L539.114 491.147Z" fill="#0D1B33"/>
<path d="M683.421 290.462L690.082 276.499C691.411 273.281 693.495 270.43 696.159 268.187C700.226 264.883 706.294 259.055 707.786 254.242C710.32 246.557 722.178 224.689 705.208 213.494C698.93 209.367 700.483 210.328 690.298 212.751C680.113 215.173 680.895 226.125 677.326 234.199C677.326 234.199 674.404 226.446 667.948 224.039C661.491 221.632 670.191 243.146 667.724 252.577C665.258 262.007 669.477 264.431 662.484 281.588L683.421 290.462Z" fill="#FFCCB3"/>
<path d="M692.123 213.628L687.995 234.311L692.123 213.628Z" fill="#E56441"/>
<path d="M692.123 213.628L687.995 234.311" stroke="#E56441" stroke-width="1.20536" stroke-linecap="round"/>
<path d="M703.698 214.578L696.636 237.192L703.698 214.578Z" fill="#E56441"/>
<path d="M703.698 214.578L696.636 237.192" stroke="#E56441" stroke-width="1.20536" stroke-linecap="round"/>
<path d="M713.415 226.264L707 240.252L713.415 226.264Z" fill="#E56441"/>
<path d="M713.415 226.264L707 240.252" stroke="#E56441" stroke-width="1.20536" stroke-linecap="round"/>
<path d="M680.41 237.995C680.41 237.995 686.154 247.283 687.305 255.35L680.41 237.995Z" fill="#E56441"/>
<path d="M680.41 237.995C680.41 237.995 686.154 247.283 687.305 255.35" stroke="#E56441" stroke-width="1.20536" stroke-linecap="round"/>
<path d="M504.196 309.766C514.307 307.553 529.521 306.301 536.672 310.918L607.873 360.137L663.451 269.303L688.33 283.067L637.188 397.395C629.669 416.88 610.924 416.588 599.47 409.943L562.318 391.783L504.196 309.766Z" fill="#5661AE"/>
<path d="M549.415 357.027C549.415 357.027 549.275 351.17 563.087 373.739L599.47 409.943L562.319 391.783C528.352 378.134 538.978 362.432 549.415 357.027Z" fill="#465393"/>
<path d="M503.452 296.16C503.452 296.16 528.675 306.14 532.526 309.221C536.377 312.301 540.034 337.444 546.58 349.382C553.127 361.32 562.705 383.354 548.716 403.593C534.727 423.832 536.215 439.905 536.215 439.905L539.192 490.675L418.638 492.897C417.577 492.93 416.52 492.738 415.538 492.332C414.557 491.927 413.672 491.318 412.944 490.545C412.215 489.772 411.659 488.854 411.312 487.85C410.964 486.846 410.834 485.78 410.93 484.722C412.269 469.92 418.388 449.132 418.869 425.562C419.521 393.618 420.009 286.881 420.009 286.881L472.525 285.233C483.103 287.057 503.452 296.16 503.452 296.16Z" fill="#5661AE"/>
<path d="M547.902 404.795C547.902 404.795 531.457 408.331 517.807 409.041C504.156 409.751 511.251 420.381 523.786 421.687C536.32 422.994 538.749 423.888 538.749 423.888C541.02 417.178 544.093 410.767 547.902 404.795Z" fill="#465393"/>
<path d="M416.888 448.084L412.667 472.557C412.667 472.557 415.451 479.857 428.438 484.335C441.425 488.812 453.069 487.468 460.681 478.959C468.294 470.45 494.819 431.153 494.819 431.153L416.888 448.084Z" fill="#465393"/>
<path d="M440.677 330.513C440.677 330.513 458.246 346.532 459.28 358.416C460.313 370.301 462.703 403.439 485.281 406.744C512.956 410.795 520.2 414.74 507.371 417.84C494.542 420.941 465.425 415.917 465.425 429.208C465.425 438.667 454.112 445.744 448.428 440.576C442.744 435.409 397.471 356.866 440.677 330.513Z" fill="#465393"/>
<path d="M557.521 307.505L543.816 337.134L568.624 347.742L583.439 314.103L557.521 307.505Z" fill="#96BAFD"/>
<path d="M553.035 322.229L578.19 326.642L575.022 332.58L553.035 324.914V322.229Z" fill="#96BAFD"/>
<path d="M567.095 275.285L567.095 275.285C560.503 272.775 553.125 276.084 550.616 282.675L548.373 288.567C545.863 295.158 549.172 302.536 555.764 305.045L555.764 305.045C562.355 307.555 569.733 304.246 572.243 297.655L574.485 291.763C576.995 285.172 573.686 277.794 567.095 275.285Z" fill="#1C85E8"/>
<path d="M597.617 278.63C632.619 293.118 668.212 280.855 668.212 280.855L633.722 371.143C633.722 371.143 610.79 334.252 580.783 322.846C569.726 318.644 597.617 278.63 597.617 278.63Z" fill="#96BAFD"/>
<path d="M663.158 330.71C672.747 305.526 675.737 283.289 669.836 281.042C663.936 278.796 651.38 297.391 641.792 322.575C632.204 347.759 629.214 369.996 635.114 372.242C641.014 374.489 653.57 355.894 663.158 330.71Z" fill="white"/>
<path d="M663.161 330.707C672.749 305.523 676.429 283.549 671.38 281.627C666.33 279.704 654.464 298.562 644.876 323.746C635.288 348.93 631.608 370.904 636.657 372.827C641.706 374.749 653.572 355.892 663.161 330.707Z" fill="#1C85E8"/>
<path d="M578.511 271.356L602.671 280.554L585.837 324.771L561.677 315.572C560.192 315.007 558.834 314.155 557.679 313.065C556.524 311.975 555.594 310.667 554.944 309.218C554.294 307.769 553.936 306.206 553.89 304.618C553.844 303.03 554.112 301.449 554.677 299.965L562.904 278.356C563.469 276.872 564.321 275.513 565.411 274.358C566.501 273.203 567.809 272.273 569.258 271.623C570.707 270.973 572.27 270.615 573.858 270.569C575.446 270.523 577.027 270.791 578.511 271.356Z" fill="url(#paint2_linear)"/>
<path d="M584.774 283.323L572.57 278.676C571.533 278.281 570.371 278.802 569.976 279.84C569.581 280.878 570.102 282.039 571.14 282.434L583.344 287.081C584.381 287.476 585.543 286.955 585.938 285.917C586.333 284.879 585.812 283.718 584.774 283.323Z" fill="white"/>
<path d="M580.715 291.678L568.511 287.031C567.473 286.636 566.312 287.157 565.916 288.195C565.521 289.233 566.042 290.394 567.08 290.789L579.284 295.436C580.322 295.831 581.483 295.31 581.878 294.272C582.273 293.234 581.752 292.073 580.715 291.678Z" fill="white"/>
<path d="M649.529 312.411L651.023 313.032C653.26 313.962 655.052 315.717 656.029 317.934C657.006 320.151 657.092 322.658 656.269 324.936C655.827 326.158 655.138 327.276 654.244 328.219C653.35 329.162 652.271 329.909 651.074 330.415C649.877 330.921 648.588 331.174 647.289 331.158C645.99 331.142 644.708 330.857 643.524 330.322L642.625 329.916C642.625 329.916 645.284 319.689 649.529 312.411Z" fill="url(#paint3_linear)"/>
<path d="M525.448 359.033L537.03 345.975C537.03 345.975 535.978 334.392 537.03 329.969C538.083 325.547 538.082 323.651 541.031 321.334C543.979 319.018 553.035 314.384 553.035 314.384V324.914L580.331 332.391C580.331 332.391 584.322 338.731 578.19 342.195C581.607 347.344 577.396 351.632 577.396 351.632C577.396 351.632 579.56 357.52 574.192 358.646C574.192 358.646 575.145 363.061 569.337 364.928C569.337 364.928 567.612 367.824 560.686 368.69C558.779 368.928 553.036 369.446 553.036 369.446L542.086 380.303L525.448 359.033Z" fill="#FFCCB3"/>
<path d="M528.302 355.816L548.531 373.913L550.809 371.655L529.663 354.281L528.302 355.816Z" fill="#FCBA9F"/>
<path d="M577.646 342.206C577.646 342.206 571.604 341.65 568.747 340.622L577.646 342.206Z" fill="#E56441"/>
<path d="M577.646 342.206C577.646 342.206 571.604 341.65 568.747 340.622" stroke="#E56441" stroke-width="1.20536" stroke-linecap="round"/>
<path d="M576.522 351.452C576.522 351.452 570.479 350.896 567.623 349.868L576.522 351.452Z" fill="#E56441"/>
<path d="M576.522 351.452C576.522 351.452 570.479 350.896 567.623 349.868" stroke="#E56441" stroke-width="1.20536" stroke-linecap="round"/>
<path d="M574.147 358.483C574.147 358.483 568.104 357.927 565.248 356.899L574.147 358.483Z" fill="#E56441"/>
<path d="M574.147 358.483C574.147 358.483 568.104 357.927 565.248 356.899" stroke="#E56441" stroke-width="1.20536" stroke-linecap="round"/>
<path d="M568.747 364.885C568.747 364.885 562.705 364.329 559.848 363.301L568.747 364.885Z" fill="#E56441"/>
<path d="M568.747 364.885C568.747 364.885 562.705 364.329 559.848 363.301" stroke="#E56441" stroke-width="1.20536" stroke-linecap="round"/>
<path d="M446.655 311.874C446.655 311.874 441.391 282.27 417.708 286.668C401.83 289.617 395.61 298.476 397.906 322.092C399.51 338.603 411.477 412.238 415.78 442.319C420.196 473.192 447.672 478.638 466.218 463.285L552.27 377.257L525.789 353.569L459.249 408.302L446.655 311.874Z" fill="#5661AE"/>
<path fill-rule="evenodd" clip-rule="evenodd" d="M529.657 307.505L505.635 297.033C501.327 318.316 503.169 313.818 500.201 315.42C500.201 315.42 474.857 316.386 468.326 285.464L440.504 286.387C440.504 286.387 432.699 307.667 465.867 317.998C460.65 330.468 478.996 351.799 502.424 327.766C518.659 351.967 529.57 329.393 521.731 320.631C533.449 313.809 529.657 307.505 529.657 307.505Z" fill="white"/>
<path d="M506.645 269.566L505.227 309.252C505.227 309.252 507.168 317.943 498.249 316.978C489.33 316.014 477.323 308.991 470.573 301.277C463.824 293.564 464.284 292.945 467.176 287.883C470.069 282.821 483.651 244.24 483.651 244.24L506.645 269.566Z" fill="#FFCCB3"/>
<path d="M506.442 272.894L489.997 262.421C489.997 262.421 497.283 294.402 505.227 309.252L506.442 272.894Z" fill="#FCBA9F"/>
<path d="M488.068 164.721C488.52 157.098 486.858 149.499 483.264 142.762C477.317 132.011 464.965 117.142 446.208 123.547C427.451 129.952 413.727 144.363 420.818 164.721C427.909 185.079 447.608 191.594 457.645 189.425C467.682 187.256 488.068 164.721 488.068 164.721Z" fill="#493212"/>
<path d="M494.109 167.552C493.029 165.73 491.412 164.287 489.48 163.42C487.548 162.553 485.395 162.305 483.316 162.709C475.894 164.077 468.082 169.936 461.441 176.968C454.8 183.999 455.016 189.102 458.033 192.215C461.05 195.327 494.109 167.552 494.109 167.552Z" fill="#1C85E8"/>
<path d="M549.343 214.072C549.343 214.072 545.385 252.309 526.781 269.72C514.648 281.075 503.523 278.166 486.934 255.442C471.723 234.607 470.386 224.474 470.386 224.474L486.461 188.305C486.461 188.305 551.235 179.085 549.343 214.072Z" fill="#FFCCB3"/>
<path d="M542.76 206.585C542.76 206.585 533.607 221.156 516.84 221.392C516.84 221.392 506.736 230.86 491.337 225.879C491.337 225.879 498.023 215.736 491.337 212.182C479.983 206.147 476.072 226.271 482.127 233.28C486.242 238.043 486.476 246.678 483.406 251.637C480.336 256.596 475.903 265.787 475.903 265.787C475.903 265.787 466.996 258.506 462.291 253.507C445.926 236.118 443.25 195.125 470.285 175.561C497.319 155.996 525.777 171.648 531.112 175.561C531.112 175.561 559.519 180.522 559.57 210.065C559.613 235.321 541.637 241.33 541.637 241.33L547.002 220.943C547.002 220.943 543.684 221.299 542.76 206.585Z" fill="#493212"/>
<path d="M512.891 254.41L524.954 260.328C524.9 260.389 524.84 260.456 524.774 260.526C524.402 260.923 523.86 261.436 523.178 261.9C521.818 262.824 519.946 263.53 517.749 262.816C514.367 261.364 513.218 259.115 512.881 257.254C512.709 256.307 512.746 255.446 512.827 254.821C512.847 254.668 512.869 254.531 512.891 254.41Z" fill="#E56441" stroke="#E56441"/>
<path d="M541.128 240.785C541.667 238.604 540.903 236.539 539.423 236.173C537.943 235.808 536.306 237.28 535.768 239.462C535.229 241.643 535.992 243.708 537.473 244.073C538.953 244.439 540.589 242.966 541.128 240.785Z" fill="#080B09"/>
<path d="M519.182 235.699C519.721 233.518 518.957 231.453 517.477 231.087C515.997 230.722 514.36 232.194 513.822 234.376C513.283 236.557 514.047 238.622 515.527 238.987C517.007 239.353 518.644 237.88 519.182 235.699Z" fill="#080B09"/>
<path d="M545.987 232.311L534.819 229.747C534.632 229.688 534.474 229.563 534.373 229.395C534.272 229.228 534.235 229.03 534.269 228.837C534.393 228.509 534.582 228.209 534.825 227.956C535.069 227.703 535.361 227.501 535.684 227.364C536.007 227.227 536.355 227.157 536.706 227.158C537.057 227.158 537.404 227.23 537.727 227.369L546.485 231.079C547.214 231.259 546.899 232.536 545.987 232.311Z" fill="#080B09"/>
<path d="M508.487 222.314L523.033 226.872C523.13 226.418 523.131 225.949 523.036 225.494C522.94 225.04 522.751 224.61 522.479 224.233C522.208 223.856 521.86 223.54 521.459 223.306C521.058 223.072 520.613 222.924 520.151 222.872L508.529 221.357C508.165 221.267 507.94 222.179 508.487 222.314Z" fill="#080B09"/>
<path d="M529.64 236.779L531.218 248.556L527.058 250.564" stroke="#E56441" stroke-width="1.22499" stroke-linecap="round"/>
<path d="M687.383 743.984H287.362C280.302 743.984 274.578 749.708 274.578 756.768V881.686C274.578 888.747 280.302 894.471 287.362 894.471H687.383C694.443 894.471 700.167 888.747 700.167 881.686V756.768C700.167 749.708 694.443 743.984 687.383 743.984Z" fill="#1C85E8"/>
<path d="M367.066 509.337H223.76C220.026 509.337 217 512.364 217 516.097V563.962C217 567.695 220.026 570.722 223.76 570.722H367.066C370.799 570.722 373.825 567.695 373.825 563.962V516.097C373.825 512.364 370.799 509.337 367.066 509.337Z" fill="#FEBB94"/>
<path d="M406.871 818.486L416.899 818.486C417.775 818.484 418.616 818.135 419.235 817.515C419.855 816.894 420.203 816.053 420.203 815.176C420.203 814.299 419.855 813.458 419.235 812.838C418.616 812.217 417.775 811.868 416.899 811.866L406.871 811.866C405.993 811.866 405.152 812.215 404.531 812.836C403.91 813.456 403.562 814.298 403.562 815.176C403.562 816.054 403.91 816.896 404.531 817.516C405.152 818.137 405.993 818.486 406.871 818.486Z" fill="white"/>
<path d="M387.619 782.587C387.619 782.056 387.492 781.533 387.247 781.062C387.002 780.59 386.647 780.185 386.213 779.879C385.778 779.574 385.276 779.378 384.75 779.307C384.224 779.236 383.688 779.293 383.188 779.473L321.061 801.839H306.598C305.72 801.839 304.878 802.188 304.258 802.809C303.637 803.429 303.288 804.271 303.288 805.149V825.203C303.288 826.081 303.637 826.923 304.258 827.544C304.878 828.164 305.72 828.513 306.598 828.513L318.329 828.513L318.329 855.285C318.329 855.72 318.415 856.151 318.581 856.552C318.747 856.954 318.991 857.319 319.298 857.626C319.606 857.933 319.971 858.177 320.372 858.343C320.774 858.51 321.204 858.595 321.639 858.595H339.186C339.621 858.595 340.052 858.509 340.453 858.343C340.855 858.177 341.22 857.933 341.527 857.626C341.834 857.318 342.078 856.953 342.244 856.552C342.411 856.15 342.496 855.72 342.496 855.285V836.23L383.188 850.879C383.688 851.059 384.224 851.116 384.75 851.045C385.276 850.974 385.778 850.778 386.212 850.473C386.647 850.167 387.002 849.762 387.247 849.29C387.491 848.819 387.619 848.296 387.619 847.765L387.619 782.587ZM309.908 821.893L309.908 808.458L318.329 808.458L318.329 821.893L309.908 821.893ZM335.877 851.975L324.949 851.975V829.913L335.877 833.846V851.975ZM324.949 822.877V807.475L381 787.297L381 843.056L324.949 822.877Z" fill="white"/>
<path d="M406.705 840.411L401.691 835.397C401.384 835.09 401.019 834.846 400.617 834.68C400.216 834.513 399.786 834.428 399.351 834.428C398.916 834.428 398.486 834.513 398.084 834.68C397.683 834.846 397.318 835.09 397.01 835.397C396.703 835.704 396.459 836.069 396.293 836.471C396.127 836.872 396.041 837.303 396.041 837.737C396.041 838.172 396.127 838.603 396.293 839.004C396.459 839.406 396.703 839.77 397.01 840.078L402.024 845.092C402.332 845.399 402.696 845.643 403.098 845.809C403.5 845.975 403.93 846.061 404.365 846.061C404.799 846.061 405.23 845.975 405.631 845.809C406.033 845.643 406.398 845.399 406.705 845.092C407.012 844.784 407.256 844.419 407.422 844.018C407.589 843.616 407.674 843.186 407.674 842.751C407.674 842.317 407.589 841.886 407.422 841.485C407.256 841.083 407.012 840.718 406.705 840.411Z" fill="white"/>
<path d="M397.01 794.955C397.631 795.576 398.473 795.924 399.351 795.924C400.229 795.924 401.071 795.576 401.691 794.955L406.705 789.941C407.326 789.321 407.674 788.479 407.674 787.601C407.674 786.723 407.326 785.881 406.705 785.261C406.084 784.64 405.242 784.291 404.364 784.291C403.487 784.291 402.645 784.64 402.024 785.261L397.01 790.274C396.39 790.895 396.041 791.737 396.041 792.615C396.041 793.492 396.39 794.334 397.01 794.955Z" fill="white"/>
<path d="M461.627 785.244H527.091" stroke="white" stroke-width="14.8881" stroke-miterlimit="10" stroke-linecap="round"/>
<path d="M461.627 858.543H582.939" stroke="white" stroke-width="14.8881" stroke-miterlimit="10" stroke-linecap="round"/>
<path opacity="0.4" d="M461.627 821.893H616.913" stroke="white" stroke-width="14.8881" stroke-miterlimit="10" stroke-linecap="round"/>
<path d="M1215.33 611.421H1141.56C1137.53 611.421 1134.26 614.691 1134.26 618.724V686.033C1134.26 690.066 1137.53 693.336 1141.56 693.336H1215.33C1219.37 693.336 1222.64 690.066 1222.64 686.033V618.724C1222.64 614.691 1219.37 611.421 1215.33 611.421Z" fill="#1C85E8"/>
<path d="M285.032 552.964C283.885 552.964 282.852 552.767 281.934 552.374C281.016 551.964 280.295 551.391 279.77 550.653C279.246 549.915 278.983 549.055 278.983 548.071H281.983C282.049 548.809 282.336 549.415 282.844 549.891C283.368 550.366 284.098 550.604 285.032 550.604C285.999 550.604 286.753 550.374 287.294 549.915C287.835 549.44 288.106 548.833 288.106 548.096C288.106 547.522 287.933 547.055 287.589 546.694C287.261 546.334 286.843 546.055 286.335 545.858C285.844 545.662 285.155 545.448 284.27 545.219C283.155 544.924 282.245 544.629 281.541 544.334C280.852 544.022 280.262 543.547 279.77 542.908C279.279 542.268 279.033 541.416 279.033 540.351C279.033 539.367 279.279 538.506 279.77 537.769C280.262 537.031 280.951 536.466 281.836 536.072C282.721 535.679 283.745 535.482 284.909 535.482C286.565 535.482 287.917 535.9 288.966 536.736C290.032 537.556 290.622 538.687 290.737 540.129H287.638C287.589 539.506 287.294 538.974 286.753 538.531C286.212 538.088 285.499 537.867 284.614 537.867C283.811 537.867 283.155 538.072 282.647 538.482C282.139 538.892 281.885 539.482 281.885 540.252C281.885 540.777 282.041 541.211 282.352 541.555C282.68 541.883 283.09 542.145 283.581 542.342C284.073 542.539 284.745 542.752 285.598 542.981C286.729 543.293 287.647 543.604 288.351 543.916C289.073 544.227 289.679 544.711 290.171 545.366C290.679 546.006 290.933 546.866 290.933 547.948C290.933 548.817 290.696 549.637 290.22 550.407C289.761 551.177 289.081 551.8 288.179 552.276C287.294 552.735 286.245 552.964 285.032 552.964ZM301.248 539.023C302.281 539.023 303.199 539.244 304.002 539.687C304.822 540.129 305.461 540.785 305.92 541.654C306.395 542.522 306.633 543.572 306.633 544.801V552.792H303.855V545.219C303.855 544.006 303.551 543.08 302.945 542.441C302.338 541.785 301.51 541.457 300.461 541.457C299.412 541.457 298.576 541.785 297.953 542.441C297.347 543.08 297.044 544.006 297.044 545.219V552.792H294.241V534.597H297.044V540.818C297.519 540.244 298.117 539.801 298.839 539.49C299.576 539.179 300.379 539.023 301.248 539.023ZM309.274 545.957C309.274 544.596 309.553 543.391 310.11 542.342C310.684 541.293 311.454 540.482 312.421 539.908C313.405 539.318 314.487 539.023 315.667 539.023C316.732 539.023 317.659 539.236 318.445 539.662C319.249 540.072 319.888 540.588 320.363 541.211V539.244H323.191V552.792H320.363V550.776C319.888 551.415 319.24 551.948 318.421 552.374C317.601 552.8 316.667 553.013 315.618 553.013C314.454 553.013 313.388 552.718 312.421 552.128C311.454 551.522 310.684 550.686 310.11 549.62C309.553 548.538 309.274 547.317 309.274 545.957ZM320.363 546.006C320.363 545.071 320.167 544.26 319.773 543.572C319.396 542.883 318.896 542.359 318.273 541.998C317.65 541.637 316.978 541.457 316.257 541.457C315.536 541.457 314.864 541.637 314.241 541.998C313.618 542.342 313.11 542.858 312.716 543.547C312.339 544.219 312.151 545.022 312.151 545.957C312.151 546.891 312.339 547.711 312.716 548.415C313.11 549.12 313.618 549.661 314.241 550.038C314.88 550.399 315.552 550.579 316.257 550.579C316.978 550.579 317.65 550.399 318.273 550.038C318.896 549.678 319.396 549.153 319.773 548.465C320.167 547.76 320.363 546.94 320.363 546.006ZM329.676 541.211C330.085 540.523 330.626 539.99 331.298 539.613C331.987 539.219 332.798 539.023 333.733 539.023V541.924H333.019C331.921 541.924 331.085 542.203 330.512 542.76C329.954 543.317 329.676 544.285 329.676 545.662V552.792H326.872V539.244H329.676V541.211ZM348.726 545.686C348.726 546.194 348.693 546.653 348.628 547.063H338.276C338.358 548.145 338.76 549.014 339.481 549.669C340.202 550.325 341.087 550.653 342.136 550.653C343.644 550.653 344.71 550.022 345.333 548.76H348.357C347.947 550.005 347.202 551.03 346.12 551.833C345.054 552.62 343.726 553.013 342.136 553.013C340.841 553.013 339.678 552.726 338.645 552.153C337.629 551.563 336.825 550.743 336.235 549.694C335.662 548.628 335.375 547.399 335.375 546.006C335.375 544.612 335.653 543.391 336.211 542.342C336.784 541.277 337.579 540.457 338.596 539.883C339.628 539.31 340.809 539.023 342.136 539.023C343.415 539.023 344.554 539.301 345.554 539.859C346.554 540.416 347.333 541.203 347.89 542.219C348.447 543.219 348.726 544.375 348.726 545.686ZM345.8 544.801C345.784 543.768 345.415 542.94 344.694 542.318C343.972 541.695 343.079 541.383 342.013 541.383C341.046 541.383 340.219 541.695 339.53 542.318C338.842 542.924 338.432 543.752 338.301 544.801H345.8Z" fill="white"/>
<path d="M258.402 544.317C257.432 544.317 256.475 544.531 255.598 544.943C254.721 545.356 253.946 545.957 253.328 546.704L245.452 542.233C245.958 540.808 245.958 539.252 245.452 537.828L253.327 533.355C254.38 534.622 255.868 535.448 257.5 535.672C259.132 535.895 260.788 535.5 262.142 534.563C263.497 533.626 264.451 532.216 264.817 530.61C265.183 529.004 264.935 527.32 264.121 525.888C263.306 524.457 261.985 523.382 260.418 522.876C258.851 522.37 257.151 522.47 255.653 523.155C254.156 523.84 252.969 525.062 252.328 526.578C251.686 528.095 251.635 529.797 252.186 531.349L244.311 535.822C243.445 534.777 242.278 534.025 240.969 533.668C239.66 533.311 238.273 533.366 236.996 533.826C235.72 534.286 234.617 535.129 233.837 536.239C233.057 537.349 232.638 538.673 232.638 540.03C232.638 541.386 233.057 542.71 233.837 543.821C234.616 544.931 235.72 545.773 236.996 546.234C238.273 546.694 239.66 546.749 240.969 546.392C242.278 546.035 243.445 545.283 244.31 544.238L252.186 548.71C251.719 550.029 251.684 551.463 252.086 552.804C252.488 554.145 253.306 555.323 254.422 556.168C255.538 557.013 256.895 557.481 258.294 557.504C259.694 557.526 261.064 557.103 262.208 556.295C263.351 555.487 264.207 554.337 264.653 553.01C265.098 551.683 265.11 550.248 264.686 548.914C264.262 547.58 263.425 546.415 262.295 545.589C261.165 544.762 259.802 544.317 258.402 544.317ZM258.402 524.859C259.25 524.859 260.079 525.11 260.784 525.582C261.49 526.053 262.039 526.722 262.364 527.506C262.689 528.29 262.774 529.152 262.608 529.984C262.443 530.816 262.034 531.58 261.435 532.179C260.835 532.779 260.071 533.187 259.239 533.353C258.407 533.518 257.545 533.433 256.761 533.109C255.977 532.784 255.308 532.234 254.837 531.529C254.366 530.823 254.114 529.994 254.115 529.146C254.116 528.01 254.568 526.92 255.372 526.116C256.175 525.312 257.265 524.86 258.402 524.859ZM239.238 544.317C238.39 544.317 237.561 544.066 236.856 543.595C236.151 543.124 235.601 542.454 235.277 541.671C234.952 540.888 234.867 540.026 235.032 539.194C235.198 538.362 235.606 537.598 236.205 536.999C236.805 536.399 237.569 535.991 238.401 535.825C239.232 535.66 240.094 535.745 240.878 536.069C241.661 536.394 242.33 536.943 242.802 537.648C243.273 538.353 243.524 539.182 243.524 540.03C243.523 541.166 243.071 542.256 242.267 543.06C241.464 543.863 240.374 544.315 239.238 544.317H239.238ZM258.402 555.2C257.554 555.2 256.725 554.949 256.019 554.478C255.314 554.007 254.764 553.337 254.44 552.554C254.115 551.77 254.03 550.908 254.195 550.076C254.361 549.244 254.769 548.48 255.369 547.881C255.968 547.281 256.732 546.872 257.564 546.707C258.396 546.542 259.258 546.626 260.042 546.951C260.825 547.276 261.495 547.825 261.966 548.531C262.437 549.236 262.688 550.065 262.688 550.913C262.687 552.05 262.235 553.139 261.431 553.943C260.628 554.746 259.538 555.198 258.402 555.2Z" fill="white"/>
<path d="M1150.94 664.824L1163.78 651.982C1164.62 651.142 1165.76 650.671 1166.94 650.671C1168.13 650.671 1169.27 651.142 1170.11 651.982L1180.15 662.026C1180.99 662.865 1182.13 663.337 1183.32 663.337C1184.5 663.337 1185.64 662.865 1186.48 662.026L1202.9 645.609" stroke="white" stroke-width="5.16228" stroke-miterlimit="10" stroke-linecap="round"/>
<path d="M1195.28 642.653H1204.41C1204.82 642.653 1205.22 642.817 1205.51 643.109C1205.8 643.4 1205.96 643.796 1205.96 644.208V652.469" stroke="white" stroke-width="5.16228" stroke-miterlimit="10" stroke-linecap="round"/>
<path d="M993.277 487.396C995.581 482.15 994.213 476.478 990.222 474.726C986.232 472.974 981.13 475.806 978.827 481.052C976.524 486.298 977.892 491.971 981.882 493.723C985.872 495.475 990.974 492.642 993.277 487.396Z" stroke="#080B09" stroke-miterlimit="10"/>
<path d="M970.383 477.614C972.686 472.368 971.318 466.695 967.328 464.943C963.337 463.191 958.235 466.024 955.932 471.27C953.629 476.516 954.997 482.188 958.988 483.94C962.978 485.692 968.08 482.86 970.383 477.614Z" stroke="#080B09" stroke-miterlimit="10"/>
<path d="M970.385 477.619C970.385 477.619 975.896 477.521 978.827 481.052" stroke="#080B09" stroke-miterlimit="10"/>
<path d="M992.609 488.703H1016.36" stroke="#080B09" stroke-miterlimit="10"/>
<path d="M502.424 327.766C502.424 327.766 504.051 349.706 502.424 367.096" stroke="#96BAFD" stroke-miterlimit="10"/>
<path fill-rule="evenodd" clip-rule="evenodd" d="M988.345 553.306C1010.52 539.42 1014.2 530.777 1014.2 530.777L1023.54 548.873L997.633 568.399C996.596 565.657 995.326 563.01 993.837 560.486L986.546 566.296L988.345 553.306ZM961.511 548.757L971.078 541.597C971.078 541.597 970.327 548.231 980.23 552.742L981.054 565.062L976.259 560.412L969.874 568.841L961.511 548.757Z" fill="#1C85E8"/>
<path d="M986.546 566.296L988.345 553.306L993.837 560.486L986.546 566.296Z" fill="#1C85E8"/>
<path d="M980.23 552.742L976.259 560.412L981.054 565.062L980.23 552.742Z" fill="#1C85E8"/>
<path d="M981.054 565.062L984.076 602.394C984.118 602.916 984.336 603.408 984.694 603.79C985.052 604.172 985.529 604.422 986.047 604.498C986.388 604.548 986.735 604.522 987.064 604.421C987.394 604.319 987.696 604.146 987.95 603.913C988.203 603.681 988.402 603.394 988.531 603.075C988.66 602.756 988.716 602.412 988.696 602.068L986.546 566.296L984.208 568.399L981.054 565.062Z" fill="#1C85E8"/>
<path d="M994.343 581.327C995.938 581.327 997.231 580.034 997.231 578.44C997.231 576.845 995.938 575.552 994.343 575.552C992.748 575.552 991.456 576.845 991.456 578.44C991.456 580.034 992.748 581.327 994.343 581.327Z" fill="#1C85E8"/>
<path d="M995.282 598.333C996.877 598.333 998.17 597.041 998.17 595.446C998.17 593.851 996.877 592.558 995.282 592.558C993.687 592.558 992.395 593.851 992.395 595.446C992.395 597.041 993.687 598.333 995.282 598.333Z" fill="#1C85E8"/>
</g>
<defs>
<linearGradient id="paint0_linear" x1="477.631" y1="281.853" x2="577.71" y2="1196.33" gradientUnits="userSpaceOnUse">
<stop stop-color="white"/>
<stop offset="1" stop-color="#94B9FF"/>
</linearGradient>
<linearGradient id="paint1_linear" x1="949.522" y1="520.656" x2="1049.6" y2="1435.13" gradientUnits="userSpaceOnUse">
<stop stop-color="white"/>
<stop offset="1" stop-color="#94B9FF"/>
</linearGradient>
<linearGradient id="paint2_linear" x1="584.097" y1="273.362" x2="561.224" y2="371.304" gradientUnits="userSpaceOnUse">
<stop stop-color="white"/>
<stop offset="1" stop-color="#94B9FF"/>
</linearGradient>
<linearGradient id="paint3_linear" x1="649.374" y1="312.366" x2="655.013" y2="351.776" gradientUnits="userSpaceOnUse">
<stop stop-color="white"/>
<stop offset="1" stop-color="#94B9FF"/>
</linearGradient>
<clipPath id="clip0">
<rect width="1005.64" height="831.188" fill="white" transform="translate(217 122)"/>
</clipPath>
</defs>
</svg>
