<svg width="339" height="175" viewBox="0 0 339 175" fill="none" xmlns="http://www.w3.org/2000/svg">
<path d="M319.25 18.2002V156.2H319V157.2H17V156.2H16.25V18.2002H319.25ZM17.25 156.2H43.25V129.2H17.25V156.2ZM44.25 156.2H71.25V129.2H44.25V156.2ZM72.25 156.2H98.25V129.2H72.25V156.2ZM99.25 156.2H126.25V129.2H99.25V156.2ZM127.25 156.2H153.25V129.2H127.25V156.2ZM154.25 156.2H181.25V129.2H154.25V156.2ZM182.25 156.2H208.25V129.2H182.25V156.2ZM209.25 156.2H236.25V129.2H209.25V156.2ZM237.25 156.2H263.25V129.2H237.25V156.2ZM264.25 156.2H291.25V129.2H264.25V156.2ZM292.25 156.2H318.25V129.2H292.25V156.2ZM17.25 128.2H43.25V101.2H17.25V128.2ZM44.25 128.2H71.25V101.2H44.25V128.2ZM72.25 128.2H98.25V101.2H72.25V128.2ZM99.25 128.2H126.25V101.2H99.25V128.2ZM127.25 128.2H153.25V101.2H127.25V128.2ZM154.25 128.2H181.25V101.2H154.25V128.2ZM182.25 128.2H208.25V101.2H182.25V128.2ZM209.25 128.2H236.25V101.2H209.25V128.2ZM237.25 128.2H263.25V101.2H237.25V128.2ZM264.25 128.2H291.25V101.2H264.25V128.2ZM292.25 128.2H318.25V101.2H292.25V128.2ZM17.25 100.2H43.25V74.2002H17.25V100.2ZM44.25 100.2H71.25V74.2002H44.25V100.2ZM72.25 100.2H98.25V74.2002H72.25V100.2ZM99.25 100.2H126.25V74.2002H99.25V100.2ZM127.25 100.2H153.25V74.2002H127.25V100.2ZM154.25 100.2H181.25V74.2002H154.25V100.2ZM182.25 100.2H208.25V74.2002H182.25V100.2ZM209.25 100.2H236.25V74.2002H209.25V100.2ZM237.25 100.2H263.25V74.2002H237.25V100.2ZM264.25 100.2H291.25V74.2002H264.25V100.2ZM292.25 100.2H318.25V74.2002H292.25V100.2ZM17.25 73.2002H43.25V46.2002H17.25V73.2002ZM44.25 73.2002H71.25V46.2002H44.25V73.2002ZM72.25 73.2002H98.25V46.2002H72.25V73.2002ZM99.25 73.2002H126.25V46.2002H99.25V73.2002ZM127.25 73.2002H153.25V46.2002H127.25V73.2002ZM154.25 73.2002H181.25V46.2002H154.25V73.2002ZM182.25 73.2002H208.25V46.2002H182.25V73.2002ZM209.25 73.2002H236.25V46.2002H209.25V73.2002ZM237.25 73.2002H263.25V46.2002H237.25V73.2002ZM264.25 73.2002H291.25V46.2002H264.25V73.2002ZM292.25 73.2002H318.25V46.2002H292.25V73.2002ZM17.25 19.2002V45.2002H43.25V19.2002H17.25ZM44.25 19.2002V45.2002H71.25V19.2002H44.25ZM72.25 19.2002V45.2002H98.25V19.2002H72.25ZM99.25 19.2002V45.2002H126.25V19.2002H99.25ZM127.25 19.2002V45.2002H153.25V19.2002H127.25ZM154.25 19.2002V45.2002H181.25V19.2002H154.25ZM182.25 19.2002V45.2002H208.25V19.2002H182.25ZM209.25 19.2002V45.2002H236.25V19.2002H209.25ZM237.25 19.2002V45.2002H263.25V19.2002H237.25ZM264.25 19.2002V45.2002H291.25V19.2002H264.25ZM292.25 19.2002V45.2002H318.25V19.2002H292.25Z" fill="url(#paint0_linear_293_2)"/>
<g filter="url(#filter0_d_293_2)">
<circle cx="49.5" cy="110.2" r="18.5" fill="white"/>
</g>
<path d="M49.75 100.7C47.8216 100.7 45.9366 101.272 44.3332 102.343C42.7298 103.415 41.4801 104.937 40.7422 106.719C40.0042 108.501 39.8111 110.461 40.1873 112.352C40.5636 114.244 41.4922 115.981 42.8557 117.344C44.2193 118.708 45.9566 119.637 47.8479 120.013C49.7392 120.389 51.6996 120.196 53.4812 119.458C55.2627 118.72 56.7855 117.47 57.8568 115.867C58.9282 114.264 59.5 112.379 59.5 110.45C59.497 107.865 58.4688 105.387 56.641 103.559C54.8132 101.731 52.335 100.703 49.75 100.7ZM58 110.45C58.0007 111.211 57.8956 111.968 57.6878 112.7H54.0775C54.3075 111.209 54.3075 109.691 54.0775 108.2H57.6878C57.8956 108.932 58.0007 109.689 58 110.45ZM47.3125 114.2H52.1875C51.7072 115.774 50.8735 117.217 49.75 118.419C48.627 117.217 47.7933 115.774 47.3125 114.2ZM46.9469 112.7C46.6894 111.211 46.6894 109.689 46.9469 108.2H52.5606C52.8181 109.689 52.8181 111.211 52.5606 112.7H46.9469ZM41.5 110.45C41.4994 109.689 41.6044 108.932 41.8122 108.2H45.4225C45.1925 109.691 45.1925 111.209 45.4225 112.7H41.8122C41.6044 111.968 41.4994 111.211 41.5 110.45ZM52.1875 106.7H47.3125C47.7928 105.127 48.6265 103.683 49.75 102.481C50.8731 103.684 51.7067 105.127 52.1875 106.7ZM57.0934 106.7H53.7541C53.3332 105.156 52.6238 103.706 51.6634 102.425C52.8238 102.704 53.9102 103.23 54.848 103.968C55.7859 104.706 56.5532 105.638 57.0972 106.7H57.0934ZM47.8366 102.425C46.8762 103.706 46.1668 105.156 45.7459 106.7H42.4028C42.9468 105.638 43.7141 104.706 44.652 103.968C45.5899 103.23 46.6762 102.704 47.8366 102.425ZM42.4028 114.2H45.7459C46.1668 115.744 46.8762 117.195 47.8366 118.475C46.6762 118.196 45.5899 117.67 44.652 116.932C43.7141 116.194 42.9468 115.262 42.4028 114.2ZM51.6634 118.475C52.6238 117.195 53.3332 115.744 53.7541 114.2H57.0972C56.5532 115.262 55.7859 116.194 54.848 116.932C53.9102 117.67 52.8238 118.196 51.6634 118.475Z" fill="#6A7C92"/>
<g filter="url(#filter1_d_293_2)">
<rect x="78" y="57.9971" width="125" height="87" rx="10" transform="rotate(-15.4487 78 57.9971)" fill="white"/>
</g>
<circle cx="113.968" cy="60.5065" r="4" transform="rotate(-15.4487 113.968 60.5065)" fill="#D3D9E3"/>
<circle cx="103.365" cy="63.4367" r="4" transform="rotate(-15.4487 103.365 63.4367)" fill="#D3D9E3"/>
<circle cx="92.7629" cy="66.3669" r="4" transform="rotate(-15.4487 92.7629 66.3669)" fill="#D3D9E3"/>
<g filter="url(#filter2_d_293_2)">
<rect x="183" y="50.7002" width="125" height="21" rx="10" fill="white"/>
</g>
<path d="M201.802 66.5599L199.167 63.9236C199.957 62.894 200.326 61.6024 200.199 60.3109C200.072 59.0193 199.458 57.8245 198.482 56.9687C197.507 56.113 196.242 55.6605 194.945 55.7029C193.647 55.7454 192.415 56.2796 191.497 57.1973C190.579 58.115 190.045 59.3474 190.003 60.6446C189.96 61.9417 190.413 63.2064 191.269 64.1821C192.124 65.1579 193.319 65.7716 194.611 65.8987C195.903 66.0259 197.194 65.657 198.224 64.8669L200.861 67.5048C200.923 67.5668 200.997 67.6159 201.078 67.6494C201.159 67.6829 201.245 67.7002 201.333 67.7002C201.421 67.7002 201.507 67.6829 201.588 67.6494C201.669 67.6159 201.743 67.5668 201.805 67.5048C201.867 67.4429 201.916 67.3694 201.949 67.2884C201.983 67.2075 202 67.1208 202 67.0332C202 66.9456 201.983 66.8589 201.949 66.7779C201.916 66.697 201.867 66.6235 201.805 66.5615L201.802 66.5599ZM191.343 60.8163C191.343 60.07 191.564 59.3405 191.979 58.72C192.394 58.0995 192.983 57.6159 193.672 57.3303C194.362 57.0447 195.121 56.97 195.852 57.1156C196.584 57.2612 197.257 57.6206 197.785 58.1482C198.312 58.6759 198.672 59.3483 198.817 60.0802C198.963 60.8121 198.888 61.5708 198.602 62.2602C198.317 62.9497 197.833 63.539 197.213 63.9536C196.592 64.3682 195.863 64.5895 195.116 64.5895C194.116 64.5885 193.157 64.1906 192.449 63.4832C191.742 62.7758 191.344 61.8167 191.343 60.8163Z" fill="#5886F9"/>
<path d="M271.671 108.342C271.677 108.659 271.58 108.969 271.396 109.227C271.211 109.485 270.949 109.676 270.647 109.774L270.628 109.78L263.367 112.003L261.497 119.363L261.492 119.381C261.409 119.687 261.23 119.959 260.982 120.155C260.733 120.352 260.428 120.463 260.111 120.474L260.083 120.474C259.773 120.485 259.467 120.397 259.209 120.223C258.951 120.05 258.754 119.8 258.647 119.508L252.135 103.171C252.133 103.166 252.131 103.161 252.13 103.156C252.032 102.893 252.01 102.607 252.066 102.332C252.123 102.057 252.255 101.804 252.449 101.6C252.642 101.397 252.889 101.252 253.16 101.181C253.432 101.111 253.718 101.118 253.986 101.203L254.001 101.207L270.637 106.926C270.938 107.021 271.2 107.209 271.386 107.464C271.573 107.719 271.672 108.027 271.671 108.342Z" fill="#5886F9"/>
<defs>
<filter id="filter0_d_293_2" x="0" y="64.7002" width="99" height="99" filterUnits="userSpaceOnUse" color-interpolation-filters="sRGB">
<feFlood flood-opacity="0" result="BackgroundImageFix"/>
<feColorMatrix in="SourceAlpha" type="matrix" values="0 0 0 0 0 0 0 0 0 0 0 0 0 0 0 0 0 0 127 0" result="hardAlpha"/>
<feMorphology radius="1" operator="dilate" in="SourceAlpha" result="effect1_dropShadow_293_2"/>
<feOffset dy="4"/>
<feGaussianBlur stdDeviation="15"/>
<feComposite in2="hardAlpha" operator="out"/>
<feColorMatrix type="matrix" values="0 0 0 0 0 0 0 0 0 0 0 0 0 0 0 0 0 0 0.1 0"/>
<feBlend mode="normal" in2="BackgroundImageFix" result="effect1_dropShadow_293_2"/>
<feBlend mode="normal" in="SourceGraphic" in2="effect1_dropShadow_293_2" result="shape"/>
</filter>
<filter id="filter1_d_293_2" x="49.2999" y="0" width="201.058" height="174.554" filterUnits="userSpaceOnUse" color-interpolation-filters="sRGB">
<feFlood flood-opacity="0" result="BackgroundImageFix"/>
<feColorMatrix in="SourceAlpha" type="matrix" values="0 0 0 0 0 0 0 0 0 0 0 0 0 0 0 0 0 0 127 0" result="hardAlpha"/>
<feMorphology radius="1" operator="dilate" in="SourceAlpha" result="effect1_dropShadow_293_2"/>
<feOffset dy="4"/>
<feGaussianBlur stdDeviation="15"/>
<feComposite in2="hardAlpha" operator="out"/>
<feColorMatrix type="matrix" values="0 0 0 0 0 0 0 0 0 0 0 0 0 0 0 0 0 0 0.1 0"/>
<feBlend mode="normal" in2="BackgroundImageFix" result="effect1_dropShadow_293_2"/>
<feBlend mode="normal" in="SourceGraphic" in2="effect1_dropShadow_293_2" result="shape"/>
</filter>
<filter id="filter2_d_293_2" x="152" y="23.7002" width="187" height="83" filterUnits="userSpaceOnUse" color-interpolation-filters="sRGB">
<feFlood flood-opacity="0" result="BackgroundImageFix"/>
<feColorMatrix in="SourceAlpha" type="matrix" values="0 0 0 0 0 0 0 0 0 0 0 0 0 0 0 0 0 0 127 0" result="hardAlpha"/>
<feMorphology radius="1" operator="dilate" in="SourceAlpha" result="effect1_dropShadow_293_2"/>
<feOffset dy="4"/>
<feGaussianBlur stdDeviation="15"/>
<feComposite in2="hardAlpha" operator="out"/>
<feColorMatrix type="matrix" values="0 0 0 0 0 0 0 0 0 0 0 0 0 0 0 0 0 0 0.1 0"/>
<feBlend mode="normal" in2="BackgroundImageFix" result="effect1_dropShadow_293_2"/>
<feBlend mode="normal" in="SourceGraphic" in2="effect1_dropShadow_293_2" result="shape"/>
</filter>
<linearGradient id="paint0_linear_293_2" x1="167.75" y1="18.2002" x2="167.75" y2="157.2" gradientUnits="userSpaceOnUse">
<stop stop-color="#AFB9C7" stop-opacity="0"/>
<stop offset="0.5" stop-color="#AFB9C7" stop-opacity="0.2"/>
<stop offset="1" stop-color="#AFB9C7" stop-opacity="0"/>
</linearGradient>
</defs>
</svg>
