<?xml version="1.0" encoding="UTF-8"?>
<svg id="Layer_2" data-name="Layer 2" xmlns="http://www.w3.org/2000/svg" viewBox="0 0 137.3 132">
  <defs>
    <style>
      .cls-1, .cls-2, .cls-3, .cls-4, .cls-5, .cls-6 {
        stroke-width: 0px;
      }

      .cls-1, .cls-7 {
        fill: none;
      }

      .cls-2 {
        fill: #f58022;
      }

      .cls-3 {
        fill: #431710;
      }

      .cls-4 {
        fill: #fff;
      }

      .cls-5 {
        fill: #f0f5f3;
      }

      .cls-6 {
        fill: #f5ddca;
      }

      .cls-7 {
        stroke: #431710;
        stroke-linecap: round;
        stroke-linejoin: round;
        stroke-width: 3px;
      }
    </style>
  </defs>
  <g id="Layer_1-2" data-name="Layer 1">
    <path class="cls-4" d="M127.11,79.49c.02,2.74-.37,5.48-1.17,8.08-.83,2.74-2.13,5.33-3.89,7.61-3.04,3.94-7.6,6.54-12.06,8.37-.94.38-1.32,1.2-2.12,1.61-.97.51-2.15.04-2.73,1.31-.2.43-.21.91-.22,1.38-.05,3.66-.12,7.32-.24,10.98-.05,1.27.31,2.49.67,3.69.29.98-4.86,1.88-5.42,2.01-10,2.32-20.1,3.05-30.33,2.78-1.96-.05-3.74.34-5.73.18-2.51-.2-5.01-.45-7.5-.78-4.96-.67-9.89-1.66-14.65-3.23-9.15-3.02-18-6.97-26.35-11.79-1.99-1.15-3.97-2.36-5.79-3.77-1.37-1.06-3.89-2.75-4.36-4.51-.55-2.06,1.25-3.58,2.37-5.05,1.42-1.86,2.78-3.77,4.09-5.71.21-.31.43-.62.65-.93,0-.01.01-.02.01-.03.4-.58.79-1.16,1.19-1.74,1.25-1.83,2.22-3.6,2.98-5.38.72-1.64,1.25-3.29,1.67-5,0,0,.01-.02.01-.04.36-1.51.62-3.08.82-4.73.04-.27.07-.54.1-.81,0-.02.01-.05.01-.08.08-.78.16-1.58.22-2.4.33-4.27.22-7.63,2.81-11.15,2-2.72,4.57-4.89,7.32-6.83,3.32-2.35,6.93-4.29,10.38-6.45,2.05-1.28,4.04-2.64,5.88-4.21.94-.8,1.92-1.56,2.93-2.27.08-.06.16-.12.24-.17,6.1-4.24,13.26-6.57,20.68-5.54,1.23.17,2.47.43,3.72.81.24.06.47.13.71.21,8.2,2.67,14.89,9.59,17.28,17.88.17.59.33,1.2.48,1.82.3,1.13.59,2.29.96,3.38.72,2.13,1.74,4.04,3.64,5.17,1.76,1.04,3.94,1.12,5.98.94,1.77-.16,3.52-.49,5.27-.82,1.65-.31,3.31-.61,4.98-.75.86-.07,1.74-.1,2.61-.06.29.01.59.03.88.06,2.31.23,4.55.95,6.31,2.43,2.23,1.88,3.38,4.75,4.03,7.59.44,1.94.67,3.93.69,5.93Z"/>
    <path class="cls-2" d="M92.57,64.39c.69.8,1.42,1.63,2.42,1.99.93.33,1.95.21,2.92.08,1.69-.22,8.72-.09,9.08-2.23.15-.87-.31-1.71-.74-2.47-.72-1.25-1.44-2.51-2.16-3.76-.42-.73-.85-1.48-.97-2.32-.15-1.02.18-2.04.48-3.03,3-9.85,3.5-20.44,1.46-30.53-.82-4.06-2.47-7.72-6.81-8.79-4.09-1.01-8.6.37-11.91,2.85-3.97,2.98-6.58,7.28-9.03,11.51-2.09,3.61-5.24,6.66-3.61,10.94,3.63,9.56,12.28,18.17,18.86,25.77Z"/>
    <path class="cls-6" d="M100.58,22.84c.42.8.62,1.76.65,2.7.24,8.04-.12,16.09-1.08,24.08.1-1-2.48-2.9-3.19-3.45-1.02-.78-2.25-1.48-3.14-2.42-2.16-2.28-4.59-4.3-7.24-5.97-.39-.25,1.87-6.03,2.12-6.61.94-2.21,2.08-4.29,3.4-6.22,1.17-1.71,3.21-4.03,5.5-3.99,1.46.02,2.42.8,2.99,1.88Z"/>
    <path class="cls-2" d="M78.11,53.64c3.92,8.27,4.13,18.99-1.94,25.84-3.94,4.44-10.52,5.41-15.51,8.24-4.94,2.8-8.54,7.5-13.54,10.11-9.4,4.9-26.4,1.85-34.91-3.73-.14-.09-.28-.19-.34-.34-.07-.16-.04-.34,0-.5.62-2.77,2.37-5.13,3.92-7.51,1.83-2.8,4.64-8.21,2.94-11.64-.8-1.6-2.57-3.14-3.71-4.53-1.76-2.15-3.51-4.29-5.12-6.55-5.41-7.59-8.18-15.56-8.16-24.98,0-2.43.24-5,1.64-6.99,2.52-3.6,7.69-3.95,12.06-3.42,9.83,1.21,19.09,5.36,27.56,10.33,3.06,1.79,6.08,3.32,9.63,2.19,3.4-1.09,6.64-2.6,9.98-3.86,1.86-.71,3.19.85,4.52,2.01,1.65,1.46,3.12,3.12,4.47,4.86,2.53,3.25,4.69,6.8,6.53,10.48Z"/>
    <path class="cls-7" d="M97.95,66.51c4.75-.5,9.52-1.37,14.21-2.26,4.63-.88,9.6-1.95,14.16-.14,5.33,2.12,3.97,7.96,3.23,12.62-2.22,13.97-14.66,30-30.26,28.18"/>
    <path class="cls-7" d="M73.84,34.08s15.66-30.09,26.85-18.26c0,0,8.78,7.2,2.7,38.62"/>
    <path class="cls-6" d="M27.62,71.95c-3.24.54-5.62-3.1-7.46-5.36-2.58-3.19-4.93-6.61-6.7-10.32-1.14-2.4-2.77-4.54-3.74-7.05s-1.49-5.36-1.41-8.13c.06-1.85-.23-4.6,1.92-5.39,1.12-.41,2.37-.19,3.53.08,2.98.71,5.88,1.81,8.59,3.25,2.49,1.32,5.04,2.32,7.49,3.69,2.67,1.49,7.23,4.08,8.66,6.93,1.41,2.81-1.49,7.24-2.06,10.02-.27,1.31-.44,2.65-.91,3.91-.69,1.85-1.97,3.41-3.23,4.92-1,1.19-2.05,2.41-3.45,3.08-.42.2-.83.33-1.22.39Z"/>
    <path class="cls-7" d="M73.26,34.88c-6.42-.36-12.96,1.38-18.95,4.2-1.45.68-3.14,1.93-4.74,1.75-1.52-.16-3.73-1.66-5.07-2.41-8.79-4.91-35.98-21.25-42-5.17-6.76,18.06,22.82,47.64,22.82,47.64"/>
    <path class="cls-7" d="M106.4,64.48c-1.87-5.17-3.63-10.58-7.19-14.84s-7.4-7.87-12.16-10.3c-.22-.11-.46-.25-.55-.48-.08-.2-.03-.42.02-.62.96-3.79,2.04-7.62,3.99-11.03.86-1.5,2.19-3.54,3.84-4.93"/>
    <path class="cls-3" d="M128.15,78.23c.43-2.69,1.2-5.26,1.28-8.05.06-2.11-.21-4.48-1.83-5.82-3.41-2.81-10.15-1.3-14.02-.56-.69,4.03.59,8.35,3.36,11.36s6.97,4.64,11.04,4.29c.05-.41.1-.81.17-1.22Z"/>
    <path class="cls-7" d="M123.62,91.5c-3.37.32-6.96.1-10.22-.74-2.09-.54-4.12-1.47-5.65-3"/>
    <polyline class="cls-7" points="104.49 124 104.5 124 104.92 104.91"/>
    <path class="cls-5" d="M74.81,72.31c-.84.37-1.76.38-2.63.11-1.36-.43-2.62-1.56-3.32-3.16-.94-2.15-.55-4.49.81-5.77.29-.28.63-.5,1.01-.67,2.15-.93,4.81.44,5.95,3.06,1.14,2.62.33,5.5-1.82,6.43Z"/>
    <path class="cls-3" d="M72.26,72.39s-.05.02-.08.03c-1.36-.43-2.62-1.56-3.32-3.16-.94-2.15-.55-4.49.81-5.77,1.48.07,3.05,1.29,3.87,3.17,1.05,2.4.47,4.97-1.28,5.73Z"/>
    <path class="cls-5" d="M97.61,60.87c-.76.34-1.6.34-2.38.1-1.23-.39-2.37-1.41-3.01-2.86-.85-1.95-.5-4.07.73-5.23.26-.25.57-.45.92-.61,1.95-.84,4.36.4,5.39,2.77,1.03,2.37.3,4.99-1.65,5.83Z"/>
    <path class="cls-3" d="M95.3,60.94s-.05.02-.07.03c-1.23-.39-2.37-1.41-3.01-2.86-.85-1.95-.5-4.07.73-5.23,1.34.06,2.76,1.17,3.51,2.87.95,2.18.43,4.51-1.16,5.19Z"/>
    <path class="cls-7" d="M4.3,103.37c2.85-3.48,5.31-7.18,7.37-10.71.01,0,0,0,0,0,.33-.55.64-1.09.94-1.63.49-.87.95-1.72,1.39-2.56.01-.01.01-.02.02-.03,1.79-3.41,3.17-6.5,4.15-8.85,0,0,.01-.02.01-.04.44-1.05.8-1.96,1.07-2.68.45-1.18.68-1.86.68-1.86"/>
    <path class="cls-1" d="M137.3,66c0,19.05-8.09,36.23-21.01,48.28-1.2,1.12-2.45,2.2-3.74,3.23-.14.11-.27.22-.41.33-.1.08-.2.16-.3.24-1.75,1.35-3.56,2.63-5.43,3.8-.05.04-.1.07-.16.09-.3.19-.6.37-.9.55-3.65,2.23-7.55,4.1-11.62,5.57-1.2.43-2.41.83-3.63,1.19-.18.06-.37.11-.55.16-5.8,1.67-11.92,2.56-18.25,2.56H15.86c-5.83,0-10.56-4.73-10.56-10.56v-55.44c.01-3.41.26-6.74.77-10,.06-.43.13-.86.2-1.29.07-.36.13-.72.21-1.08,1.07-5.65,2.86-11.04,5.27-16.08.58-1.22,1.21-2.43,1.87-3.61.96-1.74,2.01-3.42,3.13-5.05.25-.37.51-.75.77-1.12,2.36-3.31,5.02-6.4,7.93-9.21C37.32,7.08,53.49.02,71.3,0c12.77,0,24.7,3.63,34.79,9.92.28.16.54.32.79.49.49.31.98.63,1.46.96,2.87,1.95,5.57,4.12,8.09,6.49.02.01.03.02.04.03,1.65,1.55,3.21,3.17,4.71,4.88,10.03,11.58,16.12,26.69,16.12,43.23Z"/>
    <path class="cls-7" d="M34.94,63.95c1.36-2.72,1.72-5.12,2.4-7.98.52-2.18,1.14-4.23.63-6.47-.53-2.36-2.84-3.82-4.96-4.96-2.96-1.6-10.45-6.53-16.64-8.36"/>
  </g>
</svg>