<svg xmlns="http://www.w3.org/2000/svg" width="1177" height="579" fill="none" viewBox="0 0 1177 579"><g filter="url(#a)"><mask id="b" fill="#fff"><path d="M40 165c0 11.046 8.954 20 20 20h197c11.046 0 20-8.954 20-20v-51c0-11.046-8.954-20-20-20H60c-11.046 0-20 8.954-20 20z"/></mask><path fill="#fff" d="M40 165c0 11.046 8.954 20 20 20h197c11.046 0 20-8.954 20-20v-51c0-11.046-8.954-20-20-20H60c-11.046 0-20 8.954-20 20z"/><path fill="#24b360" d="M40 185h237zm237-91H40zM60 94c-13.255 0-24 10.745-24 24v43c0 13.255 10.745 24 24 24-8.837 0-16-8.954-16-20v-51c0-11.046 7.163-20 16-20m217 91V94z" mask="url(#b)"/></g><rect width="32" height="32" x="56" y="110" fill="#daede4" rx="8"/><path fill="#24b360" d="m78.762 122.348-8.613 8.42a.82.82 0 0 1-1.144 0l-3.768-3.684a.78.78 0 0 1-.175-.861.8.8 0 0 1 .437-.428.82.82 0 0 1 .882.171l3.197 3.125 8.041-7.859a.82.82 0 0 1 .572-.232c.215 0 .42.083.572.232a.78.78 0 0 1 0 1.118z"/><path fill="#6a7c92" d="m102.78 132.636-2.724 5.208V141h-1.092v-3.156l-2.736-5.208h1.212l2.064 4.236 2.064-4.236zm4.02 8.472a3.4 3.4 0 0 1-1.68-.42 3.05 3.05 0 0 1-1.176-1.188q-.42-.78-.42-1.8 0-1.008.432-1.776.444-.78 1.2-1.188a3.4 3.4 0 0 1 1.692-.42q.936 0 1.692.42.756.408 1.188 1.176.444.768.444 1.788t-.456 1.8a3.1 3.1 0 0 1-1.212 1.188q-.768.42-1.704.42m0-.96q.588 0 1.104-.276t.828-.828q.324-.552.324-1.344t-.312-1.344a2 2 0 0 0-.816-.816 2.24 2.24 0 0 0-1.092-.276q-.6 0-1.104.276a1.95 1.95 0 0 0-.792.816q-.3.552-.3 1.344 0 .804.288 1.356.3.552.792.828.492.264 1.08.264m10.64-5.724V141h-1.092v-.972q-.312.504-.876.792a2.7 2.7 0 0 1-1.224.276q-.768 0-1.38-.312a2.4 2.4 0 0 1-.972-.96q-.348-.636-.348-1.548v-3.852h1.08v3.708q0 .972.492 1.5.492.516 1.344.516.876 0 1.38-.54t.504-1.572v-3.612zm2.935 1.068q.288-.564.816-.876.54-.312 1.308-.312v1.128h-.288q-1.836 0-1.836 1.992V141h-1.092v-6.576h1.092zm6.176 2.196q0-1.008.408-1.764a2.96 2.96 0 0 1 1.116-1.188 3.1 3.1 0 0 1 1.596-.42q.864 0 1.5.372t.948.936v-1.2h1.104V141h-1.104v-1.224q-.324.576-.972.96-.636.372-1.488.372a3 3 0 0 1-1.584-.432 3.03 3.03 0 0 1-1.116-1.212q-.408-.78-.408-1.776m5.568.012q0-.744-.3-1.296a2.07 2.07 0 0 0-.816-.84 2.14 2.14 0 0 0-1.116-.3q-.612 0-1.116.288a2.1 2.1 0 0 0-.804.84q-.3.552-.3 1.296 0 .756.3 1.32.3.552.804.852a2.2 2.2 0 0 0 1.116.288q.612 0 1.116-.288.516-.3.816-.852.3-.564.3-1.308m4.042-2.064q.324-.564.96-.936.648-.384 1.5-.384.876 0 1.584.42.72.42 1.128 1.188.408.756.408 1.764 0 .996-.408 1.776a3 3 0 0 1-2.712 1.644q-.84 0-1.488-.372a2.76 2.76 0 0 1-.972-.948v4.332h-1.092v-9.696h1.092zm4.464 2.052q0-.744-.3-1.296a2.07 2.07 0 0 0-.816-.84 2.2 2.2 0 0 0-1.116-.288q-.6 0-1.116.3a2.15 2.15 0 0 0-.816.852q-.3.552-.3 1.284 0 .744.3 1.308.312.552.816.852.516.288 1.116.288.612 0 1.116-.288.516-.3.816-.852.3-.564.3-1.32m3.645-2.052q.324-.564.96-.936.648-.384 1.5-.384.876 0 1.584.42.72.42 1.128 1.188.408.756.408 1.764 0 .996-.408 1.776a3 3 0 0 1-2.712 1.644q-.84 0-1.488-.372a2.76 2.76 0 0 1-.972-.948v4.332h-1.092v-9.696h1.092zm4.464 2.052q0-.744-.3-1.296a2.07 2.07 0 0 0-.816-.84 2.2 2.2 0 0 0-1.116-.288q-.6 0-1.116.3a2.15 2.15 0 0 0-.816.852q-.3.552-.3 1.284 0 .744.3 1.308.312.552.816.852.516.288 1.116.288.612 0 1.116-.288.516-.3.816-.852.3-.564.3-1.32m6.317-4.332a.72.72 0 0 1-.528-.216.72.72 0 0 1-.216-.528q0-.312.216-.528a.72.72 0 0 1 .528-.216q.3 0 .504.216.216.216.216.528a.72.72 0 0 1-.216.528.67.67 0 0 1-.504.216m.528 1.068V141h-1.092v-6.576zm4.189 6.684q-.756 0-1.356-.252a2.36 2.36 0 0 1-.948-.72 1.95 1.95 0 0 1-.384-1.068h1.128q.048.492.456.804.42.312 1.092.312.624 0 .984-.276t.36-.696q0-.432-.384-.636-.384-.216-1.188-.42a10 10 0 0 1-1.2-.384 2.3 2.3 0 0 1-.792-.588q-.324-.396-.324-1.032 0-.504.3-.924t.852-.66a3 3 0 0 1 1.26-.252q1.092 0 1.764.552t.72 1.512h-1.092a1.12 1.12 0 0 0-.42-.828q-.372-.312-1.008-.312-.588 0-.936.252a.78.78 0 0 0-.348.66q0 .324.204.54.216.204.528.336.324.12.888.276.708.192 1.152.384.444.18.756.552.324.372.336.972 0 .54-.3.972t-.852.684q-.54.24-1.248.24m8.232-5.616q.288-.564.816-.876.54-.312 1.308-.312v1.128h-.288q-1.836 0-1.836 1.992V141h-1.092v-6.576H168zm9.385 1.968q0 .312-.036.66h-5.256q.06.972.66 1.524.612.54 1.476.54.708 0 1.176-.324.48-.336.672-.888h1.176a2.86 2.86 0 0 1-1.056 1.548q-.792.588-1.968.588-.936 0-1.68-.42a3 3 0 0 1-1.152-1.188q-.42-.78-.42-1.8t.408-1.788a2.84 2.84 0 0 1 1.14-1.176q.744-.42 1.704-.42.936 0 1.656.408t1.104 1.128q.396.708.396 1.608m-1.128-.228q0-.624-.276-1.068a1.74 1.74 0 0 0-.756-.684q-.468-.24-1.044-.24-.828 0-1.416.528-.576.528-.66 1.464zm2.161.456q0-1.008.408-1.764a2.96 2.96 0 0 1 1.116-1.188 3.1 3.1 0 0 1 1.596-.42q.864 0 1.5.372t.948.936v-1.2h1.104V141h-1.104v-1.224q-.324.576-.972.96-.636.372-1.488.372a3 3 0 0 1-1.584-.432 3.03 3.03 0 0 1-1.116-1.212q-.408-.78-.408-1.776m5.568.012q0-.744-.3-1.296a2.07 2.07 0 0 0-.816-.84 2.14 2.14 0 0 0-1.116-.3q-.612 0-1.116.288a2.1 2.1 0 0 0-.804.84q-.3.552-.3 1.296 0 .756.3 1.32.3.552.804.852a2.2 2.2 0 0 0 1.116.288q.612 0 1.116-.288.516-.3.816-.852.3-.564.3-1.308m2.542-.012q0-1.008.408-1.764a2.96 2.96 0 0 1 1.116-1.188q.72-.42 1.608-.42.768 0 1.428.36.66.348 1.008.924v-3.48h1.104V141h-1.104v-1.236a2.6 2.6 0 0 1-.96.972q-.636.372-1.488.372a3.04 3.04 0 0 1-1.596-.432 3.03 3.03 0 0 1-1.116-1.212q-.408-.78-.408-1.776m5.568.012q0-.744-.3-1.296a2.07 2.07 0 0 0-.816-.84 2.14 2.14 0 0 0-1.116-.3q-.612 0-1.116.288a2.1 2.1 0 0 0-.804.84q-.3.552-.3 1.296 0 .756.3 1.32.3.552.804.852a2.2 2.2 0 0 0 1.116.288q.612 0 1.116-.288.516-.3.816-.852.3-.564.3-1.308m8.613-3.276-3.96 9.672h-1.128l1.296-3.168-2.652-6.504h1.212l2.064 5.328 2.04-5.328zm5.629.9v3.876q0 .48.204.684.204.192.708.192h.804V141h-.984q-.912 0-1.368-.42t-.456-1.38v-3.876h-.852v-.9h.852v-1.656h1.092v1.656h1.716v.9zm5.907 5.784a3.4 3.4 0 0 1-1.68-.42 3.05 3.05 0 0 1-1.176-1.188q-.42-.78-.42-1.8 0-1.008.432-1.776.444-.78 1.2-1.188a3.4 3.4 0 0 1 1.692-.42q.936 0 1.692.42.756.408 1.188 1.176.444.768.444 1.788t-.456 1.8a3.1 3.1 0 0 1-1.212 1.188q-.768.42-1.704.42m0-.96q.588 0 1.104-.276t.828-.828q.324-.552.324-1.344t-.312-1.344a2 2 0 0 0-.816-.816 2.24 2.24 0 0 0-1.092-.276q-.6 0-1.104.276a1.95 1.95 0 0 0-.792.816q-.3.552-.3 1.344 0 .804.288 1.356.3.552.792.828.492.264 1.08.264m7.599-2.46q0-1.008.408-1.764a2.96 2.96 0 0 1 1.116-1.188q.72-.42 1.608-.42.768 0 1.428.36.66.348 1.008.924v-3.48h1.104V141h-1.104v-1.236a2.6 2.6 0 0 1-.96.972q-.636.372-1.488.372a3.04 3.04 0 0 1-1.596-.432 3.03 3.03 0 0 1-1.116-1.212q-.408-.78-.408-1.776m5.568.012q0-.744-.3-1.296a2.07 2.07 0 0 0-.816-.84 2.14 2.14 0 0 0-1.116-.3q-.612 0-1.116.288a2.1 2.1 0 0 0-.804.84q-.3.552-.3 1.296 0 .756.3 1.32.3.552.804.852a2.2 2.2 0 0 0 1.116.288q.612 0 1.116-.288.516-.3.816-.852.3-.564.3-1.308m8.95-.24q0 .312-.036.66h-5.256q.06.972.66 1.524.612.54 1.476.54.708 0 1.176-.324.48-.336.672-.888h1.176a2.86 2.86 0 0 1-1.056 1.548q-.792.588-1.968.588-.936 0-1.68-.42a3 3 0 0 1-1.152-1.188q-.42-.78-.42-1.8t.408-1.788a2.84 2.84 0 0 1 1.14-1.176q.744-.42 1.704-.42.936 0 1.656.408t1.104 1.128q.396.708.396 1.608m-1.128-.228q0-.624-.276-1.068a1.74 1.74 0 0 0-.756-.684q-.468-.24-1.044-.24-.828 0-1.416.528-.576.528-.66 1.464zm3.661-1.596q.324-.564.96-.936.648-.384 1.5-.384.876 0 1.584.42.72.42 1.128 1.188.408.756.408 1.764 0 .996-.408 1.776a3 3 0 0 1-2.712 1.644q-.84 0-1.488-.372a2.76 2.76 0 0 1-.972-.948v4.332h-1.092v-9.696h1.092zm4.464 2.052q0-.744-.3-1.296a2.07 2.07 0 0 0-.816-.84 2.2 2.2 0 0 0-1.116-.288q-.6 0-1.116.3a2.15 2.15 0 0 0-.816.852q-.3.552-.3 1.284 0 .744.3 1.308.312.552.816.852.516.288 1.116.288.612 0 1.116-.288.516-.3.816-.852.3-.564.3-1.32m3.645-5.568V141h-1.092v-8.88zm4.729 8.988a3.4 3.4 0 0 1-1.68-.42 3.05 3.05 0 0 1-1.176-1.188q-.42-.78-.42-1.8 0-1.008.432-1.776.444-.78 1.2-1.188a3.4 3.4 0 0 1 1.692-.42q.936 0 1.692.42.756.408 1.188 1.176.444.768.444 1.788t-.456 1.8a3.1 3.1 0 0 1-1.212 1.188q-.768.42-1.704.42m0-.96q.588 0 1.104-.276t.828-.828q.324-.552.324-1.344t-.312-1.344a2 2 0 0 0-.816-.816 2.24 2.24 0 0 0-1.092-.276q-.6 0-1.104.276a1.95 1.95 0 0 0-.792.816q-.3.552-.3 1.344 0 .804.288 1.356.3.552.792.828.492.264 1.08.264m10.472-5.724-3.96 9.672h-1.128l1.296-3.168-2.652-6.504h1.212l2.064 5.328 2.04-5.328z"/><path fill="#373c4d" d="M101.364 118.716q.672.12 1.14.708t.468 1.332q0 .636-.336 1.152-.324.504-.948.804-.624.288-1.452.288H96.9v-8.34h3.18q.852 0 1.464.288t.924.78q.312.48.312 1.08 0 .72-.384 1.2t-1.032.708m-3.096-.552h1.692q.672 0 1.044-.3.384-.312.384-.888 0-.564-.384-.876-.372-.324-1.044-.324h-1.692zm1.848 3.72q.696 0 1.092-.336t.396-.936q0-.612-.42-.972t-1.116-.36h-1.8v2.604zm10.331-5.496V123h-1.368v-.78q-.324.408-.852.648a2.7 2.7 0 0 1-1.104.228q-.78 0-1.404-.324a2.4 2.4 0 0 1-.972-.96q-.348-.636-.348-1.536v-3.888h1.356v3.684q0 .888.444 1.368.444.468 1.212.468t1.212-.468q.456-.48.456-1.368v-3.684zm2.501-.876a.85.85 0 0 1-.624-.252.85.85 0 0 1-.252-.624q0-.372.252-.624a.85.85 0 0 1 .624-.252q.36 0 .612.252a.85.85 0 0 1 .252.624.85.85 0 0 1-.252.624.83.83 0 0 1-.612.252m.672.876V123h-1.368v-6.612zm3.164-2.268V123h-1.368v-8.88zm1.34 5.544q0-.996.408-1.764a3.05 3.05 0 0 1 2.724-1.62q.648 0 1.272.288.636.276 1.008.744v-3.192h1.38V123h-1.38v-.996a2.55 2.55 0 0 1-.936.792q-.588.312-1.356.312a3 3 0 0 1-1.584-.432 3.2 3.2 0 0 1-1.128-1.224q-.408-.792-.408-1.788m5.412.024q0-.684-.288-1.188a1.94 1.94 0 0 0-.732-.768 1.93 1.93 0 0 0-.984-.264q-.528 0-.984.264-.456.252-.744.756-.276.492-.276 1.176t.276 1.2q.288.516.744.792a1.97 1.97 0 0 0 1.968 0q.456-.264.732-.768.288-.516.288-1.2m9.042 3.396q-.84 0-1.512-.288-.672-.3-1.056-.84a2.1 2.1 0 0 1-.384-1.26h1.464q.048.54.42.888.384.348 1.068.348.708 0 1.104-.336a1.13 1.13 0 0 0 .396-.888q0-.42-.252-.684a1.6 1.6 0 0 0-.612-.408q-.36-.144-1.008-.312a10.5 10.5 0 0 1-1.332-.432 2.25 2.25 0 0 1-.864-.696q-.36-.468-.36-1.248 0-.72.36-1.26a2.3 2.3 0 0 1 1.008-.828q.648-.288 1.5-.288 1.212 0 1.98.612.78.6.864 1.656h-1.512q-.036-.456-.432-.78t-1.044-.324q-.588 0-.96.3t-.372.864q0 .384.228.636.24.24.6.384t.984.312q.828.228 1.344.456.528.228.888.708.372.468.372 1.26 0 .636-.348 1.2-.336.564-.996.912-.648.336-1.536.336m10.482-6.696V123h-1.368v-.78q-.324.408-.852.648a2.7 2.7 0 0 1-1.104.228q-.78 0-1.404-.324a2.4 2.4 0 0 1-.972-.96q-.348-.636-.348-1.536v-3.888h1.356v3.684q0 .888.444 1.368.444.468 1.212.468t1.212-.468q.456-.48.456-1.368v-3.684zm1.349 3.3q0-1.02.408-1.788.42-.78 1.152-1.2t1.68-.42q1.2 0 1.98.576.792.564 1.068 1.62h-1.476a1.56 1.56 0 0 0-.576-.768q-.396-.276-.996-.276-.84 0-1.344.6-.492.588-.492 1.656t.492 1.668q.504.6 1.344.6 1.188 0 1.572-1.044h1.476q-.288 1.008-1.08 1.608-.792.588-1.968.588-.948 0-1.68-.42a3.1 3.1 0 0 1-1.152-1.2q-.408-.78-.408-1.8m7.195 0q0-1.02.408-1.788.42-.78 1.152-1.2t1.68-.42q1.2 0 1.98.576.792.564 1.068 1.62h-1.476a1.56 1.56 0 0 0-.576-.768q-.396-.276-.996-.276-.84 0-1.344.6-.492.588-.492 1.656t.492 1.668q.504.6 1.344.6 1.188 0 1.572-1.044h1.476q-.288 1.008-1.08 1.608-.792.588-1.968.588-.948 0-1.68-.42a3.1 3.1 0 0 1-1.152-1.2q-.408-.78-.408-1.8m13.711-.156q0 .372-.048.672h-5.052q.06.792.588 1.272t1.296.48q1.104 0 1.56-.924h1.476a3 3 0 0 1-1.092 1.5q-.78.576-1.944.576-.948 0-1.704-.42a3.14 3.14 0 0 1-1.176-1.2q-.42-.78-.42-1.8t.408-1.788q.42-.78 1.164-1.2.756-.42 1.728-.42.936 0 1.668.408t1.14 1.152q.408.732.408 1.692m-1.428-.432q-.012-.756-.54-1.212t-1.308-.456q-.708 0-1.212.456-.504.444-.6 1.212zm5.175 4.008q-.78 0-1.404-.276a2.54 2.54 0 0 1-.972-.768 1.94 1.94 0 0 1-.384-1.092h1.416a1 1 0 0 0 .396.708q.372.276.924.276.576 0 .888-.216.324-.228.324-.576 0-.372-.36-.552-.348-.18-1.116-.396a11 11 0 0 1-1.212-.396 2.2 2.2 0 0 1-.816-.588q-.336-.396-.336-1.044 0-.528.312-.96.312-.444.888-.696.588-.252 1.344-.252 1.128 0 1.812.576.696.564.744 1.548h-1.368a.97.97 0 0 0-.36-.708q-.324-.264-.876-.264-.54 0-.828.204a.63.63 0 0 0-.288.54q0 .264.192.444t.468.288q.276.096.816.252.72.192 1.176.396.468.192.804.576t.348 1.02q0 .564-.312 1.008t-.888.696q-.564.252-1.332.252m6.41 0q-.78 0-1.404-.276a2.54 2.54 0 0 1-.972-.768 1.94 1.94 0 0 1-.384-1.092h1.416a1 1 0 0 0 .396.708q.372.276.924.276.576 0 .888-.216.324-.228.324-.576 0-.372-.36-.552-.348-.18-1.116-.396a11 11 0 0 1-1.212-.396 2.2 2.2 0 0 1-.816-.588q-.336-.396-.336-1.044 0-.528.312-.96.312-.444.888-.696.588-.252 1.344-.252 1.128 0 1.812.576.696.564.744 1.548h-1.368a.97.97 0 0 0-.36-.708q-.324-.264-.876-.264-.54 0-.828.204a.63.63 0 0 0-.288.54q0 .264.192.444t.468.288q.276.096.816.252.72.192 1.176.396.468.192.804.576t.348 1.02q0 .564-.312 1.008t-.888.696q-.564.252-1.332.252m6.782-5.604h-1.224V123h-1.38v-5.496h-.78v-1.116h.78v-.468q0-1.14.6-1.656.612-.528 1.908-.528v1.14q-.624 0-.876.24-.252.228-.252.804v.468h1.224zm7.2-1.116V123h-1.368v-.78q-.324.408-.852.648a2.7 2.7 0 0 1-1.104.228q-.78 0-1.404-.324a2.4 2.4 0 0 1-.972-.96q-.348-.636-.348-1.536v-3.888h1.356v3.684q0 .888.444 1.368.444.468 1.212.468t1.212-.468q.456-.48.456-1.368v-3.684zm3.173-2.268V123h-1.368v-8.88z"/><path fill="#6a7c92" d="M237.38 158.6v-.83h1.88V165h-.92v-6.4zm3.443 2.71q0-1.72.56-2.68.56-.97 1.96-.97 1.39 0 1.95.97.56.96.56 2.68 0 1.75-.56 2.72t-1.95.97q-1.4 0-1.96-.97t-.56-2.72m4.13 0q0-.87-.12-1.47-.11-.61-.47-.98-.35-.37-1.02-.37-.68 0-1.04.37-.35.37-.47.98-.11.6-.11 1.47 0 .9.11 1.51.12.61.47.98.36.37 1.04.37.67 0 1.02-.37.36-.37.47-.98.12-.61.12-1.51m2.149 0q0-1.72.56-2.68.56-.97 1.96-.97 1.39 0 1.95.97.56.96.56 2.68 0 1.75-.56 2.72t-1.95.97q-1.4 0-1.96-.97t-.56-2.72m4.13 0q0-.87-.12-1.47-.11-.61-.47-.98-.35-.37-1.02-.37-.68 0-1.04.37-.35.37-.47.98-.11.6-.11 1.47 0 .9.11 1.51.12.61.47.98.36.37 1.04.37.67 0 1.02-.37.36-.37.47-.98.12-.61.12-1.51m1.95-1.91q0-.68.41-1.08.41-.41 1.05-.41.639 0 1.05.41.41.4.41 1.08 0 .69-.41 1.1-.411.4-1.05.4-.64 0-1.05-.4-.41-.41-.41-1.1m5.84-1.38-4.05 6.98h-.9l4.05-6.98zm-4.38.45a.67.67 0 0 0-.54.24q-.19.23-.19.69t.19.7q.2.24.54.24.339 0 .54-.24.2-.25.2-.7 0-.46-.2-.69a.67.67 0 0 0-.54-.24m2.37 5.15q0-.69.41-1.09.41-.41 1.05-.41t1.04.41q.41.4.41 1.09 0 .68-.41 1.09-.4.41-1.04.41t-1.05-.4q-.41-.41-.41-1.1m1.45-.93a.67.67 0 0 0-.54.24q-.2.23-.2.69 0 .45.2.69a.68.68 0 0 0 .54.23.68.68 0 0 0 .54-.23q.2-.24.2-.69 0-.46-.2-.69a.67.67 0 0 0-.54-.24"/><path stroke="#24b360" stroke-linecap="round" stroke-width="3" d="M100 162h129"/><g filter="url(#c)"><rect width="221" height="169" x="815" y="366" fill="#fff" rx="20"/></g><path fill="#373c4d" d="M855.072 386.636v.888h-2.28V395H851.7v-7.476h-2.292v-.888zm7.008 1.788-3.96 9.672h-1.128l1.296-3.168-2.652-6.504h1.212l2.064 5.328 2.04-5.328zm2.19 1.212q.324-.564.96-.936.648-.384 1.5-.384.876 0 1.584.42.72.42 1.128 1.188.408.756.408 1.764 0 .996-.408 1.776a3 3 0 0 1-2.712 1.644q-.84 0-1.488-.372a2.76 2.76 0 0 1-.972-.948v4.332h-1.092v-9.696h1.092zm4.464 2.052q0-.744-.3-1.296a2.07 2.07 0 0 0-.816-.84 2.2 2.2 0 0 0-1.116-.288q-.6 0-1.116.3a2.15 2.15 0 0 0-.816.852q-.3.552-.3 1.284 0 .744.3 1.308.312.552.816.852.516.288 1.116.288.612 0 1.116-.288.516-.3.816-.852.3-.564.3-1.32m5.421 3.42a3.4 3.4 0 0 1-1.68-.42 3.05 3.05 0 0 1-1.176-1.188q-.42-.78-.42-1.8 0-1.008.432-1.776.444-.78 1.2-1.188a3.4 3.4 0 0 1 1.692-.42q.936 0 1.692.42.756.408 1.188 1.176.444.768.444 1.788t-.456 1.8a3.1 3.1 0 0 1-1.212 1.188q-.768.42-1.704.42m0-.96q.588 0 1.104-.276t.828-.828q.324-.552.324-1.344t-.312-1.344a2 2 0 0 0-.816-.816 2.24 2.24 0 0 0-1.092-.276q-.6 0-1.104.276a1.95 1.95 0 0 0-.792.816q-.3.552-.3 1.344 0 .804.288 1.356.3.552.792.828.492.264 1.08.264m7.52-5.832q.852 0 1.488.372.648.372.96.936v-1.2h1.104v6.72q0 .9-.384 1.596-.384.708-1.104 1.104-.708.396-1.656.396-1.296 0-2.16-.612a2.4 2.4 0 0 1-1.02-1.668h1.08q.18.6.744.96.564.372 1.356.372.9 0 1.464-.564.576-.564.576-1.584v-1.38a2.6 2.6 0 0 1-.96.96q-.636.384-1.488.384a3.04 3.04 0 0 1-1.596-.432 3.03 3.03 0 0 1-1.116-1.212q-.408-.78-.408-1.776 0-1.008.408-1.764a2.96 2.96 0 0 1 1.116-1.188 3.1 3.1 0 0 1 1.596-.42m2.448 3.384q0-.744-.3-1.296a2.07 2.07 0 0 0-.816-.84 2.14 2.14 0 0 0-1.116-.3q-.612 0-1.116.288a2.1 2.1 0 0 0-.804.84q-.3.552-.3 1.296 0 .756.3 1.32.3.552.804.852a2.2 2.2 0 0 0 1.116.288q.612 0 1.116-.288.516-.3.816-.852.3-.564.3-1.308m4.041-2.208q.288-.564.816-.876.54-.312 1.308-.312v1.128H890q-1.836 0-1.836 1.992V395h-1.092v-6.576h1.092zm2.977 2.196q0-1.008.408-1.764a2.96 2.96 0 0 1 1.116-1.188 3.1 3.1 0 0 1 1.596-.42q.864 0 1.5.372t.948.936v-1.2h1.104V395h-1.104v-1.224q-.324.576-.972.96-.636.372-1.488.372a3 3 0 0 1-1.584-.432 3.03 3.03 0 0 1-1.116-1.212q-.408-.78-.408-1.776m5.568.012q0-.744-.3-1.296a2.07 2.07 0 0 0-.816-.84 2.14 2.14 0 0 0-1.116-.3q-.612 0-1.116.288a2.1 2.1 0 0 0-.804.84q-.3.552-.3 1.296 0 .756.3 1.32.3.552.804.852a2.2 2.2 0 0 0 1.116.288q.612 0 1.116-.288.516-.3.816-.852.3-.564.3-1.308m4.041-2.064q.324-.564.96-.936.648-.384 1.5-.384.876 0 1.584.42.72.42 1.128 1.188.408.756.408 1.764 0 .996-.408 1.776a3 3 0 0 1-2.712 1.644q-.84 0-1.488-.372a2.76 2.76 0 0 1-.972-.948v4.332h-1.092v-9.696h1.092zm4.464 2.052q0-.744-.3-1.296a2.07 2.07 0 0 0-.816-.84 2.2 2.2 0 0 0-1.116-.288q-.6 0-1.116.3a2.15 2.15 0 0 0-.816.852q-.3.552-.3 1.284 0 .744.3 1.308.312.552.816.852.516.288 1.116.288.612 0 1.116-.288.516-.3.816-.852.3-.564.3-1.32m5.818-3.384q.744 0 1.344.324.6.312.936.948.348.636.348 1.548V395h-1.08v-3.72q0-.984-.492-1.5-.492-.528-1.344-.528-.864 0-1.38.54-.504.54-.504 1.572V395h-1.092v-8.88h1.092v3.24a2.16 2.16 0 0 1 .888-.78 2.9 2.9 0 0 1 1.284-.276m10.076.12-3.96 9.672h-1.128l1.296-3.168-2.652-6.504h1.212l2.064 5.328 2.04-5.328z"/><path fill="#6a7c92" d="M879.016 450.636V459h-1.092v-8.364zm5.065 1.668q1.2 0 1.944.732.744.72.744 2.088V459h-1.08v-3.72q0-.984-.492-1.5-.492-.528-1.344-.528-.864 0-1.38.54-.504.54-.504 1.572V459h-1.092v-6.576h1.092v.936q.324-.504.876-.78a2.8 2.8 0 0 1 1.236-.276m5.804 1.02v3.876q0 .48.204.684.204.192.708.192h.804V459h-.984q-.912 0-1.368-.42t-.456-1.38v-3.876h-.852v-.9h.852v-1.656h1.092v1.656h1.716v.9zm9.039 2.136q0 .312-.036.66h-5.256q.06.972.66 1.524.612.54 1.476.54.708 0 1.176-.324.48-.336.672-.888h1.176a2.86 2.86 0 0 1-1.056 1.548q-.792.588-1.968.588-.936 0-1.68-.42a3 3 0 0 1-1.152-1.188q-.42-.78-.42-1.8t.408-1.788a2.84 2.84 0 0 1 1.14-1.176q.744-.42 1.704-.42.936 0 1.656.408t1.104 1.128q.396.708.396 1.608m-1.128-.228q0-.624-.276-1.068a1.74 1.74 0 0 0-.756-.684q-.468-.24-1.044-.24-.828 0-1.416.528-.576.528-.66 1.464zm3.661-1.74q.288-.564.816-.876.54-.312 1.308-.312v1.128h-.288q-1.836 0-1.836 1.992V459h-1.092v-6.576h1.092zm10.772 1.2q.456.072.828.372.384.3.6.744.228.444.228.948 0 .636-.324 1.152-.324.504-.948.804-.612.288-1.452.288h-3.12v-8.364h3q.852 0 1.452.288.6.276.9.756t.3 1.08q0 .744-.408 1.236a2.23 2.23 0 0 1-1.056.696m-3.096-.444h1.836q.768 0 1.188-.36t.42-.996-.42-.996-1.212-.36h-1.812zm1.932 3.852q.816 0 1.272-.384t.456-1.068q0-.696-.48-1.092-.48-.408-1.284-.408h-1.896v2.952zm7.204 1.008a3.4 3.4 0 0 1-1.68-.42 3.05 3.05 0 0 1-1.176-1.188q-.42-.78-.42-1.8 0-1.008.432-1.776.444-.78 1.2-1.188a3.4 3.4 0 0 1 1.692-.42q.936 0 1.692.42.756.408 1.188 1.176.444.768.444 1.788t-.456 1.8a3.1 3.1 0 0 1-1.212 1.188q-.768.42-1.704.42m0-.96q.588 0 1.104-.276t.828-.828q.324-.552.324-1.344t-.312-1.344a2 2 0 0 0-.816-.816 2.24 2.24 0 0 0-1.092-.276q-.6 0-1.104.276a1.95 1.95 0 0 0-.792.816q-.3.552-.3 1.344 0 .804.288 1.356.3.552.792.828.492.264 1.08.264m5.899-8.028V459h-1.092v-8.88zm1.453 5.568q0-1.008.408-1.764a2.96 2.96 0 0 1 1.116-1.188q.72-.42 1.608-.42.768 0 1.428.36.66.348 1.008.924v-3.48h1.104V459h-1.104v-1.236a2.6 2.6 0 0 1-.96.972q-.636.372-1.488.372a3.04 3.04 0 0 1-1.596-.432 3.03 3.03 0 0 1-1.116-1.212q-.408-.78-.408-1.776m5.568.012q0-.744-.3-1.296a2.07 2.07 0 0 0-.816-.84 2.14 2.14 0 0 0-1.116-.3q-.612 0-1.116.288a2.1 2.1 0 0 0-.804.84q-.3.552-.3 1.296 0 .756.3 1.32.3.552.804.852a2.2 2.2 0 0 0 1.116.288q.612 0 1.116-.288.516-.3.816-.852.3-.564.3-1.308m10.709-1.56v.924h-4.788v-.924zm4.937 3.984a57 57 0 0 0 2.388-2.004 9.8 9.8 0 0 0 1.452-1.644q.6-.864.6-1.692 0-.78-.384-1.224-.372-.456-1.212-.456-.816 0-1.272.516-.444.504-.48 1.356h-1.056q.048-1.344.816-2.076t1.98-.732q1.236 0 1.956.684.732.684.732 1.884 0 .996-.6 1.944a8.6 8.6 0 0 1-1.344 1.656 35 35 0 0 1-1.932 1.656h4.128v.912h-5.772zm6.902 0a57 57 0 0 0 2.388-2.004 9.8 9.8 0 0 0 1.452-1.644q.6-.864.6-1.692 0-.78-.384-1.224-.372-.456-1.212-.456-.816 0-1.272.516-.444.504-.48 1.356h-1.056q.048-1.344.816-2.076t1.98-.732q1.236 0 1.956.684.732.684.732 1.884 0 .996-.6 1.944a8.6 8.6 0 0 1-1.344 1.656 35 35 0 0 1-1.932 1.656h4.128v.912h-5.772zm8.306-4.488q.324-.564.96-.936.648-.384 1.5-.384.876 0 1.584.42.72.42 1.128 1.188.408.756.408 1.764 0 .996-.408 1.776a3 3 0 0 1-2.712 1.644q-.84 0-1.488-.372a2.76 2.76 0 0 1-.972-.948v4.332h-1.092v-9.696h1.092zm4.464 2.052q0-.744-.3-1.296a2.07 2.07 0 0 0-.816-.84 2.2 2.2 0 0 0-1.116-.288q-.6 0-1.116.3a2.15 2.15 0 0 0-.816.852q-.3.552-.3 1.284 0 .744.3 1.308.312.552.816.852.516.288 1.116.288.612 0 1.116-.288.516-.3.816-.852.3-.564.3-1.32m5.986 3.312-1.56-2.448-1.5 2.448h-1.14l2.124-3.264-2.124-3.312h1.236l1.56 2.436 1.488-2.436h1.14l-2.112 3.252 2.124 3.324zM872.016 505.636V514h-1.092v-8.364zm5.065 1.668q1.2 0 1.944.732.744.72.744 2.088V514h-1.08v-3.72q0-.984-.492-1.5-.492-.528-1.344-.528-.864 0-1.38.54-.504.54-.504 1.572V514h-1.092v-6.576h1.092v.936q.324-.504.876-.78a2.8 2.8 0 0 1 1.236-.276m5.804 1.02v3.876q0 .48.204.684.204.192.708.192h.804V514h-.984q-.912 0-1.368-.42t-.456-1.38v-3.876h-.852v-.9h.852v-1.656h1.092v1.656h1.716v.9zm9.039 2.136q0 .312-.036.66h-5.256q.06.972.66 1.524.612.54 1.476.54.708 0 1.176-.324.48-.336.672-.888h1.176a2.86 2.86 0 0 1-1.056 1.548q-.792.588-1.968.588-.936 0-1.68-.42a3 3 0 0 1-1.152-1.188q-.42-.78-.42-1.8t.408-1.788a2.84 2.84 0 0 1 1.14-1.176q.744-.42 1.704-.42.936 0 1.656.408t1.104 1.128q.396.708.396 1.608m-1.128-.228q0-.624-.276-1.068a1.74 1.74 0 0 0-.756-.684q-.468-.24-1.044-.24-.828 0-1.416.528-.576.528-.66 1.464zm3.661-1.74q.288-.564.816-.876.54-.312 1.308-.312v1.128h-.288q-1.836 0-1.836 1.992V514h-1.092v-6.576h1.092zM905.445 514l-1.992-3.42h-1.32V514h-1.092v-8.364h2.7q.948 0 1.596.324.66.324.984.876t.324 1.26q0 .864-.504 1.524-.492.66-1.488.876l2.1 3.504zm-3.312-4.296h1.608q.888 0 1.332-.432.444-.444.444-1.176 0-.744-.444-1.152-.432-.408-1.332-.408h-1.608zm12.209.756q0 .312-.036.66h-5.256q.06.972.66 1.524.612.54 1.476.54.708 0 1.176-.324.48-.336.672-.888h1.176a2.86 2.86 0 0 1-1.056 1.548q-.792.588-1.968.588-.936 0-1.68-.42a3 3 0 0 1-1.152-1.188q-.42-.78-.42-1.8t.408-1.788a2.84 2.84 0 0 1 1.14-1.176q.744-.42 1.704-.42.936 0 1.656.408t1.104 1.128q.396.708.396 1.608m-1.128-.228q0-.624-.276-1.068a1.74 1.74 0 0 0-.756-.684q-.468-.24-1.044-.24-.828 0-1.416.528-.576.528-.66 1.464zm5.281-2.916q.852 0 1.488.372.648.372.96.936v-1.2h1.104v6.72q0 .9-.384 1.596-.384.708-1.104 1.104-.708.396-1.656.396-1.296 0-2.16-.612a2.4 2.4 0 0 1-1.02-1.668h1.08q.18.6.744.96.564.372 1.356.372.9 0 1.464-.564.576-.564.576-1.584v-1.38a2.6 2.6 0 0 1-.96.96q-.636.384-1.488.384a3.04 3.04 0 0 1-1.596-.432 3.03 3.03 0 0 1-1.116-1.212q-.408-.78-.408-1.776 0-1.008.408-1.764a2.96 2.96 0 0 1 1.116-1.188 3.1 3.1 0 0 1 1.596-.42m2.448 3.384q0-.744-.3-1.296a2.07 2.07 0 0 0-.816-.84 2.14 2.14 0 0 0-1.116-.3q-.612 0-1.116.288a2.1 2.1 0 0 0-.804.84q-.3.552-.3 1.296 0 .756.3 1.32.3.552.804.852a2.2 2.2 0 0 0 1.116.288q.612 0 1.116-.288.516-.3.816-.852.3-.564.3-1.308m8.782-3.276V514h-1.092v-.972q-.312.504-.876.792a2.7 2.7 0 0 1-1.224.276q-.768 0-1.38-.312a2.4 2.4 0 0 1-.972-.96q-.348-.636-.348-1.548v-3.852h1.08v3.708q0 .972.492 1.5.492.516 1.344.516.876 0 1.38-.54t.504-1.572v-3.612zm2.936-2.304V514h-1.092v-8.88zm1.453 5.568q0-1.008.408-1.764a2.96 2.96 0 0 1 1.116-1.188 3.1 3.1 0 0 1 1.596-.42q.864 0 1.5.372t.948.936v-1.2h1.104V514h-1.104v-1.224q-.324.576-.972.96-.636.372-1.488.372a3 3 0 0 1-1.584-.432 3.03 3.03 0 0 1-1.116-1.212q-.408-.78-.408-1.776m5.568.012q0-.744-.3-1.296a2.07 2.07 0 0 0-.816-.84 2.14 2.14 0 0 0-1.116-.3q-.612 0-1.116.288a2.1 2.1 0 0 0-.804.84q-.3.552-.3 1.296 0 .756.3 1.32.3.552.804.852a2.2 2.2 0 0 0 1.116.288q.612 0 1.116-.288.516-.3.816-.852.3-.564.3-1.308m4.041-2.208q.288-.564.816-.876.54-.312 1.308-.312v1.128h-.288q-1.836 0-1.836 1.992V514h-1.092v-6.576h1.092zm11.144.648v.924h-4.788v-.924zm4.78-2.82v-.996h2.256V514h-1.104v-7.68zm8.968 1.068q-.264-1.332-1.644-1.332-1.068 0-1.596.828-.528.816-.516 2.7.276-.624.912-.972.648-.36 1.44-.36 1.236 0 1.968.768.744.768.744 2.124 0 .816-.324 1.464a2.4 2.4 0 0 1-.96 1.032q-.636.384-1.548.384-1.236 0-1.932-.552t-.972-1.524-.276-2.4q0-4.404 3.072-4.404 1.176 0 1.848.636t.792 1.608zm-1.632 1.788q-.516 0-.972.216a1.73 1.73 0 0 0-.744.636q-.276.42-.276 1.032 0 .912.528 1.488.528.564 1.512.564.84 0 1.332-.516.504-.528.504-1.416 0-.936-.48-1.464-.48-.54-1.404-.54m5.685-.54q.324-.564.96-.936.648-.384 1.5-.384.876 0 1.584.42.72.42 1.128 1.188.408.756.408 1.764 0 .996-.408 1.776a3 3 0 0 1-2.712 1.644q-.84 0-1.488-.372a2.76 2.76 0 0 1-.972-.948v4.332h-1.092v-9.696h1.092zm4.464 2.052q0-.744-.3-1.296a2.07 2.07 0 0 0-.816-.84 2.2 2.2 0 0 0-1.116-.288q-.6 0-1.116.3a2.15 2.15 0 0 0-.816.852q-.3.552-.3 1.284 0 .744.3 1.308.312.552.816.852.516.288 1.116.288.612 0 1.116-.288.516-.3.816-.852.3-.564.3-1.32m5.986 3.312-1.56-2.448-1.5 2.448h-1.14l2.124-3.264-2.124-3.312h1.236l1.56 2.436 1.488-2.436h1.14l-2.112 3.252 2.124 3.324zM840.375 387.643v1.714a.646.646 0 0 1-.643.643.644.644 0 0 1-.643-.643v-1.071h-2.571v6.428h1.071a.643.643 0 0 1 0 1.286h-3.428a.646.646 0 0 1-.643-.643.644.644 0 0 1 .643-.643h1.071v-6.428h-2.571v1.071a.643.643 0 0 1-1.286 0v-1.714a.646.646 0 0 1 .643-.643h7.714a.646.646 0 0 1 .643.643"/><path fill="#373c4d" d="M917.886 498h-1.477l4.273-11.636h1.454L926.409 498h-1.477l-3.477-9.795h-.091zm.546-4.545h5.954v1.25h-5.954zm12.176 4.75a3.55 3.55 0 0 1-1.506-.313 2.6 2.6 0 0 1-1.074-.915q-.397-.602-.397-1.454 0-.75.295-1.216.295-.472.79-.739.494-.266 1.091-.398.602-.135 1.21-.215.795-.103 1.29-.154.5-.057.727-.187.233-.13.233-.455v-.045q0-.842-.46-1.307-.454-.466-1.381-.466-.96 0-1.506.42-.545.421-.767.898l-1.272-.454q.34-.796.909-1.239a3.4 3.4 0 0 1 1.25-.625 5.2 5.2 0 0 1 1.341-.182q.42 0 .966.102.55.097 1.062.404.518.306.858.926t.341 1.659V498h-1.341v-1.182h-.068a2.4 2.4 0 0 1-.455.608q-.318.324-.846.551-.529.228-1.29.228m.204-1.205q.797 0 1.341-.312.552-.314.83-.807.284-.494.284-1.04v-1.227q-.086.102-.375.187a6 6 0 0 1-.659.142q-.37.057-.722.102-.346.04-.562.069a5 5 0 0 0-.977.221q-.45.148-.728.449-.272.296-.272.807 0 .699.517 1.057.522.352 1.323.352M916.148 441h-3.625l5.524-16h4.359l5.516 16h-3.625l-4.008-12.344h-.125zm-.226-6.289h8.562v2.641h-8.562zm17.285 6.516q-1.149 0-2.047-.399a3.3 3.3 0 0 1-1.422-1.195q-.515-.797-.515-1.985 0-1 .367-1.679a3 3 0 0 1 1-1.094 4.9 4.9 0 0 1 1.437-.625 11 11 0 0 1 1.703-.297 44 44 0 0 0 1.688-.203q.64-.102.93-.297.289-.195.289-.578v-.047q0-.742-.469-1.148-.46-.407-1.313-.407-.897 0-1.429.399-.532.39-.703.984l-3.078-.25a4.2 4.2 0 0 1 .921-1.89q.688-.805 1.774-1.235 1.094-.437 2.531-.437 1 0 1.914.234a5 5 0 0 1 1.633.727q.719.492 1.133 1.265.414.767.414 1.836V441h-3.156v-1.664h-.094a3.4 3.4 0 0 1-.774.992 3.6 3.6 0 0 1-1.164.664q-.68.234-1.57.235m.953-2.297q.735 0 1.297-.289.562-.297.883-.797a2.06 2.06 0 0 0 .32-1.133v-1.273q-.156.101-.43.187a8 8 0 0 1-.601.148 32 32 0 0 1-.672.118l-.609.086a4 4 0 0 0-1.024.273 1.63 1.63 0 0 0-.679.508q-.243.313-.243.781 0 .68.493 1.039.5.351 1.265.352"/><path stroke="#d3d9e3" stroke-linecap="round" stroke-opacity=".1" d="M831 472h190.5"/><g filter="url(#d)"><rect width="292" height="255" x="118" y="234" fill="#373c4d" rx="20"/></g><circle cx="141" cy="257" r="6" fill="#f95353"/><circle cx="159" cy="257" r="6" fill="#ffb900"/><circle cx="177" cy="257" r="6" fill="#24b360"/><path fill="#6a7c92" d="M358.868 261.14h-3.648l-.672 1.86h-1.152l3.024-8.316h1.26l3.012 8.316h-1.152zm-.312-.888-1.512-4.224-1.512 4.224zm4.546-2.616q.324-.564.96-.936.648-.384 1.5-.384.876 0 1.584.42.72.42 1.128 1.188.408.756.408 1.764 0 .996-.408 1.776a3 3 0 0 1-2.712 1.644q-.84 0-1.488-.372a2.76 2.76 0 0 1-.972-.948v4.332h-1.092v-9.696h1.092zm4.464 2.052q0-.744-.3-1.296a2.07 2.07 0 0 0-.816-.84 2.2 2.2 0 0 0-1.116-.288q-.6 0-1.116.3a2.15 2.15 0 0 0-.816.852q-.3.552-.3 1.284 0 .744.3 1.308.312.552.816.852.516.288 1.116.288.612 0 1.116-.288.516-.3.816-.852.3-.564.3-1.32m3.645-2.052q.324-.564.96-.936.648-.384 1.5-.384.876 0 1.584.42.72.42 1.128 1.188.408.756.408 1.764 0 .996-.408 1.776a3 3 0 0 1-2.712 1.644q-.84 0-1.488-.372a2.76 2.76 0 0 1-.972-.948v4.332h-1.092v-9.696h1.092zm4.464 2.052q0-.744-.3-1.296a2.07 2.07 0 0 0-.816-.84 2.2 2.2 0 0 0-1.116-.288q-.6 0-1.116.3a2.15 2.15 0 0 0-.816.852q-.3.552-.3 1.284 0 .744.3 1.308.312.552.816.852.516.288 1.116.288.612 0 1.116-.288.516-.3.816-.852.3-.564.3-1.32m2.902 3.384a.72.72 0 0 1-.528-.216.72.72 0 0 1-.216-.528q0-.312.216-.528a.72.72 0 0 1 .528-.216q.3 0 .504.216.216.216.216.528a.72.72 0 0 1-.216.528.67.67 0 0 1-.504.216m5.843-.072-2.58-2.904V263h-1.092v-8.88h1.092v5.22l2.532-2.916h1.524L382.8 259.7l3.108 3.3zm3.836-5.676v3.876q0 .48.204.684.204.192.708.192h.804V263h-.984q-.912 0-1.368-.42t-.456-1.38v-3.876h-.852v-.9h.852v-1.656h1.092v1.656h1.716v.9z"/><path fill="#24b360" d="M137.402 298.606q.93 0 1.566.282.642.276 1.044.762.408.486.624 1.128.222.636.306 1.356.084.714.084 1.452 0 1.512-.144 2.514-.138.996-.516 1.488-.378.498-1.104.498a1.13 1.13 0 0 1-.642-.18 1.5 1.5 0 0 1-.444-.456 2 2 0 0 1-.324-1.068h-.048a2.3 2.3 0 0 1-.312.546 1.6 1.6 0 0 1-.522.438q-.324.18-.804.18-.654 0-1.056-.354-.396-.354-.576-.978a5.1 5.1 0 0 1-.18-1.416q0-1.566.624-2.328.624-.768 1.728-.768.42 0 .804.09t.888.36v3.546q0 .648.114.99.114.336.306.462a.76.76 0 0 0 .426.126q.282 0 .438-.282t.222-.786.078-1.17q.012-.672.012-1.44 0-.858-.096-1.602a4.3 4.3 0 0 0-.366-1.314q-.27-.564-.78-.882t-1.338-.318q-.582 0-1.272.216-.684.21-1.452.888l-.576-.672q.804-.702 1.644-1.002a4.8 4.8 0 0 1 1.644-.306m-.648 3.84q-.822 0-1.122.594t-.3 1.758q0 .588.084 1.038.09.444.3.702.21.252.57.252.42 0 .66-.192a1.3 1.3 0 0 0 .372-.438q.132-.252.204-.426v-3.108a1.56 1.56 0 0 0-.768-.18m8.737-3.84q.81 0 1.356.204t1.038.6l-.582.678a2.4 2.4 0 0 0-.828-.468 2.9 2.9 0 0 0-.906-.144q-.678 0-1.254.324-.576.318-.93 1.062-.348.738-.348 2.004 0 1.23.33 1.974.336.744.906 1.074t1.272.33q.696 0 1.14-.21.45-.21.78-.48l.54.684q-.378.366-.984.636-.606.264-1.488.264a3.45 3.45 0 0 1-1.818-.492q-.81-.492-1.284-1.44-.474-.954-.474-2.34 0-1.392.48-2.34.486-.948 1.29-1.434a3.37 3.37 0 0 1 1.764-.486m6.512 1.944q.894 0 1.494.408.606.402.906 1.14.306.738.306 1.74 0 .966-.312 1.71a2.64 2.64 0 0 1-.918 1.17q-.6.42-1.488.42t-1.494-.408a2.53 2.53 0 0 1-.918-1.146q-.306-.744-.306-1.734 0-.978.312-1.722t.918-1.158q.612-.42 1.5-.42m0 .822q-.816 0-1.236.606-.414.6-.414 1.872 0 1.248.408 1.854.414.606 1.23.606t1.224-.606q.414-.606.414-1.866t-.408-1.86q-.408-.606-1.218-.606m8.953-.822q.306 0 .582.132.282.132.462.51t.18 1.104V307h-.936v-4.542q0-.594-.072-.858t-.414-.264q-.282 0-.564.18-.276.174-.54.576V307h-.942v-4.542q0-.594-.072-.858t-.414-.264q-.294 0-.57.18-.27.174-.534.576V307h-.93v-6.318h.792l.06.732q.258-.366.576-.612a1.26 1.26 0 0 1 .798-.252q.36 0 .678.174.318.168.468.66.258-.372.582-.6.324-.234.81-.234m5.857 0q.84 0 1.338.408.504.408.726 1.152.222.738.222 1.728 0 .954-.27 1.704-.264.744-.804 1.17t-1.362.426q-1.038 0-1.668-.732v3.012l-1.008.126v-8.862h.858l.084.882q.348-.486.828-.75a2.2 2.2 0 0 1 1.056-.264m-.24.81q-.522 0-.924.318a3 3 0 0 0-.654.696v3.132q.246.366.618.582.378.21.828.21.786 0 1.182-.6t.396-1.866q0-.828-.156-1.374-.156-.552-.474-.822-.318-.276-.816-.276m7.016-.81q.894 0 1.494.408.606.402.906 1.14.306.738.306 1.74 0 .966-.312 1.71a2.64 2.64 0 0 1-.918 1.17q-.6.42-1.488.42t-1.494-.408a2.53 2.53 0 0 1-.918-1.146q-.306-.744-.306-1.734 0-.978.312-1.722t.918-1.158q.612-.42 1.5-.42m0 .822q-.816 0-1.236.606-.414.6-.414 1.872 0 1.248.408 1.854.414.606 1.23.606t1.224-.606q.414-.606.414-1.866t-.408-1.86q-.408-.606-1.218-.606m6.937 4.932q.726 0 1.146-.27.426-.276.426-.732 0-.288-.108-.498-.102-.21-.426-.378t-.996-.336a7.3 7.3 0 0 1-1.14-.372q-.48-.216-.75-.558-.264-.342-.264-.888 0-.534.3-.918.306-.39.846-.594.54-.21 1.254-.21.762 0 1.326.204.57.198.966.492l-.444.684a3.5 3.5 0 0 0-.792-.402q-.432-.162-1.044-.162-.744 0-1.056.234a.7.7 0 0 0-.312.594q0 .276.15.462.156.18.522.33.366.144 1.008.318.618.162 1.074.39.462.228.72.6t.258.96q0 .672-.384 1.092a2.24 2.24 0 0 1-.996.606 4.4 4.4 0 0 1-1.284.186q-.858 0-1.464-.246-.6-.252-1.008-.606l.576-.666q.372.306.852.498.486.186 1.044.186m9.571-.684q0 .378.126.552a.74.74 0 0 0 .39.258l-.246.708a1.66 1.66 0 0 1-.714-.258q-.306-.21-.444-.63a2.2 2.2 0 0 1-.852.666q-.51.222-1.128.222-.948 0-1.494-.534t-.546-1.416q0-.978.762-1.5t2.202-.522h.93v-.528q0-.684-.402-.966-.396-.288-1.104-.288-.312 0-.732.078-.42.072-.912.246l-.264-.762a6.3 6.3 0 0 1 1.092-.306q.51-.09.972-.09 1.182 0 1.77.552.594.546.594 1.488zm-2.61.75q.468 0 .894-.234.426-.24.702-.66v-1.626h-.912q-1.044 0-1.476.36-.426.36-.426.966 0 .588.3.894.306.3.918.3m6.29-4.866q.348-.456.798-.702a2.04 2.04 0 0 1 1.002-.252q.846 0 1.368.408t.762 1.152q.24.738.24 1.728 0 .954-.288 1.704-.288.744-.846 1.17-.552.426-1.368.426-1.098 0-1.722-.792l-.072.654h-.882v-8.862l1.008-.126zm1.428 4.818q.792 0 1.218-.612t.426-1.878q0-.828-.168-1.374-.168-.552-.504-.822a1.23 1.23 0 0 0-.816-.276q-.528 0-.93.318a3 3 0 0 0-.654.696v3.132q.246.372.618.594.378.222.81.222m7.219-8.184v7.302q0 .468.288.666.294.192.756.192.288 0 .546-.06t.516-.162l.27.738a3.3 3.3 0 0 1-.642.222 3.3 3.3 0 0 1-.858.102q-.84 0-1.362-.462-.522-.468-.522-1.29v-6.45h-1.938v-.798zm5.527 6.06q.03.732.282 1.2.252.462.666.684.414.216.9.216t.876-.144q.396-.144.81-.426l.474.666a3.5 3.5 0 0 1-1.014.546 3.5 3.5 0 0 1-1.158.198q-.918 0-1.566-.414a2.66 2.66 0 0 1-.99-1.152q-.336-.744-.336-1.722 0-.96.342-1.704a2.8 2.8 0 0 1 .96-1.17q.618-.426 1.458-.426.798 0 1.374.378.576.372.882 1.068.312.69.312 1.65 0 .162-.006.306a4 4 0 0 1-.018.246zm1.716-2.82q-.702 0-1.176.498-.468.498-.534 1.542h3.294q-.018-1.014-.444-1.524-.426-.516-1.14-.516m6.031 37.422q0 .936.162 1.68.162.738.48 1.356.318.612.798 1.164.486.558 1.128 1.128l-.528.552a12.5 12.5 0 0 1-1.668-1.632 6.2 6.2 0 0 1-1.062-1.86q-.366-1.026-.366-2.388 0-1.368.366-2.394a6.2 6.2 0 0 1 1.062-1.86 12 12 0 0 1 1.668-1.626l.528.552q-.648.576-1.134 1.134-.48.552-.798 1.164a5.3 5.3 0 0 0-.48 1.35 8 8 0 0 0-.156 1.68m9.296 0q0-.942-.162-1.68a5.2 5.2 0 0 0-.474-1.35 5.8 5.8 0 0 0-.804-1.164q-.48-.558-1.128-1.134l.528-.552q.978.792 1.668 1.626t1.056 1.86q.372 1.026.372 2.394 0 1.362-.372 2.388a6.1 6.1 0 0 1-1.056 1.86q-.69.834-1.668 1.632l-.528-.552q.642-.57 1.122-1.128.486-.552.804-1.164a5.6 5.6 0 0 0 .48-1.356 8 8 0 0 0 .162-1.68m11.234.888v-.888h5.826v.888zm10.502 0h-4.92v-.888h4.92zm-2.334-4.098 3.264 3.654-3.264 3.654-.744-.636 1.71-1.884q.246-.264.396-.408t.372-.282v-.888a2.3 2.3 0 0 1-.372-.282q-.15-.144-.396-.408l-1.71-1.884zm18.254-.852v5.586q0 .834-.342 1.47a2.4 2.4 0 0 1-.954.99q-.612.354-1.446.354-.852 0-1.464-.354a2.4 2.4 0 0 1-.93-.996q-.324-.636-.324-1.464v-5.586h1.032v5.622q0 .942.438 1.41.444.468 1.248.468.81 0 1.248-.468.444-.468.444-1.41v-5.622zm2.072 8.262v-6.318h.858l.078.876q.384-.486.96-.744a2.7 2.7 0 0 1 1.128-.264q.93 0 1.35.492.426.492.426 1.368V343h-1.008v-3.846q0-.648-.072-1.044-.072-.402-.3-.582-.228-.186-.708-.186-.372 0-.702.162-.324.162-.582.408-.252.24-.42.486V343zm10.393-6.318v5.52h1.782V343h-4.74v-.798h1.95v-4.722h-1.89v-.798zm-.804-2.958q.336 0 .534.204a.68.68 0 0 1 .204.498.71.71 0 0 1-.204.516q-.198.204-.534.204a.7.7 0 0 1-.522-.204.71.71 0 0 1-.204-.516q0-.294.204-.498a.7.7 0 0 1 .522-.204m9.817 8.958a2.6 2.6 0 0 1-.786.336q-.462.12-.906.12-1.02 0-1.572-.534t-.552-1.374v-3.768h-1.452v-.78h1.452v-1.434l1.008-.12v1.554h2.184l-.12.78h-2.064v3.756q0 .528.276.804.282.276.93.276.354 0 .654-.084t.558-.216zm4.574-1.656q.414 0 .69.282a.92.92 0 0 1 .282.678q0 .216-.054.438a2.4 2.4 0 0 1-.18.504l-.972 2.226h-.912l.576-2.37a.96.96 0 0 1-.288-.342 1.06 1.06 0 0 1-.102-.456q0-.402.276-.678a.92.92 0 0 1 .684-.282m-72.152 11.58q.93 0 1.566.282.642.276 1.044.762.408.486.624 1.128.222.636.306 1.356.084.714.084 1.452 0 1.512-.144 2.514-.138.996-.516 1.488-.378.498-1.104.498a1.13 1.13 0 0 1-.642-.18 1.5 1.5 0 0 1-.444-.456 2 2 0 0 1-.324-1.068h-.048a2.3 2.3 0 0 1-.312.546 1.6 1.6 0 0 1-.522.438q-.324.18-.804.18-.654 0-1.056-.354-.396-.354-.576-.978a5.1 5.1 0 0 1-.18-1.416q0-1.566.624-2.328.624-.768 1.728-.768.42 0 .804.09t.888.36v3.546q0 .648.114.99.114.336.306.462a.76.76 0 0 0 .426.126q.282 0 .438-.282t.222-.786.078-1.17q.012-.672.012-1.44 0-.858-.096-1.602a4.3 4.3 0 0 0-.366-1.314q-.27-.564-.78-.882t-1.338-.318q-.582 0-1.272.216-.684.21-1.452.888l-.576-.672q.804-.702 1.644-1.002a4.8 4.8 0 0 1 1.644-.306m-.648 3.84q-.822 0-1.122.594t-.3 1.758q0 .588.084 1.038.09.444.3.702.21.252.57.252.42 0 .66-.192a1.3 1.3 0 0 0 .372-.438q.132-.252.204-.426v-3.108a1.56 1.56 0 0 0-.768-.18m8.738-3.84q.81 0 1.356.204t1.038.6l-.582.678a2.4 2.4 0 0 0-.828-.468 2.9 2.9 0 0 0-.906-.144q-.678 0-1.254.324-.576.318-.93 1.062-.348.738-.348 2.004 0 1.23.33 1.974.336.744.906 1.074t1.272.33q.696 0 1.14-.21.45-.21.78-.48l.54.684q-.378.366-.984.636-.606.264-1.488.264a3.45 3.45 0 0 1-1.818-.492q-.81-.492-1.284-1.44-.474-.954-.474-2.34 0-1.392.48-2.34.486-.948 1.29-1.434a3.37 3.37 0 0 1 1.764-.486m6.511 1.944q.894 0 1.494.408.606.402.906 1.14.306.738.306 1.74 0 .966-.312 1.71a2.64 2.64 0 0 1-.918 1.17q-.6.42-1.488.42t-1.494-.408a2.53 2.53 0 0 1-.918-1.146q-.306-.744-.306-1.734 0-.978.312-1.722t.918-1.158q.612-.42 1.5-.42m0 .822q-.816 0-1.236.606-.414.6-.414 1.872 0 1.248.408 1.854.414.606 1.23.606t1.224-.606q.414-.606.414-1.866t-.408-1.86q-.408-.606-1.218-.606m8.953-.822q.306 0 .582.132.282.132.462.51t.18 1.104V361h-.936v-4.542q0-.594-.072-.858t-.414-.264q-.282 0-.564.18-.276.174-.54.576V361h-.942v-4.542q0-.594-.072-.858t-.414-.264q-.294 0-.57.18-.27.174-.534.576V361h-.93v-6.318h.792l.06.732q.258-.366.576-.612a1.26 1.26 0 0 1 .798-.252q.36 0 .678.174.318.168.468.66.258-.372.582-.6.324-.234.81-.234m5.858 0q.84 0 1.338.408.504.408.726 1.152.222.738.222 1.728 0 .954-.27 1.704-.264.744-.804 1.17t-1.362.426q-1.038 0-1.668-.732v3.012l-1.008.126v-8.862h.858l.084.882q.348-.486.828-.75a2.2 2.2 0 0 1 1.056-.264m-.24.81q-.522 0-.924.318a3 3 0 0 0-.654.696v3.132q.246.366.618.582.378.21.828.21.786 0 1.182-.6t.396-1.866q0-.828-.156-1.374-.156-.552-.474-.822-.318-.276-.816-.276m7.015-.81q.894 0 1.494.408.606.402.906 1.14.306.738.306 1.74 0 .966-.312 1.71a2.64 2.64 0 0 1-.918 1.17q-.6.42-1.488.42t-1.494-.408a2.53 2.53 0 0 1-.918-1.146q-.306-.744-.306-1.734 0-.978.312-1.722t.918-1.158q.612-.42 1.5-.42m0 .822q-.816 0-1.236.606-.414.6-.414 1.872 0 1.248.408 1.854.414.606 1.23.606t1.224-.606q.414-.606.414-1.866t-.408-1.86q-.408-.606-1.218-.606m6.937 4.932q.726 0 1.146-.27.426-.276.426-.732 0-.288-.108-.498-.102-.21-.426-.378t-.996-.336a7.3 7.3 0 0 1-1.14-.372q-.48-.216-.75-.558-.264-.342-.264-.888 0-.534.3-.918.306-.39.846-.594.54-.21 1.254-.21.762 0 1.326.204.57.198.966.492l-.444.684a3.5 3.5 0 0 0-.792-.402q-.432-.162-1.044-.162-.744 0-1.056.234a.7.7 0 0 0-.312.594q0 .276.15.462.156.18.522.33.366.144 1.008.318.618.162 1.074.39.462.228.72.6t.258.96q0 .672-.384 1.092a2.24 2.24 0 0 1-.996.606 4.4 4.4 0 0 1-1.284.186q-.858 0-1.464-.246-.6-.252-1.008-.606l.576-.666q.372.306.852.498.486.186 1.044.186m9.572-.684q0 .378.126.552a.74.74 0 0 0 .39.258l-.246.708a1.66 1.66 0 0 1-.714-.258q-.306-.21-.444-.63a2.2 2.2 0 0 1-.852.666q-.51.222-1.128.222-.948 0-1.494-.534t-.546-1.416q0-.978.762-1.5t2.202-.522h.93v-.528q0-.684-.402-.966-.396-.288-1.104-.288-.312 0-.732.078-.42.072-.912.246l-.264-.762a6.3 6.3 0 0 1 1.092-.306q.51-.09.972-.09 1.182 0 1.77.552.594.546.594 1.488zm-2.61.75q.468 0 .894-.234.426-.24.702-.66v-1.626h-.912q-1.044 0-1.476.36-.426.36-.426.966 0 .588.3.894.306.3.918.3m6.289-4.866q.348-.456.798-.702a2.04 2.04 0 0 1 1.002-.252q.846 0 1.368.408t.762 1.152q.24.738.24 1.728 0 .954-.288 1.704-.288.744-.846 1.17-.552.426-1.368.426-1.098 0-1.722-.792l-.072.654h-.882v-8.862l1.008-.126zm1.428 4.818q.792 0 1.218-.612t.426-1.878q0-.828-.168-1.374-.168-.552-.504-.822a1.23 1.23 0 0 0-.816-.276q-.528 0-.93.318a3 3 0 0 0-.654.696v3.132q.246.372.618.594.378.222.81.222m7.219-8.184v7.302q0 .468.288.666.294.192.756.192.288 0 .546-.06t.516-.162l.27.738a3.3 3.3 0 0 1-.642.222 3.3 3.3 0 0 1-.858.102q-.84 0-1.362-.462-.522-.468-.522-1.29v-6.45h-1.938v-.798zm5.528 6.06q.03.732.282 1.2.252.462.666.684.414.216.9.216t.876-.144q.396-.144.81-.426l.474.666a3.5 3.5 0 0 1-1.014.546 3.5 3.5 0 0 1-1.158.198q-.918 0-1.566-.414a2.66 2.66 0 0 1-.99-1.152q-.336-.744-.336-1.722 0-.96.342-1.704a2.8 2.8 0 0 1 .96-1.17q.618-.426 1.458-.426.798 0 1.374.378.576.372.882 1.068.312.69.312 1.65 0 .162-.006.306a4 4 0 0 1-.018.246zm1.716-2.82q-.702 0-1.176.498-.468.498-.534 1.542h3.294q-.018-1.014-.444-1.524-.426-.516-1.14-.516m13.226 1.422q0 .936.162 1.68.162.738.48 1.356.318.612.798 1.164.486.558 1.128 1.128l-.528.552a12.5 12.5 0 0 1-1.668-1.632 6.2 6.2 0 0 1-1.062-1.86q-.366-1.026-.366-2.388 0-1.368.366-2.394a6.2 6.2 0 0 1 1.062-1.86 12 12 0 0 1 1.668-1.626l.528.552q-.648.576-1.134 1.134-.48.552-.798 1.164a5.3 5.3 0 0 0-.48 1.35 8 8 0 0 0-.156 1.68m9.296 0q0-.942-.162-1.68a5.2 5.2 0 0 0-.474-1.35 5.8 5.8 0 0 0-.804-1.164q-.48-.558-1.128-1.134l.528-.552q.978.792 1.668 1.626t1.056 1.86q.372 1.026.372 2.394 0 1.362-.372 2.388a6.1 6.1 0 0 1-1.056 1.86q-.69.834-1.668 1.632l-.528-.552q.642-.57 1.122-1.128.486-.552.804-1.164a5.6 5.6 0 0 0 .48-1.356 8 8 0 0 0 .162-1.68m11.234.888v-.888h5.826v.888zm10.501 0h-4.92v-.888h4.92zm-2.334-4.098 3.264 3.654-3.264 3.654-.744-.636 1.71-1.884q.246-.264.396-.408t.372-.282v-.888a2.3 2.3 0 0 1-.372-.282q-.15-.144-.396-.408l-1.71-1.884zm18.255-.852v5.586q0 .834-.342 1.47a2.4 2.4 0 0 1-.954.99q-.612.354-1.446.354-.852 0-1.464-.354a2.4 2.4 0 0 1-.93-.996q-.324-.636-.324-1.464v-5.586h1.032v5.622q0 .942.438 1.41.444.468 1.248.468.81 0 1.248-.468.444-.468.444-1.41v-5.622zm2.071 8.262v-6.318h.858l.078.876q.384-.486.96-.744a2.7 2.7 0 0 1 1.128-.264q.93 0 1.35.492.426.492.426 1.368V361h-1.008v-3.846q0-.648-.072-1.044-.072-.402-.3-.582-.228-.186-.708-.186-.372 0-.702.162-.324.162-.582.408-.252.24-.42.486V361zm10.394-6.318v5.52h1.782V361h-4.74v-.798h1.95v-4.722h-1.89v-.798zm-.804-2.958q.336 0 .534.204a.68.68 0 0 1 .204.498.71.71 0 0 1-.204.516q-.198.204-.534.204a.7.7 0 0 1-.522-.204.71.71 0 0 1-.204-.516q0-.294.204-.498a.7.7 0 0 1 .522-.204m9.817 8.958a2.6 2.6 0 0 1-.786.336q-.462.12-.906.12-1.02 0-1.572-.534t-.552-1.374v-3.768h-1.452v-.78h1.452v-1.434l1.008-.12v1.554h2.184l-.12.78h-2.064v3.756q0 .528.276.804.282.276.93.276.354 0 .654-.084t.558-.216zm4.573-1.656q.414 0 .69.282a.92.92 0 0 1 .282.678q0 .216-.054.438a2.4 2.4 0 0 1-.18.504l-.972 2.226h-.912l.576-2.37a.96.96 0 0 1-.288-.342 1.06 1.06 0 0 1-.102-.456q0-.402.276-.678a.92.92 0 0 1 .684-.282M238.346 408.55q.894 0 1.494.408.606.402.906 1.14.306.738.306 1.74 0 .966-.312 1.71a2.64 2.64 0 0 1-.918 1.17q-.6.42-1.488.42t-1.494-.408a2.53 2.53 0 0 1-.918-1.146q-.306-.744-.306-1.734 0-.978.312-1.722t.918-1.158q.612-.42 1.5-.42m0 .822q-.816 0-1.236.606-.414.6-.414 1.872 0 1.248.408 1.854.414.606 1.23.606t1.224-.606q.414-.606.414-1.866t-.408-1.86q-.408-.606-1.218-.606m4.79 5.628v-6.318h.858l.078.876q.384-.486.96-.744a2.7 2.7 0 0 1 1.128-.264q.93 0 1.35.492.426.492.426 1.368V415h-1.008v-3.846q0-.648-.072-1.044-.072-.402-.3-.582-.228-.186-.708-.186-.372 0-.702.162-.324.162-.582.408-.252.24-.42.486V415zm10.285-8.394q.81 0 1.356.204t1.038.6l-.582.678a2.4 2.4 0 0 0-.828-.468 2.9 2.9 0 0 0-.906-.144q-.678 0-1.254.324-.576.318-.93 1.062-.348.738-.348 2.004 0 1.23.33 1.974.336.744.906 1.074t1.272.33q.696 0 1.14-.21.45-.21.78-.48l.54.684q-.378.366-.984.636-.606.264-1.488.264a3.45 3.45 0 0 1-1.818-.492q-.81-.492-1.284-1.44-.474-.954-.474-2.34 0-1.392.48-2.34.486-.948 1.29-1.434a3.37 3.37 0 0 1 1.764-.486m6.565-.468v7.302q0 .468.288.666.294.192.756.192.288 0 .546-.06t.516-.162l.27.738a3.3 3.3 0 0 1-.642.222 3.3 3.3 0 0 1-.858.102q-.84 0-1.362-.462-.522-.468-.522-1.29v-6.45h-1.938v-.798zm7.934 2.544v5.52h1.782V415h-4.74v-.798h1.95v-4.722h-1.89v-.798zm-.804-2.958q.336 0 .534.204a.68.68 0 0 1 .204.498.71.71 0 0 1-.204.516q-.198.204-.534.204a.7.7 0 0 1-.522-.204.71.71 0 0 1-.204-.516q0-.294.204-.498a.7.7 0 0 1 .522-.204m7.657 8.544q.474 0 .882-.156.414-.156.762-.396l.492.66a3.1 3.1 0 0 1-.996.558 3.4 3.4 0 0 1-1.14.204q-.942 0-1.608-.402a2.64 2.64 0 0 1-1.008-1.14q-.348-.738-.348-1.728 0-.948.348-1.698.354-.756 1.014-1.188.666-.432 1.614-.432.606 0 1.134.186.534.18.978.546l-.492.672a3.2 3.2 0 0 0-.81-.42 2.4 2.4 0 0 0-.822-.144q-.816 0-1.344.612t-.528 1.866q0 .84.24 1.374.246.528.666.78.426.246.966.246m9.631-5.586-2.844 2.844 3.174 3.474h-1.326l-3.108-3.45 2.796-2.868zm-4.218-2.67V415h-1.008v-8.862zm-41.39 26.256q.474 0 .882-.156.414-.156.762-.396l.492.66a3.1 3.1 0 0 1-.996.558 3.4 3.4 0 0 1-1.14.204q-.942 0-1.608-.402a2.64 2.64 0 0 1-1.008-1.14q-.348-.738-.348-1.728 0-.948.348-1.698.354-.756 1.014-1.188.666-.432 1.614-.432.606 0 1.134.186.534.18.978.546l-.492.672a3.2 3.2 0 0 0-.81-.42 2.4 2.4 0 0 0-.822-.144q-.816 0-1.344.612t-.528 1.866q0 .84.24 1.374.246.528.666.78.426.246.966.246m6.746-5.718q.894 0 1.494.408.606.402.906 1.14.306.738.306 1.74 0 .966-.312 1.71a2.64 2.64 0 0 1-.918 1.17q-.6.42-1.488.42t-1.494-.408a2.53 2.53 0 0 1-.918-1.146q-.306-.744-.306-1.734 0-.978.312-1.722t.918-1.158q.612-.42 1.5-.42m0 .822q-.816 0-1.236.606-.414.6-.414 1.872 0 1.248.408 1.854.414.606 1.23.606t1.224-.606q.414-.606.414-1.866t-.408-1.86q-.408-.606-1.218-.606m4.789 5.628v-6.318h.858l.078.876q.384-.486.96-.744a2.7 2.7 0 0 1 1.128-.264q.93 0 1.35.492.426.492.426 1.368V433h-1.008v-3.846q0-.648-.072-1.044-.072-.402-.3-.582-.228-.186-.708-.186-.372 0-.702.162-.324.162-.582.408-.252.24-.42.486V433zm12.211-.318a2.6 2.6 0 0 1-.786.336q-.462.12-.906.12-1.02 0-1.572-.534t-.552-1.374v-3.768h-1.452v-.78h1.452v-1.434l1.008-.12v1.554h2.184l-.12.78h-2.064v3.756q0 .528.276.804.282.276.93.276.354 0 .654-.084t.558-.216zm2.972-2.484q.03.732.282 1.2.252.462.666.684.414.216.9.216t.876-.144q.396-.144.81-.426l.474.666a3.5 3.5 0 0 1-1.014.546 3.5 3.5 0 0 1-1.158.198q-.918 0-1.566-.414a2.66 2.66 0 0 1-.99-1.152q-.336-.744-.336-1.722 0-.96.342-1.704a2.8 2.8 0 0 1 .96-1.17q.618-.426 1.458-.426.798 0 1.374.378.576.372.882 1.068.312.69.312 1.65 0 .162-.006.306a4 4 0 0 1-.018.246zm1.716-2.82q-.702 0-1.176.498-.468.498-.534 1.542h3.294q-.018-1.014-.444-1.524-.426-.516-1.14-.516m4.687 5.622v-6.318h.858l.078.876q.384-.486.96-.744a2.7 2.7 0 0 1 1.128-.264q.93 0 1.35.492.426.492.426 1.368V433h-1.008v-3.846q0-.648-.072-1.044-.072-.402-.3-.582-.228-.186-.708-.186-.372 0-.702.162-.324.162-.582.408-.252.24-.42.486V433zm12.211-.318a2.6 2.6 0 0 1-.786.336q-.462.12-.906.12-1.02 0-1.572-.534t-.552-1.374v-3.768h-1.452v-.78h1.452v-1.434l1.008-.12v1.554h2.184l-.12.78h-2.064v3.756q0 .528.276.804.282.276.93.276.354 0 .654-.084t.558-.216z"/><path fill="#5886f9" d="M138.938 316.012q.51 0 .924.09t.786.252l-.324.75a3 3 0 0 0-.648-.198 3.7 3.7 0 0 0-.708-.066q-.66 0-.996.258-.33.258-.33.792v1.284h2.142l-.108.792h-2.034V325h-1.008v-5.034h-1.506v-.792h1.506v-1.26q0-.588.3-1.014a1.96 1.96 0 0 1 .828-.654q.522-.234 1.176-.234m4.471 2.67v4.476q0 .624.258.9t.804.276q.522 0 .984-.294.468-.3.726-.708v-4.65h1.008V325h-.858l-.084-.852q-.372.48-.918.738a2.6 2.6 0 0 1-1.104.252q-.918 0-1.374-.486-.45-.492-.45-1.374v-4.596zm6.188 6.318v-6.318h.858l.078.876q.384-.486.96-.744a2.7 2.7 0 0 1 1.128-.264q.93 0 1.35.492.426.492.426 1.368V325h-1.008v-3.846q0-.648-.072-1.044-.072-.402-.3-.582-.228-.186-.708-.186-.372 0-.702.162-.324.162-.582.408-.252.24-.42.486V325zm2.406 11.55q.894 0 1.494.408.606.402.906 1.14.306.738.306 1.74 0 .966-.312 1.71a2.64 2.64 0 0 1-.918 1.17q-.6.42-1.488.42t-1.494-.408a2.53 2.53 0 0 1-.918-1.146q-.306-.744-.306-1.734 0-.978.312-1.722t.918-1.158q.612-.42 1.5-.42m0 .822q-.816 0-1.236.606-.414.6-.414 1.872 0 1.248.408 1.854.414.606 1.23.606t1.224-.606q.414-.606.414-1.866t-.408-1.86q-.408-.606-1.218-.606m4.789 5.628v-6.318h.858l.078.876q.384-.486.96-.744a2.7 2.7 0 0 1 1.128-.264q.93 0 1.35.492.426.492.426 1.368V343h-1.008v-3.846q0-.648-.072-1.044-.072-.402-.3-.582-.228-.186-.708-.186-.372 0-.702.162-.324.162-.582.408-.252.24-.42.486V343zm10.285-8.394q.81 0 1.356.204t1.038.6l-.582.678a2.4 2.4 0 0 0-.828-.468 2.9 2.9 0 0 0-.906-.144q-.678 0-1.254.324-.576.318-.93 1.062-.348.738-.348 2.004 0 1.23.33 1.974.336.744.906 1.074t1.272.33q.696 0 1.14-.21.45-.21.78-.48l.54.684q-.378.366-.984.636-.606.264-1.488.264a3.45 3.45 0 0 1-1.818-.492q-.81-.492-1.284-1.44-.474-.954-.474-2.34 0-1.392.48-2.34.486-.948 1.29-1.434a3.37 3.37 0 0 1 1.764-.486m6.566-.468v7.302q0 .468.288.666.294.192.756.192.288 0 .546-.06t.516-.162l.27.738a3.3 3.3 0 0 1-.642.222 3.3 3.3 0 0 1-.858.102q-.84 0-1.362-.462-.522-.468-.522-1.29v-6.45h-1.938v-.798zm7.933 2.544v5.52h1.782V343h-4.74v-.798h1.95v-4.722h-1.89v-.798zm-.804-2.958q.336 0 .534.204a.68.68 0 0 1 .204.498.71.71 0 0 1-.204.516q-.198.204-.534.204a.7.7 0 0 1-.522-.204.71.71 0 0 1-.204-.516q0-.294.204-.498a.7.7 0 0 1 .522-.204m7.657 8.544q.474 0 .882-.156.414-.156.762-.396l.492.66a3.1 3.1 0 0 1-.996.558 3.4 3.4 0 0 1-1.14.204q-.942 0-1.608-.402a2.64 2.64 0 0 1-1.008-1.14q-.348-.738-.348-1.728 0-.948.348-1.698.354-.756 1.014-1.188.666-.432 1.614-.432.606 0 1.134.186.534.18.978.546l-.492.672a3.2 3.2 0 0 0-.81-.42 2.4 2.4 0 0 0-.822-.144q-.816 0-1.344.612t-.528 1.866q0 .84.24 1.374.246.528.666.78.426.246.966.246m9.632-5.586-2.844 2.844 3.174 3.474h-1.326l-3.108-3.45 2.796-2.868zm-4.218-2.67V343h-1.008v-8.862zm7.537 8.148q0-.39.276-.678a.93.93 0 0 1 .69-.288q.42 0 .696.288a.94.94 0 0 1 .282.678.96.96 0 0 1-.282.696.93.93 0 0 1-.696.282.94.94 0 0 1-.69-.282.97.97 0 0 1-.276-.696m0-4.326q0-.276.126-.492a.9.9 0 0 1 .348-.342.95.95 0 0 1 .492-.132q.42 0 .696.282a.93.93 0 0 1 .282.684.97.97 0 0 1-.282.69.92.92 0 0 1-.696.288.93.93 0 0 1-.69-.288.98.98 0 0 1-.276-.69m-48.927 22.434q.474 0 .882-.156.414-.156.762-.396l.492.66a3.1 3.1 0 0 1-.996.558 3.4 3.4 0 0 1-1.14.204q-.942 0-1.608-.402a2.64 2.64 0 0 1-1.008-1.14q-.348-.738-.348-1.728 0-.948.348-1.698.354-.756 1.014-1.188.666-.432 1.614-.432.606 0 1.134.186.534.18.978.546l-.492.672a3.2 3.2 0 0 0-.81-.42 2.4 2.4 0 0 0-.822-.144q-.816 0-1.344.612t-.528 1.866q0 .84.24 1.374.246.528.666.78.426.246.966.246m6.745-5.718q.894 0 1.494.408.606.402.906 1.14.306.738.306 1.74 0 .966-.312 1.71a2.64 2.64 0 0 1-.918 1.17q-.6.42-1.488.42t-1.494-.408a2.53 2.53 0 0 1-.918-1.146q-.306-.744-.306-1.734 0-.978.312-1.722t.918-1.158q.612-.42 1.5-.42m0 .822q-.816 0-1.236.606-.414.6-.414 1.872 0 1.248.408 1.854.414.606 1.23.606t1.224-.606q.414-.606.414-1.866t-.408-1.86q-.408-.606-1.218-.606m4.789 5.628v-6.318h.858l.078.876q.384-.486.96-.744a2.7 2.7 0 0 1 1.128-.264q.93 0 1.35.492.426.492.426 1.368V361h-1.008v-3.846q0-.648-.072-1.044-.072-.402-.3-.582-.228-.186-.708-.186-.372 0-.702.162-.324.162-.582.408-.252.24-.42.486V361zm12.212-.318a2.6 2.6 0 0 1-.786.336q-.462.12-.906.12-1.02 0-1.572-.534t-.552-1.374v-3.768h-1.452v-.78h1.452v-1.434l1.008-.12v1.554h2.184l-.12.78h-2.064v3.756q0 .528.276.804.282.276.93.276.354 0 .654-.084t.558-.216zm2.971-2.484q.03.732.282 1.2.252.462.666.684.414.216.9.216t.876-.144q.396-.144.81-.426l.474.666a3.5 3.5 0 0 1-1.014.546 3.5 3.5 0 0 1-1.158.198q-.918 0-1.566-.414a2.66 2.66 0 0 1-.99-1.152q-.336-.744-.336-1.722 0-.96.342-1.704a2.8 2.8 0 0 1 .96-1.17q.618-.426 1.458-.426.798 0 1.374.378.576.372.882 1.068.312.69.312 1.65 0 .162-.006.306a4 4 0 0 1-.018.246zm1.716-2.82q-.702 0-1.176.498-.468.498-.534 1.542h3.294q-.018-1.014-.444-1.524-.426-.516-1.14-.516m4.687 5.622v-6.318h.858l.078.876q.384-.486.96-.744a2.7 2.7 0 0 1 1.128-.264q.93 0 1.35.492.426.492.426 1.368V361h-1.008v-3.846q0-.648-.072-1.044-.072-.402-.3-.582-.228-.186-.708-.186-.372 0-.702.162-.324.162-.582.408-.252.24-.42.486V361zm12.212-.318a2.6 2.6 0 0 1-.786.336q-.462.12-.906.12-1.02 0-1.572-.534t-.552-1.374v-3.768h-1.452v-.78h1.452v-1.434l1.008-.12v1.554h2.184l-.12.78h-2.064v3.756q0 .528.276.804.282.276.93.276.354 0 .654-.084t.558-.216zm3.595-.522q0-.39.276-.678a.93.93 0 0 1 .69-.288q.42 0 .696.288a.94.94 0 0 1 .282.678.96.96 0 0 1-.282.696.93.93 0 0 1-.696.282.94.94 0 0 1-.69-.282.97.97 0 0 1-.276-.696m0-4.326q0-.276.126-.492a.9.9 0 0 1 .348-.342.95.95 0 0 1 .492-.132q.42 0 .696.282a.93.93 0 0 1 .282.684.97.97 0 0 1-.282.69.92.92 0 0 1-.696.288.93.93 0 0 1-.69-.288.98.98 0 0 1-.276-.69m-34.987 52.716q.894 0 1.494.408.606.402.906 1.14.306.738.306 1.74 0 .966-.312 1.71a2.64 2.64 0 0 1-.918 1.17q-.6.42-1.488.42t-1.494-.408a2.53 2.53 0 0 1-.918-1.146q-.306-.744-.306-1.734 0-.978.312-1.722t.918-1.158q.612-.42 1.5-.42m0 .822q-.816 0-1.236.606-.414.6-.414 1.872 0 1.248.408 1.854.414.606 1.23.606t1.224-.606q.414-.606.414-1.866t-.408-1.86q-.408-.606-1.218-.606m4.79 5.628v-6.318h.858l.078.876q.384-.486.96-.744a2.7 2.7 0 0 1 1.128-.264q.93 0 1.35.492.426.492.426 1.368V415h-1.008v-3.846q0-.648-.072-1.044-.072-.402-.3-.582-.228-.186-.708-.186-.372 0-.702.162-.324.162-.582.408-.252.24-.42.486V415zm10.285-8.394q.81 0 1.356.204t1.038.6l-.582.678a2.4 2.4 0 0 0-.828-.468 2.9 2.9 0 0 0-.906-.144q-.678 0-1.254.324-.576.318-.93 1.062-.348.738-.348 2.004 0 1.23.33 1.974.336.744.906 1.074t1.272.33q.696 0 1.14-.21.45-.21.78-.48l.54.684q-.378.366-.984.636-.606.264-1.488.264a3.45 3.45 0 0 1-1.818-.492q-.81-.492-1.284-1.44-.474-.954-.474-2.34 0-1.392.48-2.34.486-.948 1.29-1.434a3.37 3.37 0 0 1 1.764-.486m6.565-.468v7.302q0 .468.288.666.294.192.756.192.288 0 .546-.06t.516-.162l.27.738a3.3 3.3 0 0 1-.642.222 3.3 3.3 0 0 1-.858.102q-.84 0-1.362-.462-.522-.468-.522-1.29v-6.45h-1.938v-.798zm7.934 2.544v5.52h1.782V415h-4.74v-.798h1.95v-4.722h-1.89v-.798zm-.804-2.958q.336 0 .534.204a.68.68 0 0 1 .204.498.71.71 0 0 1-.204.516q-.198.204-.534.204a.7.7 0 0 1-.522-.204.71.71 0 0 1-.204-.516q0-.294.204-.498a.7.7 0 0 1 .522-.204m7.657 8.544q.474 0 .882-.156.414-.156.762-.396l.492.66a3.1 3.1 0 0 1-.996.558 3.4 3.4 0 0 1-1.14.204q-.942 0-1.608-.402a2.64 2.64 0 0 1-1.008-1.14q-.348-.738-.348-1.728 0-.948.348-1.698.354-.756 1.014-1.188.666-.432 1.614-.432.606 0 1.134.186.534.18.978.546l-.492.672a3.2 3.2 0 0 0-.81-.42 2.4 2.4 0 0 0-.822-.144q-.816 0-1.344.612t-.528 1.866q0 .84.24 1.374.246.528.666.78.426.246.966.246m9.631-5.586-2.844 2.844 3.174 3.474h-1.326l-3.108-3.45 2.796-2.868zm-4.218-2.67V415h-1.008v-8.862zm-41.39 26.256q.474 0 .882-.156.414-.156.762-.396l.492.66a3.1 3.1 0 0 1-.996.558 3.4 3.4 0 0 1-1.14.204q-.942 0-1.608-.402a2.64 2.64 0 0 1-1.008-1.14q-.348-.738-.348-1.728 0-.948.348-1.698.354-.756 1.014-1.188.666-.432 1.614-.432.606 0 1.134.186.534.18.978.546l-.492.672a3.2 3.2 0 0 0-.81-.42 2.4 2.4 0 0 0-.822-.144q-.816 0-1.344.612t-.528 1.866q0 .84.24 1.374.246.528.666.78.426.246.966.246m6.746-5.718q.894 0 1.494.408.606.402.906 1.14.306.738.306 1.74 0 .966-.312 1.71a2.64 2.64 0 0 1-.918 1.17q-.6.42-1.488.42t-1.494-.408a2.53 2.53 0 0 1-.918-1.146q-.306-.744-.306-1.734 0-.978.312-1.722t.918-1.158q.612-.42 1.5-.42m0 .822q-.816 0-1.236.606-.414.6-.414 1.872 0 1.248.408 1.854.414.606 1.23.606t1.224-.606q.414-.606.414-1.866t-.408-1.86q-.408-.606-1.218-.606m4.789 5.628v-6.318h.858l.078.876q.384-.486.96-.744a2.7 2.7 0 0 1 1.128-.264q.93 0 1.35.492.426.492.426 1.368V433h-1.008v-3.846q0-.648-.072-1.044-.072-.402-.3-.582-.228-.186-.708-.186-.372 0-.702.162-.324.162-.582.408-.252.24-.42.486V433zm12.211-.318a2.6 2.6 0 0 1-.786.336q-.462.12-.906.12-1.02 0-1.572-.534t-.552-1.374v-3.768h-1.452v-.78h1.452v-1.434l1.008-.12v1.554h2.184l-.12.78h-2.064v3.756q0 .528.276.804.282.276.93.276.354 0 .654-.084t.558-.216zm2.972-2.484q.03.732.282 1.2.252.462.666.684.414.216.9.216t.876-.144q.396-.144.81-.426l.474.666a3.5 3.5 0 0 1-1.014.546 3.5 3.5 0 0 1-1.158.198q-.918 0-1.566-.414a2.66 2.66 0 0 1-.99-1.152q-.336-.744-.336-1.722 0-.96.342-1.704a2.8 2.8 0 0 1 .96-1.17q.618-.426 1.458-.426.798 0 1.374.378.576.372.882 1.068.312.69.312 1.65 0 .162-.006.306a4 4 0 0 1-.018.246zm1.716-2.82q-.702 0-1.176.498-.468.498-.534 1.542h3.294q-.018-1.014-.444-1.524-.426-.516-1.14-.516m4.687 5.622v-6.318h.858l.078.876q.384-.486.96-.744a2.7 2.7 0 0 1 1.128-.264q.93 0 1.35.492.426.492.426 1.368V433h-1.008v-3.846q0-.648-.072-1.044-.072-.402-.3-.582-.228-.186-.708-.186-.372 0-.702.162-.324.162-.582.408-.252.24-.42.486V433zm12.211-.318a2.6 2.6 0 0 1-.786.336q-.462.12-.906.12-1.02 0-1.572-.534t-.552-1.374v-3.768h-1.452v-.78h1.452v-1.434l1.008-.12v1.554h2.184l-.12.78h-2.064v3.756q0 .528.276.804.282.276.93.276.354 0 .654-.084t.558-.216z"/><path fill="#b877f3" d="M237.284 320.8q0 .936.162 1.68.162.738.48 1.356.318.612.798 1.164.486.558 1.128 1.128l-.528.552a12.5 12.5 0 0 1-1.668-1.632 6.2 6.2 0 0 1-1.062-1.86q-.366-1.026-.366-2.388 0-1.368.366-2.394a6.2 6.2 0 0 1 1.062-1.86 12 12 0 0 1 1.668-1.626l.528.552q-.648.576-1.134 1.134-.48.552-.798 1.164a5.3 5.3 0 0 0-.48 1.35 8 8 0 0 0-.156 1.68m-98.634 54q0-.942-.162-1.68a5.2 5.2 0 0 0-.474-1.35 5.8 5.8 0 0 0-.804-1.164q-.48-.558-1.128-1.134l.528-.552q.978.792 1.668 1.626t1.056 1.86q.372 1.026.372 2.394 0 1.362-.372 2.388a6.1 6.1 0 0 1-1.056 1.86q-.69.834-1.668 1.632l-.528-.552q.642-.57 1.122-1.128.486-.552.804-1.164a5.6 5.6 0 0 0 .48-1.356 8 8 0 0 0 .162-1.68m15.159-5.826v.792q-.438 0-.798.09-.354.084-.552.294-.192.21-.162.576l.252 2.46q.054.504-.06.834t-.384.516a1.7 1.7 0 0 1-.678.264q.42.072.69.252.27.174.378.504.108.324.054.858l-.252 2.46q-.03.372.162.582t.552.294.798.084v.792q-.504 0-.966-.09a2.4 2.4 0 0 1-.816-.294 1.35 1.35 0 0 1-.534-.576q-.18-.36-.12-.912l.24-2.28q.048-.414-.078-.696-.12-.282-.528-.426-.402-.15-1.206-.15v-.804q.804 0 1.206-.144.408-.144.528-.426.126-.282.078-.69l-.24-2.292q-.06-.552.12-.912a1.36 1.36 0 0 1 .528-.576q.354-.21.816-.294.468-.09.972-.09m40.304 23.826q0 .936.162 1.68.162.738.48 1.356.318.612.798 1.164.486.558 1.128 1.128l-.528.552a12.5 12.5 0 0 1-1.668-1.632 6.2 6.2 0 0 1-1.062-1.86q-.366-1.026-.366-2.388 0-1.368.366-2.394a6.2 6.2 0 0 1 1.062-1.86 12 12 0 0 1 1.668-1.626l.528.552q-.648.576-1.134 1.134-.48.552-.798 1.164a5.3 5.3 0 0 0-.48 1.35 8 8 0 0 0-.156 1.68m32.165 16.896v.87h-4.668v-.87zm0 2.274v.876h-4.668v-.876zm62.424 1.056q.414 0 .69.282a.92.92 0 0 1 .282.678q0 .216-.054.438a2.4 2.4 0 0 1-.18.504l-.972 2.226h-.912l.576-2.37a.96.96 0 0 1-.288-.342 1.06 1.06 0 0 1-.102-.456q0-.402.276-.678a.92.92 0 0 1 .684-.282m-62.424 14.67v.87h-4.668v-.87zm0 2.274v.876h-4.668v-.876zm62.424 1.056q.414 0 .69.282a.92.92 0 0 1 .282.678q0 .216-.054.438a2.4 2.4 0 0 1-.18.504l-.972 2.226h-.912l.576-2.37a.96.96 0 0 1-.288-.342 1.06 1.06 0 0 1-.102-.456q0-.402.276-.678a.92.92 0 0 1 .684-.282M153.041 446.8q0-.942-.162-1.68a5.2 5.2 0 0 0-.474-1.35 5.8 5.8 0 0 0-.804-1.164q-.48-.558-1.128-1.134l.528-.552q.978.792 1.668 1.626t1.056 1.86q.372 1.026.372 2.394 0 1.362-.372 2.388a6.1 6.1 0 0 1-1.056 1.86q-.69.834-1.668 1.632l-.528-.552q.642-.57 1.122-1.128.486-.552.804-1.164a5.6 5.6 0 0 0 .48-1.356 8 8 0 0 0 .162-1.68m-17.259 12.174q.504 0 .966.09.462.084.816.294t.534.576q.186.36.12.912l-.24 2.292q-.048.408.102.69.156.282.564.426t1.146.144v.804q-.732 0-1.146.15-.408.144-.564.426-.15.282-.102.696l.24 2.28q.06.552-.12.912a1.35 1.35 0 0 1-.534.576q-.348.21-.816.294-.462.09-.966.09v-.792q.438 0 .792-.084.36-.084.558-.294t.162-.582l-.252-2.46q-.054-.534.06-.858a.9.9 0 0 1 .408-.504q.3-.174.786-.24a2 2 0 0 1-.768-.27 1.03 1.03 0 0 1-.414-.522q-.12-.33-.072-.834l.252-2.46q.036-.366-.162-.576a1.1 1.1 0 0 0-.552-.294 3.3 3.3 0 0 0-.798-.09z"/><path fill="#ffb900" d="m169.147 316.738.468 8.262h-1.002l-.258-4.314-.036-.888q-.018-.45-.024-.864a52 52 0 0 1-.006-.738v-.504l-1.392 5.826h-1.044l-1.494-5.826q.006.174.012.516.006.336.006.762.006.426-.006.876a25 25 0 0 1-.024.828l-.222 4.326h-.978l.468-8.262h1.452l1.338 5.658 1.278-5.658zm6.56 6.882q0 .378.126.552a.74.74 0 0 0 .39.258l-.246.708a1.66 1.66 0 0 1-.714-.258q-.306-.21-.444-.63a2.2 2.2 0 0 1-.852.666q-.51.222-1.128.222-.948 0-1.494-.534t-.546-1.416q0-.978.762-1.5t2.202-.522h.93v-.528q0-.684-.402-.966-.396-.288-1.104-.288-.312 0-.732.078-.42.072-.912.246l-.264-.762a6.3 6.3 0 0 1 1.092-.306q.51-.09.972-.09 1.182 0 1.77.552.594.546.594 1.488zm-2.61.75q.468 0 .894-.234.426-.24.702-.66v-1.626h-.912q-1.044 0-1.476.36-.426.36-.426.966 0 .588.3.894.306.3.918.3m8.479-5.688v5.52h1.782V325h-4.74v-.798h1.95v-4.722h-1.89v-.798zm-.804-2.958q.336 0 .534.204a.68.68 0 0 1 .204.498.71.71 0 0 1-.204.516q-.198.204-.534.204a.7.7 0 0 1-.522-.204.71.71 0 0 1-.204-.516q0-.294.204-.498a.7.7 0 0 1 .522-.204m4.801 9.276v-6.318h.858l.078.876q.384-.486.96-.744a2.7 2.7 0 0 1 1.128-.264q.93 0 1.35.492.426.492.426 1.368V325h-1.008v-3.846q0-.648-.072-1.044-.072-.402-.3-.582-.228-.186-.708-.186-.372 0-.702.162-.324.162-.582.408-.252.24-.42.486V325zm11.366-2.322q0-.624-.246-.96a1.23 1.23 0 0 0-.642-.474 2.8 2.8 0 0 0-.882-.132h-1.41v3.03h1.362q.306 0 .624-.06t.588-.216q.276-.156.438-.438.168-.288.168-.75m-.33-3.804q0-.702-.438-.996-.432-.3-1.182-.3h-1.23v2.676h1.331q.733 0 1.123-.324.396-.33.396-1.056m1.427 3.768q0 .672-.269 1.128a2 2 0 0 1-.714.726q-.444.27-.996.39a5.5 5.5 0 0 1-1.116.114h-2.22v-8.262h2.034q.546 0 1.062.102.522.096.936.336.42.234.672.636t.252 1.008q0 .534-.222.906-.216.366-.57.588-.348.222-.744.312.462.072.894.282.438.204.72.624.281.414.281 1.11m2.936-3.96v4.476q0 .624.258.9t.804.276q.522 0 .984-.294.468-.3.726-.708v-4.65h1.008V325h-.858l-.084-.852q-.372.48-.918.738a2.6 2.6 0 0 1-1.104.252q-.918 0-1.374-.486-.45-.492-.45-1.374v-4.596zm11.203 6a2.6 2.6 0 0 1-.786.336q-.462.12-.906.12-1.02 0-1.572-.534t-.552-1.374v-3.768h-1.452v-.78h1.452v-1.434l1.008-.12v1.554h2.184l-.12.78h-2.064v3.756q0 .528.276.804.282.276.93.276.354 0 .654-.084t.558-.216zm7.195 0a2.6 2.6 0 0 1-.786.336q-.462.12-.906.12-1.02 0-1.572-.534t-.552-1.374v-3.768h-1.452v-.78h1.452v-1.434l1.008-.12v1.554h2.184l-.12.78h-2.064v3.756q0 .528.276.804.282.276.93.276.354 0 .654-.084t.558-.216zm4.586-6.132q.894 0 1.494.408.606.402.906 1.14.306.738.306 1.74 0 .966-.312 1.71a2.64 2.64 0 0 1-.918 1.17q-.6.42-1.488.42t-1.494-.408a2.53 2.53 0 0 1-.918-1.146q-.306-.744-.306-1.734 0-.978.312-1.722t.918-1.158q.612-.42 1.5-.42m0 .822q-.816 0-1.236.606-.414.6-.414 1.872 0 1.248.408 1.854.414.606 1.23.606t1.224-.606q.414-.606.414-1.866t-.408-1.86q-.408-.606-1.218-.606m4.789 5.628v-6.318h.858l.078.876q.384-.486.96-.744a2.7 2.7 0 0 1 1.128-.264q.93 0 1.35.492.426.492.426 1.368V325h-1.008v-3.846q0-.648-.072-1.044-.072-.402-.3-.582-.228-.186-.708-.186-.372 0-.702.162-.324.162-.582.408-.252.24-.42.486V325zm-74.978 69.678q0-.624-.246-.96a1.23 1.23 0 0 0-.642-.474 2.8 2.8 0 0 0-.882-.132h-1.41v3.03h1.362q.306 0 .624-.06t.588-.216q.276-.156.438-.438.168-.288.168-.75m-.33-3.804q0-.702-.438-.996-.432-.3-1.182-.3h-1.23v2.676h1.332q.732 0 1.122-.324.396-.33.396-1.056m1.428 3.768q0 .672-.27 1.128a2 2 0 0 1-.714.726q-.444.27-.996.39a5.5 5.5 0 0 1-1.116.114h-2.22v-8.262h2.034q.546 0 1.062.102.522.096.936.336.42.234.672.636t.252 1.008q0 .534-.222.906-.216.366-.57.588-.348.222-.744.312.462.072.894.282.438.204.72.624.282.414.282 1.11m2.935-3.96v4.476q0 .624.258.9t.804.276q.522 0 .984-.294.468-.3.726-.708v-4.65h1.008V397h-.858l-.084-.852q-.372.48-.918.738a2.6 2.6 0 0 1-1.104.252q-.918 0-1.374-.486-.45-.492-.45-1.374v-4.596zm11.203 6a2.6 2.6 0 0 1-.786.336q-.462.12-.906.12-1.02 0-1.572-.534t-.552-1.374v-3.768h-1.452v-.78h1.452v-1.434l1.008-.12v1.554h2.184l-.12.78h-2.064v3.756q0 .528.276.804.282.276.93.276.354 0 .654-.084t.558-.216zm7.196 0a2.6 2.6 0 0 1-.786.336q-.462.12-.906.12-1.02 0-1.572-.534t-.552-1.374v-3.768h-1.452v-.78h1.452v-1.434l1.008-.12v1.554h2.184l-.12.78h-2.064v3.756q0 .528.276.804.282.276.93.276.354 0 .654-.084t.558-.216zm4.585-6.132q.894 0 1.494.408.606.402.906 1.14.306.738.306 1.74 0 .966-.312 1.71a2.64 2.64 0 0 1-.918 1.17q-.6.42-1.488.42t-1.494-.408a2.53 2.53 0 0 1-.918-1.146q-.306-.744-.306-1.734 0-.978.312-1.722t.918-1.158q.612-.42 1.5-.42m0 .822q-.816 0-1.236.606-.414.6-.414 1.872 0 1.248.408 1.854.414.606 1.23.606t1.224-.606q.414-.606.414-1.866t-.408-1.86q-.408-.606-1.218-.606m4.789 5.628v-6.318h.858l.078.876q.384-.486.96-.744a2.7 2.7 0 0 1 1.128-.264q.93 0 1.35.492.426.492.426 1.368V397h-1.008v-3.846q0-.648-.072-1.044-.072-.402-.3-.582-.228-.186-.708-.186-.372 0-.702.162-.324.162-.582.408-.252.24-.42.486V397z"/><g filter="url(#e)"><rect width="211" height="220" fill="#fff" rx="20" transform="matrix(1 0 0 -1 926 256)"/></g><rect width="195" height="54" x="934" y="86" fill="#f3f5f8" rx="12"/><rect width="195" height="54" x="934" y="148" fill="#f3f5f8" rx="12"/><rect width="195" height="37" x="934" y="210" fill="#5886f9" rx="12"/><path fill="#6a7c92" d="M974.516 60.812q0-1.224.552-2.196a4 4 0 0 1 1.5-1.536 4.2 4.2 0 0 1 2.124-.552q1.368 0 2.388.66t1.488 1.872h-1.308a2.6 2.6 0 0 0-1.008-1.164q-.648-.408-1.56-.408a3.05 3.05 0 0 0-1.572.408q-.696.408-1.092 1.164-.396.744-.396 1.752 0 .996.396 1.752.396.744 1.092 1.152a3.05 3.05 0 0 0 1.572.408q.912 0 1.56-.396.66-.408 1.008-1.164h1.308q-.468 1.2-1.488 1.86-1.02.648-2.388.648-1.164 0-2.124-.54a4.04 4.04 0 0 1-1.5-1.524q-.552-.972-.552-2.196m12.546 4.296a3.4 3.4 0 0 1-1.68-.42 3.05 3.05 0 0 1-1.176-1.188q-.42-.78-.42-1.8 0-1.008.432-1.776.444-.78 1.2-1.188a3.4 3.4 0 0 1 1.692-.42q.936 0 1.692.42.756.408 1.188 1.176.444.768.444 1.788t-.456 1.8a3.1 3.1 0 0 1-1.212 1.188q-.768.42-1.704.42m0-.96q.588 0 1.104-.276t.828-.828q.324-.552.324-1.344t-.312-1.344a2 2 0 0 0-.816-.816 2.24 2.24 0 0 0-1.092-.276q-.6 0-1.104.276a1.95 1.95 0 0 0-.792.816q-.3.552-.3 1.344 0 .804.288 1.356.3.552.792.828.492.264 1.08.264m12.715-5.844q.771 0 1.373.324c.4.208.71.524.94.948.24.424.35.94.35 1.548V65h-1.08v-3.72c0-.656-.16-1.156-.49-1.5-.32-.352-.76-.528-1.309-.528q-.852 0-1.356.552-.504.54-.504 1.572V65h-1.08v-3.72q0-.984-.492-1.5-.48-.528-1.308-.528-.852 0-1.356.552-.504.54-.504 1.572V65h-1.092v-6.576h1.092v.948q.324-.516.864-.792a2.7 2.7 0 0 1 1.212-.276q.828 0 1.464.372t.948 1.092q.276-.696.912-1.08a2.7 2.7 0 0 1 1.416-.384m5.543 1.332q.33-.564.96-.936.66-.384 1.5-.384.885 0 1.59.42c.48.28.85.676 1.13 1.188.27.504.4 1.092.4 1.764 0 .664-.13 1.256-.4 1.776-.28.52-.65.924-1.13 1.212q-.705.432-1.59.432c-.56 0-1.05-.124-1.48-.372a2.8 2.8 0 0 1-.98-.948v4.332h-1.09v-9.696h1.09zm4.47 2.052q0-.744-.3-1.296c-.2-.368-.47-.648-.82-.84a2.2 2.2 0 0 0-1.11-.288c-.4 0-.78.1-1.12.3-.34.192-.61.476-.82.852q-.3.552-.3 1.284 0 .744.3 1.308c.21.368.48.652.82.852.34.192.72.288 1.12.288s.78-.096 1.11-.288c.35-.2.62-.484.82-.852q.3-.564.3-1.32m5.42 3.42q-.93 0-1.68-.42a3.05 3.05 0 0 1-1.18-1.188q-.42-.78-.42-1.8c0-.672.15-1.264.44-1.776q.435-.78 1.2-1.188c.5-.28 1.06-.42 1.69-.42.62 0 1.19.14 1.69.42.5.272.9.664 1.19 1.176s.44 1.108.44 1.788q0 1.02-.45 1.8c-.3.512-.7.908-1.22 1.188-.51.28-1.08.42-1.7.42m0-.96c.39 0 .76-.092 1.1-.276.35-.184.62-.46.83-.828q.33-.552.33-1.344c0-.528-.11-.976-.32-1.344-.2-.368-.48-.64-.81-.816-.34-.184-.7-.276-1.09-.276q-.6 0-1.11.276c-.33.176-.59.448-.79.816q-.3.552-.3 1.344c0 .536.1.988.29 1.356.2.368.46.644.79.828q.495.264 1.08.264m8.01-5.844q1.2 0 1.95.732c.49.48.74 1.176.74 2.088V65h-1.08v-3.72c0-.656-.16-1.156-.49-1.5q-.495-.528-1.35-.528t-1.38.54c-.33.36-.5.884-.5 1.572V65h-1.09v-6.576h1.09v.936c.22-.336.51-.596.88-.78q.555-.276 1.23-.276m10.47 3.156a8 8 0 0 1-.03.66h-5.26q.06.972.66 1.524c.41.36.9.54 1.48.54q.705 0 1.17-.324c.32-.224.55-.52.68-.888h1.17a2.86 2.86 0 0 1-1.05 1.548c-.53.392-1.19.588-1.97.588q-.945 0-1.68-.42c-.49-.28-.87-.676-1.15-1.188q-.42-.78-.42-1.8c0-.68.13-1.276.4-1.788q.42-.768 1.14-1.176.75-.42 1.71-.42.93 0 1.65.408t1.11 1.128q.39.708.39 1.608m-1.12-.228c0-.416-.1-.772-.28-1.068a1.73 1.73 0 0 0-.76-.684c-.31-.16-.66-.24-1.04-.24-.55 0-1.02.176-1.42.528q-.57.528-.66 1.464zm5.77-2.928c.8 0 1.45.244 1.94.732q.75.72.75 2.088V65h-1.08v-3.72c0-.656-.17-1.156-.5-1.5-.32-.352-.77-.528-1.34-.528q-.87 0-1.38.54c-.34.36-.5.884-.5 1.572V65h-1.1v-6.576h1.1v.936q.315-.504.87-.78c.38-.184.79-.276 1.24-.276m5.8 1.02V63.2q0 .48.21.684c.13.128.37.192.7.192h.81V65h-.99c-.6 0-1.06-.14-1.36-.42-.31-.28-.46-.74-.46-1.38v-3.876h-.85v-.9h.85v-1.656h1.09v1.656h1.72v.9zm7.33 4.788h2.93V65h-4.02v-8.364h1.09zm4.65-6.756c-.2 0-.38-.072-.52-.216a.7.7 0 0 1-.22-.528.7.7 0 0 1 .22-.528.7.7 0 0 1 .52-.216q.3 0 .51.216t.21.528-.21.528a.69.69 0 0 1-.51.216m.53 1.068V65h-1.09v-6.576zm2.96 1.224c.22-.392.55-.712.98-.96s.92-.372 1.48-.372q.885 0 1.59.42c.47.28.85.676 1.12 1.188.27.504.41 1.092.41 1.764 0 .664-.14 1.256-.41 1.776s-.65.924-1.13 1.212c-.47.288-1 .432-1.58.432q-.855 0-1.5-.372t-.96-.948V65h-1.1v-8.88h1.1zm4.46 2.04q0-.744-.3-1.296c-.2-.368-.47-.648-.82-.84q-.495-.288-1.11-.288c-.4 0-.77.1-1.12.3-.33.192-.61.476-.81.852q-.3.552-.3 1.284 0 .744.3 1.308c.2.368.48.652.81.852.35.192.72.288 1.12.288q.615 0 1.11-.288c.35-.2.62-.484.82-.852q.3-.564.3-1.32m3.65-2.196q.285-.564.81-.876c.36-.208.8-.312 1.31-.312v1.128h-.29q-1.83 0-1.83 1.992V65h-1.1v-6.576h1.1zm2.97 2.196c0-.672.14-1.26.41-1.764.27-.512.64-.908 1.12-1.188q.72-.42 1.59-.42t1.5.372c.43.248.74.56.95.936v-1.2h1.1V65h-1.1v-1.224c-.22.384-.54.704-.97.96-.43.248-.92.372-1.49.372-.58 0-1.11-.144-1.58-.432a2.97 2.97 0 0 1-1.12-1.212c-.27-.52-.41-1.112-.41-1.776m5.57.012q0-.744-.3-1.296c-.2-.368-.47-.648-.82-.84q-.495-.3-1.11-.3c-.41 0-.78.096-1.12.288-.33.192-.6.472-.8.84q-.3.552-.3 1.296 0 .756.3 1.32c.2.368.47.652.8.852.34.192.71.288 1.12.288q.615 0 1.11-.288c.35-.2.62-.484.82-.852q.3-.564.3-1.308m4.04-2.208c.19-.376.47-.668.82-.876.36-.208.79-.312 1.31-.312v1.128h-.29c-1.23 0-1.84.664-1.84 1.992V65h-1.09v-6.576h1.09zm9.05-1.068-3.96 9.672h-1.13l1.3-3.168-2.65-6.504h1.21l2.06 5.328 2.04-5.328zM986.98 124.07q-.69 0-1.24-.24a2.1 2.1 0 0 1-.85-.68 1.77 1.77 0 0 1-.32-1.01h.97q.05.49.4.83.36.33 1.04.33.65 0 1.02-.32.38-.33.38-.84 0-.4-.22-.65a1.4 1.4 0 0 0-.55-.38 9 9 0 0 0-.89-.28q-.69-.18-1.11-.36a1.85 1.85 0 0 1-.71-.56q-.29-.39-.29-1.04 0-.57.29-1.01t.81-.68q.53-.24 1.21-.24.98 0 1.6.49.63.49.71 1.3h-1q-.05-.4-.42-.7-.37-.31-.98-.31-.57 0-.93.3-.36.29-.36.82 0 .38.21.62.22.24.53.37.32.12.89.28.69.19 1.11.38.42.18.72.57.3.38.3 1.04 0 .51-.27.96t-.8.73-1.25.28m8.519-5.55V124h-.91v-.81q-.26.42-.73.66-.46.23-1.02.23-.64 0-1.15-.26-.51-.27-.81-.8-.29-.53-.29-1.29v-3.21h.9v3.09q0 .81.41 1.25.41.43 1.12.43.73 0 1.15-.45t.42-1.31v-3.01zm2.447 1.02q.28-.49.82-.8t1.23-.31c.494 0 .934.117 1.334.35q.585.35.93.99c.22.42.34.91.34 1.47 0 .553-.12 1.047-.34 1.48-.23.433-.54.77-.94 1.01q-.599.36-1.324.36-.71 0-1.25-.31a2.1 2.1 0 0 1-.8-.79V124h-.91v-7.4h.91zm3.724 1.7c0-.413-.09-.773-.25-1.08a1.78 1.78 0 0 0-1.614-.94 1.81 1.81 0 0 0-1.61.96q-.25.46-.25 1.07 0 .62.25 1.09.26.46.68.71.429.24.93.24.515 0 .934-.24c.28-.167.51-.403.68-.71.16-.313.25-.68.25-1.1m3.23-1.97v3.23c0 .267.06.457.17.57.12.107.31.16.59.16h.67v.77h-.82q-.75 0-1.14-.35c-.25-.233-.38-.617-.38-1.15v-3.23h-.71v-.75h.71v-1.38h.91v1.38h1.43v.75zm3.01-1.64c-.18 0-.32-.06-.44-.18a.6.6 0 0 1-.18-.44q0-.26.18-.44c.12-.12.26-.18.44-.18q.24 0 .42.18t.18.44-.18.44-.42.18m.44.89V124h-.91v-5.48zm2.66.75v3.23c0 .267.05.457.17.57.11.107.31.16.59.16h.67v.77h-.82q-.765 0-1.14-.35c-.26-.233-.38-.617-.38-1.15v-3.23h-.71v-.75h.71v-1.38h.91v1.38h1.43v.75zm3.44-2.67v7.4h-.91v-7.4zm6.55 4.45q0 .26-.03.55h-4.38c.03.54.22.963.55 1.27q.51.45 1.23.45c.39 0 .72-.09.98-.27.27-.187.45-.433.56-.74h.98c-.15.527-.44.957-.88 1.29-.44.327-.99.49-1.64.49-.52 0-.99-.117-1.4-.35a2.45 2.45 0 0 1-.96-.99c-.23-.433-.35-.933-.35-1.5s.11-1.063.34-1.49.54-.753.95-.98c.41-.233.89-.35 1.42-.35q.78 0 1.38.34c.4.227.71.54.92.94q.33.59.33 1.34m-.94-.19c0-.347-.08-.643-.23-.89a1.4 1.4 0 0 0-.63-.57q-.39-.2-.87-.2c-.46 0-.85.147-1.18.44-.32.293-.5.7-.55 1.22z"/><path fill="#373c4d" d="M948.016 171.524v2.796h3.048v.9h-3.048v2.88h3.408v.9h-4.5v-8.376h4.5v.9zm8.264.78q1.2 0 1.944.732.744.72.744 2.088V179h-1.08v-3.72q0-.984-.492-1.5-.492-.528-1.344-.528-.864 0-1.38.54-.504.54-.504 1.572V179h-1.092v-6.576h1.092v.936q.324-.504.876-.78a2.8 2.8 0 0 1 1.236-.276m4.064 3.384q0-1.008.408-1.764a2.96 2.96 0 0 1 1.116-1.188 3.1 3.1 0 0 1 1.596-.42q.864 0 1.5.372t.948.936v-1.2h1.104V179h-1.104v-1.224q-.324.576-.972.96-.636.372-1.488.372a3 3 0 0 1-1.584-.432 3.03 3.03 0 0 1-1.116-1.212q-.408-.78-.408-1.776m5.568.012q0-.744-.3-1.296a2.07 2.07 0 0 0-.816-.84 2.14 2.14 0 0 0-1.116-.3q-.612 0-1.116.288a2.1 2.1 0 0 0-.804.84q-.3.552-.3 1.296 0 .756.3 1.32.3.552.804.852a2.2 2.2 0 0 0 1.116.288q.612 0 1.116-.288.516-.3.816-.852.3-.564.3-1.308m4.042-2.052q.336-.588.984-.96a2.9 2.9 0 0 1 1.476-.372q.888 0 1.596.42t1.116 1.188q.408.756.408 1.764 0 .996-.408 1.776a3 3 0 0 1-2.712 1.644q-.852 0-1.5-.372a2.54 2.54 0 0 1-.96-.948V179h-1.092v-8.88h1.092zm4.464 2.04q0-.744-.3-1.296a2.07 2.07 0 0 0-.816-.84 2.2 2.2 0 0 0-1.116-.288q-.6 0-1.116.3a2.15 2.15 0 0 0-.816.852q-.3.552-.3 1.284 0 .744.3 1.308.312.552.816.852.516.288 1.116.288.612 0 1.116-.288.516-.3.816-.852.3-.564.3-1.32m3.645-5.568V179h-1.092v-8.88zm7.861 5.34q0 .312-.036.66h-5.256q.06.972.66 1.524.612.54 1.476.54.708 0 1.176-.324.48-.336.672-.888h1.176a2.86 2.86 0 0 1-1.056 1.548q-.792.588-1.968.588-.936 0-1.68-.42a3 3 0 0 1-1.152-1.188q-.42-.78-.42-1.8t.408-1.788a2.84 2.84 0 0 1 1.14-1.176q.744-.42 1.704-.42.936 0 1.656.408t1.104 1.128q.396.708.396 1.608m-1.128-.228q0-.624-.276-1.068a1.74 1.74 0 0 0-.756-.684q-.468-.24-1.044-.24-.828 0-1.416.528-.576.528-.66 1.464zm8.973-2.928q1.2 0 1.944.732.744.72.744 2.088V179h-1.08v-3.72q0-.984-.492-1.5-.492-.528-1.344-.528-.864 0-1.38.54-.504.54-.504 1.572V179h-1.092v-6.576h1.092v.936q.324-.504.876-.78a2.8 2.8 0 0 1 1.236-.276m7.341 6.804c-.62 0-1.178-.14-1.682-.42a3.05 3.05 0 0 1-1.176-1.188q-.42-.78-.42-1.8 0-1.008.432-1.776.444-.78 1.2-1.188a3.4 3.4 0 0 1 1.696-.42c.62 0 1.18.14 1.69.42.5.272.9.664 1.19 1.176s.44 1.108.44 1.788-.15 1.28-.46 1.8c-.29.512-.7.908-1.21 1.188s-1.08.42-1.7.42m0-.96c.39 0 .76-.092 1.1-.276.35-.184.62-.46.83-.828.22-.368.32-.816.32-1.344s-.1-.976-.31-1.344q-.315-.552-.81-.816c-.34-.184-.7-.276-1.1-.276s-.76.092-1.1.276a1.95 1.95 0 0 0-.792.816q-.3.552-.3 1.344 0 .804.288 1.356.3.552.794.828.495.264 1.08.264m6.14-4.824v3.876c0 .32.07.548.2.684.14.128.37.192.71.192h.8V179h-.98c-.61 0-1.06-.14-1.37-.42q-.45-.42-.45-1.38v-3.876h-.86v-.9h.86v-1.656h1.09v1.656h1.71v.9zm3.6-1.968a.73.73 0 0 1-.74-.744.73.73 0 0 1 .74-.744q.3 0 .51.216t.21.528-.21.528a.69.69 0 0 1-.51.216m.53 1.068V179h-1.09v-6.576zm4.54.9h-1.38V179h-1.1v-5.676h-.85v-.9h.85v-.468q0-1.104.57-1.608.57-.516 1.83-.516v.912q-.72 0-1.02.288c-.19.184-.28.492-.28.924v.468h1.38zm1.83-1.968c-.2 0-.38-.072-.52-.216a.7.7 0 0 1-.22-.528.7.7 0 0 1 .22-.528.7.7 0 0 1 .52-.216q.3 0 .51.216t.21.528-.21.528a.69.69 0 0 1-.51.216m.53 1.068V179h-1.09v-6.576zm1.45 3.276c0-.68.14-1.272.41-1.776a2.93 2.93 0 0 1 1.13-1.188c.49-.28 1.04-.42 1.67-.42.81 0 1.47.196 1.99.588.53.392.88.936 1.04 1.632h-1.17a1.66 1.66 0 0 0-.66-.948q-.48-.348-1.2-.348c-.63 0-1.13.216-1.51.648-.39.424-.58 1.028-.58 1.812 0 .792.19 1.404.58 1.836.38.432.88.648 1.51.648q.72 0 1.2-.336t.66-.96h1.17a2.87 2.87 0 0 1-1.05 1.62q-.795.6-1.98.6c-.63 0-1.18-.14-1.67-.42a2.93 2.93 0 0 1-1.13-1.188c-.27-.512-.41-1.112-.41-1.8m7.29-.012c0-.672.14-1.26.41-1.764.27-.512.65-.908 1.12-1.188q.72-.42 1.59-.42t1.5.372c.43.248.74.56.95.936v-1.2h1.11V179h-1.11v-1.224c-.21.384-.54.704-.97.96-.42.248-.92.372-1.49.372-.58 0-1.11-.144-1.58-.432a3.04 3.04 0 0 1-1.12-1.212c-.27-.52-.41-1.112-.41-1.776m5.57.012q0-.744-.3-1.296t-.81-.84c-.34-.2-.71-.3-1.12-.3s-.78.096-1.12.288c-.33.192-.6.472-.8.84q-.3.552-.3 1.296 0 .756.3 1.32c.2.368.47.652.8.852.34.192.71.288 1.12.288s.78-.096 1.12-.288q.51-.3.81-.852.3-.564.3-1.308m4.28-2.376v3.876q0 .48.21.684c.13.128.37.192.71.192h.8V179h-.98c-.61 0-1.07-.14-1.37-.42-.31-.28-.46-.74-.46-1.38v-3.876h-.85v-.9h.85v-1.656h1.09v1.656h1.72v.9zm3.61-1.968a.71.71 0 0 1-.53-.216.7.7 0 0 1-.22-.528.7.7 0 0 1 .22-.528.71.71 0 0 1 .53-.216c.2 0 .36.072.5.216s.22.32.22.528-.08.384-.22.528a.66.66 0 0 1-.5.216m.52 1.068V179h-1.09v-6.576zm4.73 6.684q-.915 0-1.68-.42-.735-.42-1.17-1.188-.42-.78-.42-1.8c0-.672.14-1.264.43-1.776q.45-.78 1.2-1.188c.5-.28 1.07-.42 1.69-.42.63 0 1.19.14 1.69.42.51.272.9.664 1.19 1.176q.45.768.45 1.788c0 .68-.16 1.28-.46 1.8-.3.512-.7.908-1.21 1.188q-.765.42-1.71.42m0-.96c.4 0 .76-.092 1.11-.276.34-.184.62-.46.83-.828s.32-.816.32-1.344-.1-.976-.31-1.344a2 2 0 0 0-.82-.816c-.33-.184-.7-.276-1.09-.276-.4 0-.77.092-1.1.276-.33.176-.6.448-.8.816q-.3.552-.3 1.344c0 .536.1.988.29 1.356.2.368.47.644.79.828q.495.264 1.08.264m8.02-5.844c.8 0 1.44.244 1.94.732.5.48.74 1.176.74 2.088V179h-1.08v-3.72c0-.656-.16-1.156-.49-1.5-.33-.352-.77-.528-1.34-.528q-.87 0-1.38.54t-.51 1.572V179h-1.09v-6.576h1.09v.936c.22-.336.51-.596.88-.78.38-.184.79-.276 1.24-.276m6.79 6.804q-.75 0-1.35-.252c-.4-.176-.72-.416-.95-.72a1.93 1.93 0 0 1-.38-1.068h1.12c.04.328.19.596.46.804.28.208.64.312 1.09.312q.63 0 .99-.276t.36-.696q0-.432-.39-.636c-.25-.144-.65-.284-1.19-.42q-.72-.192-1.2-.384c-.3-.136-.56-.332-.79-.588-.21-.264-.32-.608-.32-1.032q0-.504.3-.924c.2-.28.48-.5.85-.66q.555-.252 1.26-.252c.73 0 1.32.184 1.76.552q.675.552.72 1.512h-1.09q-.03-.516-.42-.828c-.25-.208-.58-.312-1.01-.312q-.585 0-.93.252a.79.79 0 0 0-.35.66c0 .216.07.396.2.54.15.136.32.248.53.336.22.08.51.172.89.276.47.128.86.256 1.15.384.3.12.55.304.76.552s.33.572.33.972q0 .54-.3.972c-.2.288-.48.516-.85.684-.36.16-.77.24-1.25.24"/><path fill="#fff" d="M989.364 228.716q.672.12 1.14.708t.468 1.332q0 .636-.336 1.152-.324.504-.948.804-.624.288-1.452.288H984.9v-8.34h3.18q.852 0 1.464.288t.924.78q.312.48.312 1.08 0 .72-.384 1.2t-1.032.708m-3.096-.552h1.692q.672 0 1.044-.3.384-.312.384-.888 0-.564-.384-.876-.372-.324-1.044-.324h-1.692zm1.848 3.72q.696 0 1.092-.336t.396-.936q0-.612-.42-.972t-1.116-.36h-1.8v2.604zm10.331-5.496V233h-1.368v-.78q-.324.408-.852.648a2.7 2.7 0 0 1-1.104.228q-.78 0-1.404-.324a2.4 2.4 0 0 1-.972-.96q-.348-.636-.348-1.536v-3.888h1.356v3.684q0 .888.444 1.368.444.468 1.212.468t1.212-.468q.456-.48.456-1.368v-3.684zm3.403 1.116v3.66c0 .248.05.428.17.54q.18.156.6.156h.84V233h-1.08c-.62 0-1.09-.144-1.42-.432s-.49-.756-.49-1.404v-3.66h-.782v-1.116h.782v-1.644h1.38v1.644h1.61v1.116zm4.46 0v3.66c0 .248.06.428.17.54q.18.156.6.156h.84V233h-1.08c-.62 0-1.09-.144-1.42-.432-.32-.288-.49-.756-.49-1.404v-3.66h-.78v-1.116h.78v-1.644h1.38v1.644h1.61v1.116zm5.74 5.604c-.62 0-1.19-.14-1.69-.42-.51-.288-.9-.688-1.19-1.2-.29-.52-.43-1.12-.43-1.8 0-.672.15-1.268.44-1.788.3-.52.7-.92 1.21-1.2a3.56 3.56 0 0 1 1.72-.42c.63 0 1.2.14 1.72.42.51.28.91.68 1.21 1.2.29.52.44 1.116.44 1.788q0 1.008-.45 1.788c-.31.52-.72.924-1.25 1.212a3.6 3.6 0 0 1-1.73.42m0-1.188c.35 0 .68-.084.98-.252.32-.168.57-.42.76-.756s.29-.744.29-1.224-.09-.884-.28-1.212a1.85 1.85 0 0 0-.73-.756c-.3-.168-.63-.252-.98-.252-.36 0-.68.084-.99.252-.29.168-.53.42-.71.756-.17.328-.26.732-.26 1.212q0 1.068.54 1.656.555.576 1.38.576m8.12-5.64c.52 0 .98.108 1.39.324.42.216.74.536.97.96.24.424.35.936.35 1.536v3.9h-1.35v-3.696q0-.888-.45-1.356c-.29-.32-.7-.48-1.21-.48s-.92.16-1.22.48q-.45.468-.45 1.356V233h-1.37v-6.612h1.37v.756c.23-.272.51-.484.85-.636a2.8 2.8 0 0 1 1.12-.228m7.12 2.532c0-.816.19-1.548.56-2.196.39-.648.9-1.152 1.55-1.512a4.3 4.3 0 0 1 2.15-.552c.89 0 1.67.22 2.36.66.7.432 1.2 1.048 1.51 1.848h-1.64q-.33-.66-.9-.984c-.38-.216-.83-.324-1.33-.324-.55 0-1.05.124-1.48.372q-.645.372-1.02 1.068-.36.696-.36 1.62t.36 1.62q.375.696 1.02 1.08c.43.248.93.372 1.48.372.5 0 .95-.108 1.33-.324q.57-.324.9-.984h1.64c-.31.8-.81 1.416-1.51 1.848-.69.432-1.47.648-2.36.648-.79 0-1.5-.18-2.15-.54a4.2 4.2 0 0 1-1.55-1.524c-.37-.648-.56-1.38-.56-2.196m12.6 4.296c-.62 0-1.18-.14-1.69-.42a3.16 3.16 0 0 1-1.19-1.2c-.28-.52-.43-1.12-.43-1.8q0-1.008.45-1.788c.29-.52.7-.92 1.21-1.2q.765-.42 1.71-.42c.64 0 1.21.14 1.72.42s.92.68 1.21 1.2q.45.78.45 1.788c0 .672-.16 1.268-.46 1.788s-.72.924-1.25 1.212c-.52.28-1.09.42-1.73.42m0-1.188c.36 0 .68-.084.99-.252q.465-.252.75-.756c.2-.336.29-.744.29-1.224q0-.72-.27-1.212a1.87 1.87 0 0 0-.74-.756c-.3-.168-.63-.252-.98-.252s-.68.084-.98.252-.54.42-.71.756q-.27.492-.27 1.212 0 1.068.54 1.656.555.576 1.38.576m12.79-5.64c.52 0 .99.108 1.39.324.42.216.74.536.98.96q.36.636.36 1.536v3.9h-1.36v-3.696c0-.592-.15-1.044-.44-1.356-.3-.32-.7-.48-1.22-.48-.51 0-.92.16-1.22.48-.3.312-.44.764-.44 1.356V233h-1.36v-3.696c0-.592-.15-1.044-.44-1.356-.3-.32-.7-.48-1.22-.48-.51 0-.92.16-1.22.48-.3.312-.44.764-.44 1.356V233h-1.37v-6.612h1.37v.756c.22-.272.5-.484.85-.636.34-.152.71-.228 1.1-.228.53 0 1 .112 1.42.336q.615.336.96.972.3-.6.93-.948c.43-.24.88-.36 1.37-.36m5.83 1.08c.24-.304.55-.56.95-.768s.85-.312 1.36-.312c.57 0 1.1.144 1.57.432.48.28.86.676 1.13 1.188s.41 1.1.41 1.764-.14 1.26-.41 1.788c-.27.52-.65.928-1.13 1.224-.47.288-1 .432-1.57.432-.51 0-.95-.1-1.35-.3a3.1 3.1 0 0 1-.96-.768v4.104h-1.36v-9.756h1.36zm4.02 2.304c0-.456-.09-.848-.28-1.176a1.9 1.9 0 0 0-.75-.756c-.3-.176-.63-.264-.98-.264s-.67.088-.99.264c-.3.176-.55.432-.74.768-.18.336-.28.732-.28 1.188s.1.856.28 1.2c.19.336.44.592.74.768.32.176.64.264.99.264s.68-.088.98-.264q.465-.276.75-.792c.19-.344.28-.744.28-1.2m5.62 3.444c-.63 0-1.19-.14-1.7-.42-.5-.288-.9-.688-1.18-1.2-.29-.52-.44-1.12-.44-1.8q0-1.008.45-1.788c.29-.52.7-.92 1.21-1.2s1.08-.42 1.72-.42q.945 0 1.71.42c.51.28.92.68 1.21 1.2q.45.78.45 1.788c0 .672-.15 1.268-.46 1.788-.3.52-.72.924-1.25 1.212-.52.28-1.09.42-1.72.42m0-1.188a1.98 1.98 0 0 0 1.74-1.008c.19-.336.28-.744.28-1.224q0-.72-.27-1.212a1.9 1.9 0 0 0-.73-.756 2.05 2.05 0 0 0-.99-.252c-.35 0-.68.084-.98.252s-.53.42-.71.756c-.18.328-.26.732-.26 1.212q0 1.068.54 1.656.54.576 1.38.576m8.12-5.64c.52 0 .98.108 1.39.324.42.216.74.536.97.96s.35.936.35 1.536v3.9h-1.36v-3.696c0-.592-.14-1.044-.44-1.356-.3-.32-.7-.48-1.21-.48q-.765 0-1.23.48c-.29.312-.44.764-.44 1.356V233h-1.37v-6.612h1.37v.756c.22-.272.51-.484.85-.636.35-.152.73-.228 1.12-.228m10.51 3.252a5 5 0 0 1-.04.672h-5.06c.04.528.24.952.59 1.272s.79.48 1.3.48q1.095 0 1.56-.924h1.47c-.2.608-.56 1.108-1.09 1.5-.52.384-1.17.576-1.94.576q-.945 0-1.71-.42a3.2 3.2 0 0 1-1.17-1.2q-.42-.78-.42-1.8c0-.68.13-1.276.41-1.788.28-.52.66-.92 1.16-1.2s1.08-.42 1.73-.42c.62 0 1.18.136 1.67.408q.72.408 1.14 1.152c.27.488.4 1.052.4 1.692m-1.42-.432q-.015-.756-.54-1.212c-.36-.304-.79-.456-1.31-.456-.47 0-.88.152-1.21.456q-.51.444-.6 1.212zm6.11-2.82c.52 0 .98.108 1.39.324s.74.536.97.96.35.936.35 1.536v3.9h-1.36v-3.696c0-.592-.15-1.044-.44-1.356-.3-.32-.7-.48-1.21-.48-.52 0-.92.16-1.23.48-.29.312-.44.764-.44 1.356V233h-1.37v-6.612h1.37v.756c.22-.272.51-.484.85-.636a2.8 2.8 0 0 1 1.12-.228m6.05 1.224v3.66c0 .248.06.428.17.54q.18.156.6.156h.84V233h-1.08c-.62 0-1.09-.144-1.42-.432s-.49-.756-.49-1.404v-3.66h-.78v-1.116h.78v-1.644h1.38v1.644h1.61v1.116z"/><path fill="#373c4d" d="M990.288 102.66v1.116h-2.22V111H986.7v-7.224h-2.232v-1.116zm2.081.852a.85.85 0 0 1-.624-.252.85.85 0 0 1-.252-.624q0-.372.252-.624a.85.85 0 0 1 .624-.252q.36 0 .612.252a.85.85 0 0 1 .252.624.85.85 0 0 1-.252.624.83.83 0 0 1-.612.252m.672.876V111h-1.368v-6.612zm3.393 1.116v3.66q0 .372.168.54.18.156.6.156h.84V111h-1.08q-.924 0-1.416-.432t-.492-1.404v-3.66h-.78v-1.116h.78v-1.644h1.38v1.644h1.608v1.116zm4.236-3.384V111h-1.368v-8.88zm7.86 5.412c0 .248-.02.472-.05.672h-5.05c.04.528.23.952.58 1.272.36.32.79.48 1.3.48q1.11 0 1.56-.924h1.48c-.2.608-.57 1.108-1.1 1.5-.52.384-1.16.576-1.94.576-.63 0-1.2-.14-1.7-.42-.5-.288-.89-.688-1.18-1.2q-.42-.78-.42-1.8c0-.68.14-1.276.41-1.788.28-.52.67-.92 1.16-1.2.51-.28 1.08-.42 1.73-.42.62 0 1.18.136 1.67.408q.735.408 1.14 1.152c.27.488.41 1.052.41 1.692m-1.43-.432q-.015-.756-.54-1.212c-.35-.304-.79-.456-1.31-.456-.47 0-.88.152-1.21.456q-.51.444-.6 1.212z"/><path fill="#fff" d="m975.796 226.214-7.383 7.577a.68.68 0 0 1-.98 0l-3.23-3.315a.725.725 0 0 1 0-1.006.68.68 0 0 1 .981 0l2.74 2.812 6.892-7.074a.685.685 0 0 1 .981 0 .724.724 0 0 1 0 1.007z"/><rect width="30" height="30" x="946" y="98" fill="#e6edff" rx="8"/><path fill="#5886f9" d="M1113.5 167.25h-10c-1.99 0-3.9.79-5.3 2.197a7.487 7.487 0 0 0 0 10.606 7.48 7.48 0 0 0 5.3 2.197h10c1.99 0 3.9-.79 5.3-2.197a7.487 7.487 0 0 0 0-10.606 7.48 7.48 0 0 0-5.3-2.197m0 11.667c-.82 0-1.63-.245-2.31-.703a4.17 4.17 0 0 1-1.54-1.869c-.31-.762-.4-1.6-.24-2.408s.56-1.551 1.14-2.133c.59-.583 1.33-.98 2.14-1.141a4.14 4.14 0 0 1 2.4.238 4.1 4.1 0 0 1 1.87 1.534c.46.685.71 1.491.71 2.315a4.17 4.17 0 0 1-4.17 4.167"/><g filter="url(#f)"><rect width="222" height="163" x="675" y="162" fill="#fff" rx="20"/></g><path fill="#24b360" d="M763 223.553v2.947a.57.57 0 0 1-.151.39.5.5 0 0 1-.366.162.5.5 0 0 1-.366-.162.57.57 0 0 1-.151-.39v-1.612l-3.255 3.478a.5.5 0 0 1-.168.12.49.49 0 0 1-.396 0 .5.5 0 0 1-.168-.12l-1.357-1.452-2.738 2.924a.5.5 0 0 1-.366.162.5.5 0 0 1-.366-.162.576.576 0 0 1 0-.783l3.103-3.316a.5.5 0 0 1 .168-.12.49.49 0 0 1 .396 0q.095.043.168.12l1.358 1.451 2.888-3.085h-1.508a.5.5 0 0 1-.366-.162.57.57 0 0 1-.152-.39c0-.147.055-.288.152-.391a.5.5 0 0 1 .366-.162h2.758a.5.5 0 0 1 .366.162.57.57 0 0 1 .151.391"/><path fill="#6a7c92" d="M700.992 190.636v5.292q0 1.116.54 1.656.552.54 1.524.54.96 0 1.5-.54.552-.54.552-1.656v-5.292h1.092v5.28q0 1.044-.42 1.764-.42.708-1.14 1.056a3.6 3.6 0 0 1-1.596.348 3.65 3.65 0 0 1-1.608-.348 2.65 2.65 0 0 1-1.128-1.056q-.408-.72-.408-1.764v-5.28zm9.358 8.472q-.756 0-1.356-.252a2.36 2.36 0 0 1-.948-.72 1.95 1.95 0 0 1-.384-1.068h1.128q.048.492.456.804.42.312 1.092.312.624 0 .984-.276t.36-.696q0-.432-.384-.636-.384-.216-1.188-.42a10 10 0 0 1-1.2-.384 2.3 2.3 0 0 1-.792-.588q-.324-.396-.324-1.032 0-.504.3-.924t.852-.66a3 3 0 0 1 1.26-.252q1.092 0 1.764.552t.72 1.512h-1.092a1.12 1.12 0 0 0-.42-.828q-.372-.312-1.008-.312-.588 0-.936.252a.78.78 0 0 0-.348.66q0 .324.204.54.216.204.528.336.324.12.888.276.708.192 1.152.384.444.18.756.552.324.372.336.972 0 .54-.3.972t-.852.684q-.54.24-1.248.24m9.941-3.648q0 .312-.036.66h-5.256q.06.972.66 1.524.612.54 1.476.54.708 0 1.176-.324.48-.336.672-.888h1.176a2.86 2.86 0 0 1-1.056 1.548q-.792.588-1.968.588-.936 0-1.68-.42a3 3 0 0 1-1.152-1.188q-.42-.78-.42-1.8t.408-1.788a2.84 2.84 0 0 1 1.14-1.176q.744-.42 1.704-.42.936 0 1.656.408t1.104 1.128q.396.708.396 1.608m-1.128-.228q0-.624-.276-1.068a1.74 1.74 0 0 0-.756-.684q-.468-.24-1.044-.24-.828 0-1.416.528-.576.528-.66 1.464zm3.662-1.74q.288-.564.816-.876.54-.312 1.308-.312v1.128h-.288q-1.836 0-1.836 1.992V199h-1.092v-6.576h1.092zm12.919-.432a2.56 2.56 0 0 0-1.008-1.128q-.66-.408-1.536-.408t-1.584.408a2.84 2.84 0 0 0-1.104 1.152q-.396.744-.396 1.728t.396 1.728q.408.744 1.104 1.152.708.396 1.584.396 1.224 0 2.016-.732t.924-1.98h-3.336v-.888h4.5v.84a4.2 4.2 0 0 1-.648 1.896 4.1 4.1 0 0 1-1.452 1.356q-.9.492-2.004.492-1.164 0-2.124-.54a4.1 4.1 0 0 1-1.524-1.524q-.552-.972-.552-2.196t.552-2.196a4 4 0 0 1 1.524-1.524 4.2 4.2 0 0 1 2.124-.552q1.332 0 2.352.66 1.032.66 1.5 1.86zm4.096.432q.288-.564.816-.876.54-.312 1.308-.312v1.128h-.288q-1.836 0-1.836 1.992V199h-1.092v-6.576h1.092zm6.253 5.616a3.4 3.4 0 0 1-1.68-.42 3.05 3.05 0 0 1-1.176-1.188q-.42-.78-.42-1.8 0-1.008.432-1.776.444-.78 1.2-1.188a3.4 3.4 0 0 1 1.692-.42q.936 0 1.692.42.756.408 1.188 1.176.444.768.444 1.788t-.456 1.8a3.1 3.1 0 0 1-1.212 1.188q-.768.42-1.704.42m0-.96q.588 0 1.104-.276t.828-.828q.324-.552.324-1.344t-.312-1.344a2 2 0 0 0-.816-.816 2.24 2.24 0 0 0-1.092-.276q-.6 0-1.104.276a1.95 1.95 0 0 0-.792.816q-.3.552-.3 1.344 0 .804.288 1.356.3.552.792.828.492.264 1.08.264m13.568-5.724L757.609 199h-1.128l-1.584-5.22-1.584 5.22h-1.128l-2.064-6.576h1.116l1.512 5.52 1.632-5.52h1.116l1.596 5.532 1.488-5.532zm2.415.9v3.876q0 .48.204.684.204.192.708.192h.804V199h-.984q-.912 0-1.368-.42t-.456-1.38v-3.876h-.852v-.9h.852v-1.656h1.092v1.656h1.716v.9zm6.303-1.02q.744 0 1.344.324.6.312.936.948.348.636.348 1.548V199h-1.08v-3.72q0-.984-.492-1.5-.492-.528-1.344-.528-.864 0-1.38.54-.504.54-.504 1.572V199h-1.092v-8.88h1.092v3.24a2.16 2.16 0 0 1 .888-.78 2.9 2.9 0 0 1 1.284-.276"/><path fill="#24b360" d="M774.164 226.076h-2.556v2.592h-1.02v-2.592h-2.544v-.924h2.544v-2.604h1.02v2.604h2.556zm1.483-3.756v-.996h2.256V230h-1.104v-7.68zm4 6.804a57 57 0 0 0 2.388-2.004 9.8 9.8 0 0 0 1.452-1.644q.6-.864.6-1.692 0-.78-.384-1.224-.372-.456-1.212-.456-.816 0-1.272.516-.444.504-.48 1.356h-1.056q.048-1.344.816-2.076t1.98-.732q1.236 0 1.956.684.732.684.732 1.884 0 .996-.6 1.944a8.6 8.6 0 0 1-1.344 1.656 35 35 0 0 1-1.932 1.656h4.128v.912h-5.772zm7.563.948a.72.72 0 0 1-.528-.216.72.72 0 0 1-.216-.528q0-.312.216-.528a.72.72 0 0 1 .528-.216q.3 0 .504.216.216.216.216.528a.72.72 0 0 1-.216.528.67.67 0 0 1-.504.216m7.523-7.8h-4.212v2.736q.276-.384.816-.624.54-.252 1.164-.252.996 0 1.62.42.624.408.888 1.068.276.648.276 1.38 0 .864-.324 1.548a2.45 2.45 0 0 1-.996 1.08q-.66.396-1.644.396-1.26 0-2.04-.648t-.948-1.728h1.068q.156.684.66 1.068t1.272.384q.948 0 1.428-.564.48-.576.48-1.512t-.48-1.44q-.48-.516-1.416-.516-.636 0-1.116.312-.468.3-.684.828h-1.032v-4.896h5.22zm1.763 1.008q0-.816.492-1.296.492-.492 1.26-.492t1.26.492q.492.48.492 1.296 0 .828-.492 1.32-.492.48-1.26.48t-1.26-.48q-.492-.492-.492-1.32m7.008-1.656-4.86 8.376h-1.08l4.86-8.376zm-5.256.54a.8.8 0 0 0-.648.288q-.228.276-.228.828t.228.84a.8.8 0 0 0 .648.288.8.8 0 0 0 .648-.288q.24-.3.24-.84 0-.552-.24-.828a.8.8 0 0 0-.648-.288m2.844 6.18q0-.828.492-1.308.492-.492 1.26-.492t1.248.492q.492.48.492 1.308 0 .816-.492 1.308-.48.492-1.248.492t-1.26-.48q-.492-.492-.492-1.32m1.74-1.116a.8.8 0 0 0-.648.288q-.24.276-.24.828 0 .54.24.828.24.276.648.276t.648-.276q.24-.288.24-.828 0-.552-.24-.828a.8.8 0 0 0-.648-.288"/><path fill="#373c4d" d="M701.706 228.59q2.112-1.826 3.322-2.992a13.6 13.6 0 0 0 2.046-2.464q.814-1.276.814-2.552 0-1.32-.638-2.068-.616-.748-1.958-.748-1.298 0-2.024.836-.704.814-.748 2.2h-2.42q.066-2.508 1.496-3.828 1.452-1.342 3.674-1.342 2.398 0 3.74 1.32 1.364 1.32 1.364 3.52 0 1.584-.814 3.058a12.1 12.1 0 0 1-1.914 2.618q-1.1 1.144-2.816 2.662l-.99.88h6.974v2.09h-10.692v-1.826zm12.653 3.564q-.682 0-1.144-.462a1.55 1.55 0 0 1-.462-1.144q0-.682.462-1.144t1.144-.462q.66 0 1.122.462t.462 1.144-.462 1.144a1.53 1.53 0 0 1-1.122.462m3.657-3.498v-1.892l7.392-10.604h3.036v10.318h2.046v2.178h-2.046V232h-2.464v-3.344zm8.074-9.944-5.192 7.766h5.192zm11.604 7.238 5.588 6.05h-3.388l-4.488-5.214V232h-2.508v-16.28h2.508v9.46l4.4-5.302h3.476z"/><path stroke="#5886f9" stroke-linecap="round" stroke-width="2" d="M699 301c10.401-4.562 18.434-11.189 30.343-12.074 13.35-.993 26.129 6.251 39.671 4.368 2.917-.406 10.281-3.19 19.334-6.499 5.966-2.18 11.433-1.217 18.737-2.272 4.166-.601 6.89-3.516 12.419-9.711 4.098-4.591 10.975-4.812 16.935-6.408 13.443-3.599 28.426-9.802 36.561-19.404"/><defs><filter id="a" width="317" height="171" x="0" y="58" color-interpolation-filters="sRGB" filterUnits="userSpaceOnUse"><feFlood flood-opacity="0" result="BackgroundImageFix"/><feColorMatrix in="SourceAlpha" result="hardAlpha" values="0 0 0 0 0 0 0 0 0 0 0 0 0 0 0 0 0 0 127 0"/><feOffset dy="4"/><feGaussianBlur stdDeviation="20"/><feComposite in2="hardAlpha" operator="out"/><feColorMatrix values="0 0 0 0 0.217248 0 0 0 0 0.236798 0 0 0 0 0.301033 0 0 0 0.25 0"/><feBlend in2="BackgroundImageFix" result="effect1_dropShadow_261_361"/><feBlend in="SourceGraphic" in2="effect1_dropShadow_261_361" result="shape"/></filter><filter id="c" width="301" height="249" x="775" y="330" color-interpolation-filters="sRGB" filterUnits="userSpaceOnUse"><feFlood flood-opacity="0" result="BackgroundImageFix"/><feColorMatrix in="SourceAlpha" result="hardAlpha" values="0 0 0 0 0 0 0 0 0 0 0 0 0 0 0 0 0 0 127 0"/><feOffset dy="4"/><feGaussianBlur stdDeviation="20"/><feComposite in2="hardAlpha" operator="out"/><feColorMatrix values="0 0 0 0 0.217248 0 0 0 0 0.236798 0 0 0 0 0.301033 0 0 0 0.25 0"/><feBlend in2="BackgroundImageFix" result="effect1_dropShadow_261_361"/><feBlend in="SourceGraphic" in2="effect1_dropShadow_261_361" result="shape"/></filter><filter id="d" width="372" height="335" x="78" y="198" color-interpolation-filters="sRGB" filterUnits="userSpaceOnUse"><feFlood flood-opacity="0" result="BackgroundImageFix"/><feColorMatrix in="SourceAlpha" result="hardAlpha" values="0 0 0 0 0 0 0 0 0 0 0 0 0 0 0 0 0 0 127 0"/><feOffset dy="4"/><feGaussianBlur stdDeviation="20"/><feComposite in2="hardAlpha" operator="out"/><feColorMatrix values="0 0 0 0 0.217248 0 0 0 0 0.236798 0 0 0 0 0.301033 0 0 0 0.25 0"/><feBlend in2="BackgroundImageFix" result="effect1_dropShadow_261_361"/><feBlend in="SourceGraphic" in2="effect1_dropShadow_261_361" result="shape"/></filter><filter id="e" width="291" height="300" x="886" y="0" color-interpolation-filters="sRGB" filterUnits="userSpaceOnUse"><feFlood flood-opacity="0" result="BackgroundImageFix"/><feColorMatrix in="SourceAlpha" result="hardAlpha" values="0 0 0 0 0 0 0 0 0 0 0 0 0 0 0 0 0 0 127 0"/><feOffset dy="4"/><feGaussianBlur stdDeviation="20"/><feComposite in2="hardAlpha" operator="out"/><feColorMatrix values="0 0 0 0 0.217248 0 0 0 0 0.236798 0 0 0 0 0.301033 0 0 0 0.25 0"/><feBlend in2="BackgroundImageFix" result="effect1_dropShadow_261_361"/><feBlend in="SourceGraphic" in2="effect1_dropShadow_261_361" result="shape"/></filter><filter id="f" width="302" height="243" x="635" y="126" color-interpolation-filters="sRGB" filterUnits="userSpaceOnUse"><feFlood flood-opacity="0" result="BackgroundImageFix"/><feColorMatrix in="SourceAlpha" result="hardAlpha" values="0 0 0 0 0 0 0 0 0 0 0 0 0 0 0 0 0 0 127 0"/><feOffset dy="4"/><feGaussianBlur stdDeviation="20"/><feComposite in2="hardAlpha" operator="out"/><feColorMatrix values="0 0 0 0 0.217248 0 0 0 0 0.236798 0 0 0 0 0.301033 0 0 0 0.25 0"/><feBlend in2="BackgroundImageFix" result="effect1_dropShadow_261_361"/><feBlend in="SourceGraphic" in2="effect1_dropShadow_261_361" result="shape"/></filter></defs></svg>