<svg width="32" height="32" viewBox="0 0 32 32" fill="none" xmlns="http://www.w3.org/2000/svg">
<circle cx="16" cy="16" r="16" fill="url(#paint0_linear_261_551)"/>
<path d="M24.4139 18.0301C23.8012 16.2192 22.2162 14.888 20.3142 14.7202H19.4979C18.8301 14.7791 18.2019 14.9813 17.6406 15.2971C16.6032 15.8817 15.796 16.8548 15.3981 18.0301H13.2639C13.1165 18.0301 13.0177 17.8742 13.0777 17.736L14.3871 14.7202L14.3952 14.7021L15.1099 13.0562L16.4561 9.95529C16.5277 9.78997 16.7566 9.78997 16.8286 9.95529L18.2079 13.1325C18.2795 13.2978 18.5084 13.2978 18.5804 13.1325L20.0457 9.75741C20.1251 9.57474 20.1251 9.36637 20.0457 9.1837L18.9493 6.65837C18.8813 6.50137 18.7292 6.40009 18.5613 6.40009H14.7226C14.555 6.40009 14.403 6.50137 14.3346 6.65837L13.0018 9.72812L11.5566 13.0562L10.8423 14.7021L10.8341 14.7202L9.39701 18.0301L8.28829 20.584C8.20892 20.7667 8.20892 20.9751 8.28829 21.1577L9.754 24.5327C9.82561 24.6982 10.0546 24.6982 10.1265 24.5327L11.4511 21.4819C11.4839 21.4066 11.5569 21.3578 11.6374 21.3578H15.3981C16.0543 23.2967 17.8251 24.6858 19.906 24.6858C21.9869 24.6858 23.7578 23.2967 24.4139 21.3578C24.59 20.8372 24.6859 20.2773 24.6859 19.6938C24.6859 19.1103 24.59 18.5503 24.4139 18.0297V18.0301ZM19.9903 21.356C19.0273 21.4059 18.2368 20.5952 18.2855 19.6077C18.3271 18.7623 18.997 18.075 19.8217 18.0323C20.7847 17.9824 21.5753 18.793 21.5266 19.7806C21.485 20.626 20.8151 21.3133 19.9903 21.356Z" fill="white"/>
<defs>
<linearGradient id="paint0_linear_261_551" x1="16" y1="0" x2="16" y2="32" gradientUnits="userSpaceOnUse">
<stop stop-color="#5886F9"/>
<stop offset="1" stop-color="#6F63C5"/>
</linearGradient>
</defs>
</svg>
